<svg width="48" height="48" viewBox="0 0 48 48" fill="none" xmlns="http://www.w3.org/2000/svg">
<g clip-path="url(#clip0)">
<path d="M2.56851 10.2701H4.13517V11.0535C4.13517 11.4861 4.48588 11.8368 4.91851 11.8368C5.35113 11.8368 5.70184 11.4861 5.70184 11.0535V10.2701H7.26851C8.56637 10.2701 9.61851 9.21799 9.61851 7.92012V6.35345H10.4018C10.8345 6.35345 11.1852 6.00274 11.1852 5.57012C11.1852 5.13749 10.8345 4.78678 10.4018 4.78678H9.61851V3.22012C9.61851 1.92225 8.56637 0.870117 7.26851 0.870117H2.56851C1.27064 0.870117 0.218506 1.92225 0.218506 3.22012V7.92012C0.218506 9.21799 1.27064 10.2701 2.56851 10.2701ZM1.78517 3.22012C1.78517 2.78749 2.13588 2.43678 2.56851 2.43678H7.26851C7.70113 2.43678 8.05184 2.78749 8.05184 3.22012V7.92012C8.05184 8.35274 7.70113 8.70345 7.26851 8.70345H2.56851C2.13588 8.70345 1.78517 8.35274 1.78517 7.92012V3.22012Z" fill="#48505B"/>
<path d="M13.5352 16.5366V32.2033C13.5352 33.5012 14.5873 34.5533 15.8852 34.5533H31.5518C32.8497 34.5533 33.9018 33.5012 33.9018 32.2033V16.5366C33.9018 15.2388 32.8497 14.1866 31.5518 14.1866H15.8852C14.5873 14.1866 13.5352 15.2388 13.5352 16.5366ZM32.3352 16.5366V32.2033C32.3352 32.6359 31.9844 32.9866 31.5518 32.9866H15.8852C15.4525 32.9866 15.1018 32.6359 15.1018 32.2033V16.5366C15.1018 16.104 15.4525 15.7533 15.8852 15.7533H31.5518C31.9844 15.7533 32.3352 16.104 32.3352 16.5366Z" fill="#48505B"/>
<path d="M2.56851 47.8702H7.26851C8.56637 47.8702 9.6185 46.8181 9.6185 45.5202V43.9536H10.4018C10.8345 43.9536 11.1852 43.6029 11.1852 43.1702C11.1852 42.7376 10.8345 42.3869 10.4018 42.3869H9.6185V40.8202C9.6185 39.5224 8.56637 38.4702 7.26851 38.4702H5.70184V37.6869C5.70184 37.2543 5.35113 36.9036 4.91851 36.9036C4.48588 36.9036 4.13517 37.2543 4.13517 37.6869V38.4702H2.56851C1.27064 38.4702 0.218506 39.5224 0.218506 40.8202V45.5202C0.218506 46.8181 1.27064 47.8702 2.56851 47.8702ZM1.78517 40.8202C1.78517 40.3876 2.13588 40.0369 2.56851 40.0369H7.26851C7.70113 40.0369 8.05184 40.3876 8.05184 40.8202V45.5202C8.05184 45.9529 7.70113 46.3036 7.26851 46.3036H2.56851C2.13588 46.3036 1.78517 45.9529 1.78517 45.5202V40.8202Z" fill="#48505B"/>
<path d="M44.8686 0.870117H40.1686C38.8708 0.870117 37.8186 1.92225 37.8186 3.22012V4.78678H37.0353C36.6027 4.78678 36.252 5.13749 36.252 5.57012C36.252 6.00274 36.6027 6.35345 37.0353 6.35345H37.8186V7.92012C37.8186 9.21799 38.8708 10.2701 40.1686 10.2701H41.7353V11.0535C41.7353 11.4861 42.086 11.8368 42.5186 11.8368C42.9512 11.8368 43.302 11.4861 43.302 11.0535V10.2701H44.8686C46.1665 10.2701 47.2186 9.21799 47.2186 7.92012V3.22012C47.2186 1.92225 46.1665 0.870117 44.8686 0.870117ZM45.652 7.92012C45.652 8.35274 45.3012 8.70345 44.8686 8.70345H40.1686C39.736 8.70345 39.3853 8.35274 39.3853 7.92012V3.22012C39.3853 2.78749 39.736 2.43678 40.1686 2.43678H44.8686C45.3012 2.43678 45.652 2.78749 45.652 3.22012V7.92012Z" fill="#48505B"/>
<path d="M44.8686 38.4702H43.302V37.6869C43.302 37.2543 42.9512 36.9036 42.5186 36.9036C42.086 36.9036 41.7353 37.2543 41.7353 37.6869V38.4702H40.1686C38.8708 38.4702 37.8186 39.5224 37.8186 40.8202V42.3869H37.0353C36.6027 42.3869 36.252 42.7376 36.252 43.1702C36.252 43.6029 36.6027 43.9536 37.0353 43.9536H37.8186V45.5202C37.8186 46.8181 38.8708 47.8702 40.1686 47.8702H44.8686C46.1665 47.8702 47.2186 46.8181 47.2186 45.5202V40.8202C47.2186 39.5224 46.1665 38.4702 44.8686 38.4702ZM45.652 45.5202C45.652 45.9529 45.3012 46.3036 44.8686 46.3036H40.1686C39.736 46.3036 39.3853 45.9529 39.3853 45.5202V40.8202C39.3853 40.3876 39.736 40.0369 40.1686 40.0369H44.8686C45.3012 40.0369 45.652 40.3876 45.652 40.8202V45.5202Z" fill="#48505B"/>
<path d="M15.102 4.78687H13.5353C13.1027 4.78687 12.752 5.13758 12.752 5.5702C12.752 6.00282 13.1027 6.35353 13.5353 6.35353H15.102C15.5346 6.35353 15.8853 6.00282 15.8853 5.5702C15.8853 5.13758 15.5346 4.78687 15.102 4.78687Z" fill="#48505B"/>
<path d="M19.8019 6.35353C20.2345 6.35353 20.5852 6.00282 20.5852 5.5702C20.5852 5.13758 20.2345 4.78687 19.8019 4.78687H18.2352C17.8026 4.78687 17.4519 5.13758 17.4519 5.5702C17.4519 6.00282 17.8026 6.35353 18.2352 6.35353H19.8019Z" fill="#48505B"/>
<path d="M24.5019 6.35353C24.9345 6.35353 25.2852 6.00282 25.2852 5.5702C25.2852 5.13758 24.9345 4.78687 24.5019 4.78687H22.9352C22.5026 4.78687 22.1519 5.13758 22.1519 5.5702C22.1519 6.00282 22.5026 6.35353 22.9352 6.35353H24.5019Z" fill="#48505B"/>
<path d="M29.2018 6.35353C29.6344 6.35353 29.9851 6.00282 29.9851 5.5702C29.9851 5.13758 29.6344 4.78687 29.2018 4.78687H27.6351C27.2025 4.78687 26.8518 5.13758 26.8518 5.5702C26.8518 6.00282 27.2025 6.35353 27.6351 6.35353H29.2018Z" fill="#48505B"/>
<path d="M33.9018 4.78687H32.3351C31.9025 4.78687 31.5518 5.13758 31.5518 5.5702C31.5518 6.00282 31.9025 6.35353 32.3351 6.35353H33.9018C34.3344 6.35353 34.6851 6.00282 34.6851 5.5702C34.6851 5.13758 34.3344 4.78687 33.9018 4.78687Z" fill="#48505B"/>
<path d="M13.5353 43.9535H15.102C15.5346 43.9535 15.8853 43.6028 15.8853 43.1702C15.8853 42.7376 15.5346 42.3868 15.102 42.3868H13.5353C13.1027 42.3868 12.752 42.7376 12.752 43.1702C12.752 43.6028 13.1027 43.9535 13.5353 43.9535Z" fill="#48505B"/>
<path d="M18.2352 42.3868C17.8026 42.3868 17.4519 42.7376 17.4519 43.1702C17.4519 43.6028 17.8026 43.9535 18.2352 43.9535H19.8019C20.2345 43.9535 20.5852 43.6028 20.5852 43.1702C20.5852 42.7376 20.2345 42.3868 19.8019 42.3868H18.2352Z" fill="#48505B"/>
<path d="M22.9352 42.3868C22.5026 42.3868 22.1519 42.7376 22.1519 43.1702C22.1519 43.6028 22.5026 43.9535 22.9352 43.9535H24.5019C24.9345 43.9535 25.2852 43.6028 25.2852 43.1702C25.2852 42.7376 24.9345 42.3868 24.5019 42.3868H22.9352Z" fill="#48505B"/>
<path d="M27.6351 42.3868C27.2025 42.3868 26.8518 42.7376 26.8518 43.1702C26.8518 43.6028 27.2025 43.9535 27.6351 43.9535H29.2018C29.6344 43.9535 29.9851 43.6028 29.9851 43.1702C29.9851 42.7376 29.6344 42.3868 29.2018 42.3868H27.6351Z" fill="#48505B"/>
<path d="M33.9018 42.3868H32.3351C31.9025 42.3868 31.5518 42.7376 31.5518 43.1702C31.5518 43.6028 31.9025 43.9535 32.3351 43.9535H33.9018C34.3344 43.9535 34.6851 43.6028 34.6851 43.1702C34.6851 42.7376 34.3344 42.3868 33.9018 42.3868Z" fill="#48505B"/>
<path d="M4.91859 32.2034C4.48596 32.2034 4.13525 32.5541 4.13525 32.9867V34.5534C4.13525 34.986 4.48596 35.3367 4.91859 35.3367C5.35121 35.3367 5.70192 34.986 5.70192 34.5534V32.9867C5.70192 32.5541 5.35121 32.2034 4.91859 32.2034Z" fill="#48505B"/>
<path d="M5.70192 28.2868C5.70192 27.8541 5.35121 27.5034 4.91859 27.5034C4.48596 27.5034 4.13525 27.8541 4.13525 28.2868V29.8534C4.13525 30.286 4.48596 30.6368 4.91859 30.6368C5.35121 30.6368 5.70192 30.286 5.70192 29.8534V28.2868Z" fill="#48505B"/>
<path d="M5.70192 23.5869C5.70192 23.1543 5.35121 22.8036 4.91859 22.8036C4.48596 22.8036 4.13525 23.1543 4.13525 23.5869V25.1536C4.13525 25.5862 4.48596 25.9369 4.91859 25.9369C5.35121 25.9369 5.70192 25.5862 5.70192 25.1536V23.5869Z" fill="#48505B"/>
<path d="M5.70192 18.8867C5.70192 18.4541 5.35121 18.1034 4.91859 18.1034C4.48596 18.1034 4.13525 18.4541 4.13525 18.8867V20.4534C4.13525 20.886 4.48596 21.2367 4.91859 21.2367C5.35121 21.2367 5.70192 20.886 5.70192 20.4534V18.8867Z" fill="#48505B"/>
<path d="M5.70192 14.1869C5.70192 13.7543 5.35121 13.4036 4.91859 13.4036C4.48596 13.4036 4.13525 13.7543 4.13525 14.1869V15.7536C4.13525 16.1862 4.48596 16.5369 4.91859 16.5369C5.35121 16.5369 5.70192 16.1862 5.70192 15.7536V14.1869Z" fill="#48505B"/>
<path d="M41.7351 34.5534C41.7351 34.986 42.0858 35.3367 42.5184 35.3367C42.9511 35.3367 43.3018 34.986 43.3018 34.5534V32.9867C43.3018 32.5541 42.9511 32.2034 42.5184 32.2034C42.0858 32.2034 41.7351 32.5541 41.7351 32.9867V34.5534Z" fill="#48505B"/>
<path d="M41.7351 29.8534C41.7351 30.286 42.0858 30.6368 42.5184 30.6368C42.9511 30.6368 43.3018 30.286 43.3018 29.8534V28.2868C43.3018 27.8541 42.9511 27.5034 42.5184 27.5034C42.0858 27.5034 41.7351 27.8541 41.7351 28.2868V29.8534Z" fill="#48505B"/>
<path d="M41.7351 25.1536C41.7351 25.5862 42.0858 25.9369 42.5184 25.9369C42.9511 25.9369 43.3018 25.5862 43.3018 25.1536V23.5869C43.3018 23.1543 42.9511 22.8036 42.5184 22.8036C42.0858 22.8036 41.7351 23.1543 41.7351 23.5869V25.1536Z" fill="#48505B"/>
<path d="M41.7351 20.4534C41.7351 20.886 42.0858 21.2367 42.5184 21.2367C42.9511 21.2367 43.3018 20.886 43.3018 20.4534V18.8867C43.3018 18.4541 42.9511 18.1034 42.5184 18.1034C42.0858 18.1034 41.7351 18.4541 41.7351 18.8867V20.4534Z" fill="#48505B"/>
<path d="M42.5184 16.5369C42.9511 16.5369 43.3018 16.1862 43.3018 15.7536V14.1869C43.3018 13.7543 42.9511 13.4036 42.5184 13.4036C42.0858 13.4036 41.7351 13.7543 41.7351 14.1869V15.7536C41.7351 16.1862 42.0858 16.5369 42.5184 16.5369Z" fill="#48505B"/>
<path d="M21.3685 25.1535H22.9352V26.7202C22.9352 27.1528 23.2859 27.5035 23.7185 27.5035C24.1512 27.5035 24.5019 27.1528 24.5019 26.7202V25.1535H26.0685C26.5012 25.1535 26.8519 24.8028 26.8519 24.3702C26.8519 23.9375 26.5012 23.5868 26.0685 23.5868H24.5019V22.0201C24.5019 21.5875 24.1512 21.2368 23.7185 21.2368C23.2859 21.2368 22.9352 21.5875 22.9352 22.0201V23.5868H21.3685C20.9359 23.5868 20.5852 23.9375 20.5852 24.3702C20.5852 24.8028 20.9359 25.1535 21.3685 25.1535Z" fill="#48505B"/>
</g>
<defs>
<clipPath id="clip0">
<rect x="0.218506" y="0.870117" width="47" height="47" fill="white"/>
</clipPath>
</defs>
</svg>
