<svg width="12" height="12" viewBox="0 0 12 12" fill="none" xmlns="http://www.w3.org/2000/svg">
<path d="M11.5491 8.32977V9.95477C11.5497 10.1056 11.5188 10.2549 11.4584 10.3932C11.3979 10.5314 11.3093 10.6555 11.1982 10.7574C11.0871 10.8594 10.9559 10.9371 10.813 10.9854C10.6701 11.0337 10.5187 11.0517 10.3685 11.0381C8.70209 10.857 7.10138 10.2874 5.695 9.37518C4.38654 8.54354 3.27719 7.43394 2.44574 6.12518C1.53052 4.71209 0.960962 3.10322 0.783204 1.42893C0.769671 1.27914 0.787469 1.12818 0.835463 0.985646C0.883458 0.843114 0.960598 0.712139 1.06197 0.601061C1.16335 0.489982 1.28673 0.401234 1.42428 0.340465C1.56182 0.279697 1.71051 0.248241 1.86087 0.248099H3.4855C3.74832 0.245512 4.0031 0.3386 4.20238 0.510013C4.40165 0.681426 4.5318 0.919466 4.56859 1.17977C4.63716 1.6998 4.76433 2.21041 4.94767 2.70185C5.02053 2.89573 5.0363 3.10643 4.99311 3.30899C4.94991 3.51156 4.84957 3.69749 4.70397 3.84477L4.01621 4.53268C4.78713 5.88877 5.90969 7.01159 7.26547 7.78268L7.95323 7.09477C8.10047 6.94913 8.28636 6.84877 8.48888 6.80557C8.6914 6.76237 8.90205 6.77814 9.09588 6.85102C9.58721 7.0344 10.0977 7.1616 10.6176 7.23018C10.8807 7.2673 11.1209 7.39984 11.2927 7.60258C11.4644 7.80532 11.5557 8.06412 11.5491 8.32977Z" fill="white"/>
</svg>
