<svg width="81" height="81" viewBox="0 0 81 81" fill="none" xmlns="http://www.w3.org/2000/svg">
<circle opacity="0.1" cx="40.5378" cy="40.1514" r="40" fill="#0B2F64"/>
<g clip-path="url(#clip0)">
<path d="M55.2438 37.5915C53.9251 36.9457 51.4528 36.9382 51.3482 36.9382C51.0347 36.9382 50.7805 37.1872 50.7805 37.4943C50.7805 37.8014 51.0347 38.0504 51.3482 38.0504C51.9862 38.0505 53.8385 38.1467 54.736 38.5863C54.8176 38.6262 54.9041 38.6451 54.9894 38.6451C55.1977 38.6451 55.3982 38.5324 55.4976 38.3376C55.6379 38.0629 55.5242 37.7289 55.2438 37.5915Z" fill="#0B2F64"/>
<path d="M58.0738 45.5085L55.7293 44.8524C55.6282 44.824 55.5575 44.7323 55.5575 44.6291V43.8626C55.7482 43.7331 55.9301 43.5882 56.1002 43.4265C56.9245 42.643 57.3784 41.592 57.3784 40.4671V39.4093L57.605 38.9653C57.8538 38.4778 57.9853 37.932 57.9853 37.387V34.5214C57.9853 34.2143 57.7311 33.9653 57.4176 33.9653H51.955C49.9687 33.9653 48.3526 35.5484 48.3526 37.4943V37.5274C48.3526 37.9806 48.462 38.4344 48.6688 38.8397L48.9595 39.4092V40.3175C48.9595 41.7569 49.6836 43.0484 50.7804 43.8256L50.7806 44.629C50.7806 44.7529 50.7806 44.8042 50.3118 44.9354L49.1679 45.2556L45.8587 44.0768C45.8706 43.9239 45.8179 43.7683 45.704 43.6511L44.6466 42.5628V40.7359C44.7584 40.6457 44.8686 40.553 44.9754 40.455C46.3094 39.2302 47.0744 37.5008 47.0744 35.7105V34.2515C47.4773 33.3929 47.6814 32.4842 47.6814 31.5485V25.6029C47.6814 25.2958 47.4272 25.0469 47.1137 25.0469H38.6163C35.6259 25.0469 33.1931 27.4301 33.1931 30.3595V31.5486C33.1931 32.4844 33.3972 33.393 33.8 34.2517V35.507C33.8 37.5857 34.7435 39.4584 36.2278 40.693V42.5629L35.1704 43.6512C35.0565 43.7684 35.0038 43.9239 35.0157 44.0769L31.5231 45.3209C31.27 45.4111 31.0348 45.5332 30.8213 45.6811L30.2729 45.4125C31.9055 44.7164 32.4226 43.7373 32.4475 43.6887C32.5274 43.5322 32.5274 43.3479 32.4475 43.1913C32.0382 42.3896 31.9887 40.92 31.9488 39.7392C31.9356 39.346 31.923 38.9747 31.899 38.644C31.7055 35.9768 29.6356 33.9653 27.0842 33.9653C24.5327 33.9653 22.4627 35.9767 22.2693 38.644C22.2453 38.9747 22.2327 39.3461 22.2195 39.7393C22.1797 40.92 22.13 42.3895 21.7208 43.1913C21.6409 43.3478 21.6409 43.5321 21.7208 43.6886C21.7457 43.7373 22.2618 44.7143 23.8976 45.4113L22.3743 46.1574C21.5599 46.5565 21.054 47.3584 21.054 48.2503V52.3585C21.054 52.6656 21.3081 52.9145 21.6216 52.9145C21.9351 52.9145 22.1893 52.6656 22.1893 52.3585V48.2503C22.1893 47.7823 22.4547 47.3615 22.882 47.1522L24.7789 46.2231L25.4388 46.8374C25.9002 47.2669 26.492 47.4816 27.0842 47.4816C27.6761 47.4816 28.2683 47.2668 28.7295 46.8374L29.3893 46.2232L30.0078 46.5261C29.7166 46.9826 29.5513 47.518 29.5513 48.0787V52.3586C29.5513 52.6657 29.8054 52.9147 30.1189 52.9147C30.4324 52.9147 30.6866 52.6657 30.6866 52.3586V48.0787C30.6866 47.3153 31.1786 46.6271 31.9111 46.3662L35.5934 45.0546L37.1263 47.3071C37.3223 47.5951 37.6363 47.7798 37.9879 47.8139C38.0271 47.8176 38.0661 47.8195 38.105 47.8195C38.4152 47.8195 38.7122 47.6999 38.9343 47.4824L39.8695 46.5663V52.3587C39.8695 52.6658 40.1237 52.9148 40.4372 52.9148C40.7507 52.9148 41.0048 52.6658 41.0048 52.3587V46.5663L41.94 47.4824C42.162 47.7 42.4591 47.8196 42.7693 47.8196C42.8081 47.8196 42.8472 47.8177 42.8863 47.8139C43.238 47.7798 43.552 47.5951 43.748 47.3072L45.2809 45.0547L48.9632 46.3664C49.6956 46.6273 50.1877 47.3155 50.1877 48.0789V52.3588C50.1877 52.6659 50.4419 52.9148 50.7554 52.9148C51.0689 52.9148 51.323 52.6659 51.323 52.3588V48.0789C51.323 47.3057 51.0095 46.5806 50.4834 46.0443L50.6237 46.0051C50.7651 45.9655 50.9581 45.9113 51.1519 45.8182L52.6012 47.238V52.3588C52.6012 52.6659 52.8554 52.9148 53.1689 52.9148C53.4824 52.9148 53.7366 52.6659 53.7366 52.3588V47.238L55.1758 45.8281C55.2524 45.8662 55.3327 45.8984 55.4174 45.922L57.7619 46.5782C58.297 46.728 58.6708 47.2134 58.6708 47.7586V52.3588C58.6708 52.6659 58.925 52.9148 59.2385 52.9148C59.552 52.9148 59.8061 52.6659 59.8061 52.3588V47.7586C59.8061 46.7193 59.0937 45.7941 58.0738 45.5085ZM24.6957 44.5264C23.6339 44.1521 23.1012 43.6531 22.8739 43.3806C23.0289 42.9837 23.1294 42.529 23.1974 42.0491C23.5105 42.7844 24.0348 43.4121 24.6957 43.8599V44.5264ZM27.9476 46.0313C27.4634 46.482 26.705 46.4819 26.2209 46.0312L25.693 45.5398C25.7821 45.3763 25.8311 45.191 25.8311 44.9968V44.4041C26.2271 44.5253 26.648 44.5907 27.0843 44.5907C27.52 44.5907 27.9408 44.525 28.3375 44.4045L28.3374 44.9967C28.3374 45.191 28.3863 45.3764 28.4754 45.54L27.9476 46.0313ZM27.0845 43.4786C25.3894 43.4786 24.0104 42.1277 24.0104 40.4672C24.0104 40.1601 23.7562 39.9112 23.4427 39.9112C23.4109 39.9112 23.3799 39.9144 23.3496 39.9193C23.3512 39.8715 23.3528 39.8236 23.3545 39.7762C23.3671 39.3939 23.3793 39.0327 23.4018 38.7229C23.4743 37.7238 23.8819 36.8031 24.5494 36.1303C25.223 35.4515 26.1232 35.0776 27.0843 35.0776C28.0454 35.0776 28.9455 35.4515 29.6192 36.1303C30.2867 36.8031 30.6943 37.7238 30.7668 38.7229C30.7892 39.0326 30.8015 39.3937 30.8144 39.776C30.8155 39.8089 30.8166 39.8421 30.8178 39.8752C30.2001 38.9431 29.2463 38.2561 28.0139 37.8682C26.8753 37.5099 25.8961 37.5321 25.8548 37.5331C25.7061 37.5372 25.565 37.5981 25.4619 37.703L24.4377 38.7435C24.2201 38.9646 24.2266 39.3166 24.4523 39.5298C24.678 39.7429 25.0373 39.7365 25.2549 39.5155L26.1072 38.6497C26.8411 38.6848 29.2024 38.9538 30.1207 40.9347C29.8896 42.3944 28.6088 43.4786 27.0845 43.4786ZM29.4726 44.5282L29.4727 43.865C30.1331 43.4196 30.6581 42.7931 30.9714 42.0523C31.0394 42.5311 31.1399 42.9847 31.2946 43.3808C31.0685 43.6507 30.5334 44.1541 29.4726 44.5282ZM34.9353 35.5069V34.1273C34.9353 34.0436 34.916 33.9609 34.8789 33.8855C34.5136 33.1445 34.3284 32.3583 34.3284 31.5486V30.3595C34.3284 28.0434 36.252 26.1591 38.6163 26.1591H46.5461V31.5487C46.5461 32.3584 46.3609 33.1446 45.9956 33.8856C45.9584 33.961 45.9391 34.0436 45.9391 34.1273V35.7107C45.9391 37.2166 45.3211 38.6134 44.199 39.6437C44.0589 39.7723 43.9135 39.8929 43.7632 40.0052C43.7598 40.0074 43.7567 40.0099 43.7534 40.0122C42.7022 40.794 41.4146 41.174 40.0699 41.0886C37.1907 40.906 34.9353 38.4543 34.9353 35.5069ZM38.1315 46.6959C38.1276 46.6998 38.1185 46.7089 38.0999 46.707C38.0814 46.7052 38.0742 46.6946 38.0711 46.69L36.3057 44.0959L36.8738 43.5111L39.552 45.3044L38.1315 46.6959ZM40.4372 44.55L37.3632 42.4916V41.4536C38.1586 41.8749 39.0492 42.1383 39.9964 42.1983C40.1461 42.2078 40.2948 42.2125 40.4431 42.2125C41.5285 42.2125 42.5731 41.9583 43.5113 41.4759V42.4916L40.4372 44.55ZM42.8034 46.6902C42.8003 46.6947 42.793 46.7054 42.7745 46.7071C42.756 46.7094 42.7469 46.6999 42.7429 46.6961L41.3225 45.3046L44.0007 43.5113L44.5689 44.096L42.8034 46.6902ZM53.1689 46.221L51.8807 44.9591C51.9032 44.8591 51.9159 44.7496 51.9158 44.6288L51.9157 44.3942C52.2732 44.5091 52.65 44.5773 53.0399 44.5887C53.0836 44.59 53.127 44.5906 53.1706 44.5906C53.6014 44.5906 54.0219 44.5269 54.4221 44.4052V44.6291C54.4221 44.74 54.4364 44.8487 54.4632 44.9532L53.1689 46.221ZM55.3096 42.6284C54.7079 43.2004 53.9131 43.5024 53.074 43.4771C51.4313 43.4288 50.0948 42.0114 50.0948 40.3176V39.2781C50.0948 39.1917 50.0743 39.1066 50.0349 39.0294L49.6842 38.3424C49.5558 38.0907 49.4879 37.8089 49.4879 37.5275V37.4943C49.4879 36.1617 50.5947 35.0776 51.955 35.0776H56.85V37.3871C56.85 37.7603 56.7599 38.1341 56.5895 38.468L56.303 39.0294C56.2635 39.1066 56.243 39.1917 56.243 39.2781V40.4672C56.243 41.2887 55.9115 42.0562 55.3096 42.6284Z" fill="#0B2F64"/>
<path d="M56.8106 48.2351C56.4971 48.2351 56.2429 48.4841 56.2429 48.7912V52.3586C56.2429 52.6657 56.4971 52.9147 56.8106 52.9147C57.1241 52.9147 57.3782 52.6657 57.3782 52.3586V48.7912C57.3782 48.4842 57.1241 48.2351 56.8106 48.2351Z" fill="#0B2F64"/>
<path d="M24.0493 48.97C23.7358 48.97 23.4817 49.2189 23.4817 49.526V52.3584C23.4817 52.6655 23.7358 52.9145 24.0493 52.9145C24.3628 52.9145 24.617 52.6655 24.617 52.3584V49.526C24.617 49.219 24.3628 48.97 24.0493 48.97Z" fill="#0B2F64"/>
<path d="M45.0873 31.75C42.9403 29.6468 38.4483 30.0489 36.6165 30.3194C36.0396 30.4046 35.6208 30.8829 35.6208 31.4567V32.7377C35.6208 33.0448 35.875 33.2938 36.1885 33.2938C36.502 33.2938 36.7562 33.0448 36.7562 32.7377V31.4566C36.7562 31.4377 36.7689 31.4215 36.7858 31.419C37.5175 31.311 38.9694 31.1443 40.4737 31.2425C42.2439 31.358 43.5261 31.7933 44.2845 32.5363C44.5062 32.7535 44.8657 32.7535 45.0873 32.5363C45.309 32.3192 45.309 31.9671 45.0873 31.75Z" fill="#0B2F64"/>
<path d="M33.7608 49.4241C33.4473 49.4241 33.1931 49.673 33.1931 49.9801V52.3584C33.1931 52.6655 33.4473 52.9145 33.7608 52.9145C34.0743 52.9145 34.3284 52.6655 34.3284 52.3584V49.9801C34.3284 49.6731 34.0743 49.4241 33.7608 49.4241Z" fill="#0B2F64"/>
<path d="M47.1138 49.4241C46.8003 49.4241 46.5461 49.673 46.5461 49.9801V52.3584C46.5461 52.6655 46.8003 52.9145 47.1138 52.9145C47.4273 52.9145 47.6815 52.6655 47.6815 52.3584V49.9801C47.6815 49.6731 47.4273 49.4241 47.1138 49.4241Z" fill="#0B2F64"/>
</g>
<defs>
<clipPath id="clip0">
<rect x="21.054" y="20.0002" width="38.7522" height="37.9613" fill="white"/>
</clipPath>
</defs>
</svg>
