<svg width="81" height="81" viewBox="0 0 81 81" fill="none" xmlns="http://www.w3.org/2000/svg">
<circle opacity="0.1" cx="40.3013" cy="40.7122" r="40" fill="#0B2F64"/>
<g clip-path="url(#clip0)">
<path d="M41.0645 39.9206C41.4567 39.9206 41.7751 39.6022 41.7751 39.21C41.7751 38.8179 41.4567 38.4995 41.0645 38.4995C40.6724 38.4995 40.354 38.8179 40.354 39.21C40.354 39.6022 40.6724 39.9206 41.0645 39.9206Z" fill="#0B2F64"/>
<path d="M56.4121 34.2362H52.2102L45.7466 25.3437C45.1659 24.3486 43.887 23.9945 42.8711 24.5571C41.8414 25.1291 41.4711 26.4261 42.0434 27.4561C42.0598 27.4853 42.0779 27.5133 42.0981 27.5399L47.1679 34.2362H34.9611L40.0309 27.5399C40.0509 27.5133 40.0692 27.4853 40.0856 27.4561C40.6565 26.4286 40.2904 25.1305 39.2571 24.5565C38.2435 23.995 36.9645 24.3489 36.3827 25.3431L29.9188 34.2362H25.7169C24.1498 34.2362 22.8748 35.5113 22.8748 37.0784C22.8748 38.3143 23.6769 39.3904 24.8068 39.7712C24.9273 39.8645 25.0777 39.9205 25.2415 39.9205C25.2742 39.9205 25.305 39.9225 25.3372 39.9269C25.6431 39.968 25.8854 40.2 25.9409 40.5037L28.3581 53.8024C28.5427 54.8163 29.4247 55.5524 30.4556 55.5524H51.6734C52.7043 55.5524 53.5863 54.8163 53.7709 53.8021L56.1881 40.5039C56.2436 40.2 56.4862 39.968 56.7932 39.9269C56.8243 39.9225 56.8551 39.9205 56.8876 39.9205C57.0524 39.9205 57.204 39.8639 57.3244 39.7695C58.4552 39.3862 59.2543 38.3121 59.2543 37.0784C59.2543 35.5113 57.9792 34.2362 56.4121 34.2362ZM43.2663 26.7287C43.104 26.3925 43.23 25.9831 43.5603 25.8C43.9042 25.6093 44.3377 25.7322 44.5273 26.0739C44.5411 26.0994 44.557 26.1239 44.5739 26.1472L50.4533 34.2362H48.9501L43.2663 26.7287ZM37.5551 26.1475C37.5721 26.1241 37.5873 26.1 37.6015 26.075C37.7916 25.7331 38.2254 25.6098 38.5679 25.7994C38.8988 25.9831 39.0253 26.392 38.8627 26.7287L33.1789 34.2362H31.6757L37.5551 26.1475ZM56.4121 38.4995H43.9067C43.5142 38.4995 43.1961 38.8175 43.1961 39.21C43.1961 39.6025 43.5142 39.9133 43.9067 39.9133H54.8772C54.84 40.0193 54.8106 40.1292 54.7901 40.2425L52.3726 53.5479C52.3113 53.8859 52.0171 54.1313 51.6734 54.1313H30.4556C30.1117 54.1313 29.8178 53.8859 29.7561 53.5482L27.3389 40.2494C27.3184 40.1362 27.289 40.0263 27.2518 39.9205H38.2224C38.6148 39.9205 38.9329 39.6025 38.9329 39.21C38.9329 38.8175 38.6148 38.4995 38.2224 38.4995H25.7169C24.9267 38.4995 24.2958 37.8555 24.2958 37.0784C24.2958 36.2948 24.9334 35.6573 25.7169 35.6573H56.4121C57.1956 35.6573 57.8332 36.2948 57.8332 37.0784C57.8332 37.8675 57.1876 38.4995 56.4121 38.4995Z" fill="#0B2F64"/>
<path d="M41.0645 42.0522C39.889 42.0522 38.9329 43.0084 38.9329 44.1839V49.8682C38.9329 51.0436 39.889 51.9998 41.0645 51.9998C42.2399 51.9998 43.1961 51.0436 43.1961 49.8682V44.1839C43.1961 43.0062 42.2421 42.0522 41.0645 42.0522ZM41.775 49.8682C41.775 50.2601 41.4564 50.5787 41.0645 50.5787C40.6726 50.5787 40.3539 50.2601 40.3539 49.8682V44.1839C40.3539 43.792 40.6726 43.4733 41.0645 43.4733C41.4567 43.4733 41.775 43.7917 41.775 44.1839V49.8682Z" fill="#0B2F64"/>
<path d="M48.1699 51.9998C49.3454 51.9998 50.3015 51.0436 50.3015 49.8682V44.1839C50.3015 43.0062 49.3476 42.0522 48.1699 42.0522C46.9945 42.0522 46.0383 43.0084 46.0383 44.1839V49.8682C46.0383 51.0436 46.9945 51.9998 48.1699 51.9998ZM47.4594 44.1839C47.4594 43.792 47.778 43.4733 48.1699 43.4733C48.5621 43.4733 48.8805 43.7917 48.8805 44.1839V49.8682C48.8805 50.2601 48.5618 50.5787 48.1699 50.5787C47.778 50.5787 47.4594 50.2601 47.4594 49.8682V44.1839Z" fill="#0B2F64"/>
<path d="M33.9592 42.0522C32.7838 42.0522 31.8276 43.0084 31.8276 44.1839V49.8682C31.8276 51.0436 32.7838 51.9998 33.9592 51.9998C35.1347 51.9998 36.0909 51.0436 36.0909 49.8682V44.1839C36.0909 43.0062 35.1369 42.0522 33.9592 42.0522ZM34.6698 49.8682C34.6698 50.2601 34.3512 50.5787 33.9592 50.5787C33.5673 50.5787 33.2487 50.2601 33.2487 49.8682V44.1839C33.2487 43.792 33.5673 43.4733 33.9592 43.4733C34.3514 43.4733 34.6698 43.7914 34.6698 44.1839V49.8682Z" fill="#0B2F64"/>
<g clip-path="url(#clip1)">
<path d="M182.556 -53.959H-104.262C-136.825 -53.959 -163.313 -27.4707 -163.313 5.0914V173.808C-163.313 206.37 -136.825 232.859 -104.262 232.859H182.557C215.119 232.859 241.608 206.371 241.608 173.808V5.0914C241.607 -27.4707 215.119 -53.959 182.556 -53.959ZM224.736 173.809C224.736 197.058 205.822 215.988 182.557 215.988H-104.262C-127.529 215.988 -146.441 197.058 -146.441 173.809V5.0914C-146.441 -18.1575 -127.528 -37.0876 -104.262 -37.0876H182.557C205.823 -37.0876 224.736 -18.1575 224.736 5.0914V173.809Z" fill="black"/>
</g>
</g>
<defs>
<clipPath id="clip0">
<rect x="22.8748" y="21.7317" width="36.3796" height="36.3796" fill="white"/>
</clipPath>
<clipPath id="clip1">
<rect x="-163.313" y="-162.729" width="404.92" height="404.921" fill="white"/>
</clipPath>
</defs>
</svg>
