<svg width="81" height="81" viewBox="0 0 81 81" fill="none" xmlns="http://www.w3.org/2000/svg">
<circle opacity="0.1" cx="40.7158" cy="40.5012" r="40" fill="#0B2F64"/>
<g clip-path="url(#clip0)">
<path d="M51.7869 31.7397H30.4996C28.0829 31.7397 26.1169 33.7574 26.1169 36.2377V49.0892C26.1169 51.5695 28.0829 53.5872 30.4996 53.5872H51.787C54.2037 53.5872 56.1697 51.5696 56.1697 49.0892V36.2377C56.1696 33.7574 54.2037 31.7397 51.7869 31.7397ZM54.9175 49.0892C54.9175 50.8602 53.5137 52.3021 51.787 52.3021H30.4996C28.7729 52.3021 27.3692 50.8602 27.3692 49.0892V36.2377C27.3692 34.4668 28.7729 33.0249 30.4996 33.0249H51.787C53.5138 33.0249 54.9175 34.4668 54.9175 36.2377V49.0892Z" fill="#0B2F64"/>
<path d="M50.5348 40.7358C49.4992 40.7358 48.6565 41.6007 48.6565 42.6636C48.6565 43.7264 49.4992 44.5913 50.5348 44.5913C51.5704 44.5913 52.4131 43.7264 52.4131 42.6636C52.4131 41.6007 51.5704 40.7358 50.5348 40.7358ZM50.5348 43.3062C50.1904 43.3062 49.9087 43.0183 49.9087 42.6636C49.9087 42.3089 50.1904 42.021 50.5348 42.021C50.8792 42.021 51.1609 42.3089 51.1609 42.6636C51.1609 43.0183 50.8792 43.3062 50.5348 43.3062Z" fill="#0B2F64"/>
<path d="M55.5436 38.1655H50.5348C48.1181 38.1655 46.1521 40.1832 46.1521 42.6636C46.1521 45.1439 48.118 47.1616 50.5348 47.1616H55.5436C55.8892 47.1616 56.1697 46.8737 56.1697 46.519V38.8081C56.1697 38.4534 55.8892 38.1655 55.5436 38.1655ZM54.9175 45.8764H50.5348C48.808 45.8764 47.4043 44.4345 47.4043 42.6636C47.4043 40.8927 48.8081 39.4507 50.5348 39.4507H54.9175V45.8764Z" fill="#0B2F64"/>
<path d="M51.7207 32.0945L49.0698 26.6532C48.5351 25.5556 47.6123 24.7473 46.4728 24.3772C45.3333 24.0083 44.1261 24.124 43.0718 24.7049L30.203 31.817C29.8987 31.984 29.7848 32.3747 29.9488 32.687C30.1128 32.9993 30.4935 33.1162 30.7965 32.9479L43.6678 25.8384C44.4192 25.422 45.2844 25.3385 46.0958 25.6032C46.9098 25.8667 47.5684 26.445 47.9503 27.229L50.6013 32.6703C50.7114 32.8952 50.9318 33.025 51.161 33.025C51.2549 33.025 51.3501 33.0031 51.4402 32.9568C51.7495 32.7975 51.8747 32.412 51.7207 32.0945Z" fill="#0B2F64"/>
<path d="M49.2088 26.9384C49.0435 26.6248 48.6628 26.5092 48.3598 26.6762L39.0572 31.8168C38.753 31.9852 38.639 32.3746 38.803 32.6869C38.9157 32.9028 39.1311 33.0249 39.354 33.0249C39.4542 33.0249 39.5569 33.0005 39.652 32.949L48.9546 27.8085C49.2588 27.6401 49.3728 27.2507 49.2088 26.9384Z" fill="#0B2F64"/>
<path d="M37.3867 27.8843H33.004C29.2074 27.8843 26.1169 31.0547 26.1169 34.9526V36.2377C26.1169 36.5924 26.3975 36.8803 26.7431 36.8803C27.0887 36.8803 27.3692 36.5924 27.3692 36.2377V34.9526C27.3692 31.7641 29.8974 29.1694 33.0041 29.1694H37.3867C37.7323 29.1694 38.0128 28.8815 38.0128 28.5268C38.0128 28.1721 37.7323 27.8843 37.3867 27.8843Z" fill="#0B2F64"/>
<path d="M49.2826 27.8843C48.937 27.8843 48.6565 28.1722 48.6565 28.5269C48.6565 28.8816 48.937 29.1695 49.2826 29.1695C52.3893 29.1695 54.9175 31.7642 54.9175 34.9526V36.2378C54.9175 36.5925 55.198 36.8804 55.5436 36.8804C55.8892 36.8804 56.1697 36.5925 56.1697 36.2378V34.9526C56.1697 31.0547 53.0792 27.8843 49.2826 27.8843Z" fill="#0B2F64"/>
</g>
<defs>
<clipPath id="clip0">
<rect x="26.1169" y="23.4546" width="30.0527" height="30.8436" fill="white"/>
</clipPath>
</defs>
</svg>
