<svg width="47" height="47" viewBox="0 0 47 47" fill="none" xmlns="http://www.w3.org/2000/svg">
<path d="M41.0637 1.95644C40.9978 1.85917 40.9091 1.77952 40.8054 1.72447C40.7016 1.66941 40.586 1.64062 40.4685 1.64063H9.56226C9.4448 1.64063 9.32913 1.66942 9.22538 1.72447C9.12162 1.77953 9.03294 1.85917 8.96709 1.95643C8.90124 2.05369 8.86023 2.16561 8.84765 2.28239C8.83507 2.39918 8.8513 2.51726 8.89492 2.62632L10.281 6.09153V37.5781H8.84351C8.74912 37.5781 8.65565 37.5967 8.56845 37.6328C8.48125 37.669 8.40201 37.7219 8.33527 37.7886C8.26852 37.8554 8.21558 37.9346 8.17946 38.0218C8.14334 38.109 8.12475 38.2025 8.12476 38.2969V40.4531H5.96851C5.87412 40.4531 5.78065 40.4717 5.69345 40.5078C5.60624 40.544 5.52701 40.5969 5.46027 40.6636C5.39352 40.7304 5.34058 40.8096 5.30446 40.8968C5.26834 40.984 5.24975 41.0775 5.24976 41.1719V44.0469C5.24975 44.1413 5.26834 44.2347 5.30446 44.3219C5.34058 44.4091 5.39352 44.4884 5.46027 44.5551C5.52701 44.6219 5.60624 44.6748 5.69345 44.7109C5.78065 44.747 5.87412 44.7656 5.96851 44.7656H39.031C39.1254 44.7656 39.2189 44.747 39.3061 44.7109C39.3933 44.6748 39.4725 44.6219 39.5392 44.5551C39.606 44.4884 39.6589 44.4091 39.695 44.3219C39.7312 44.2347 39.7498 44.1413 39.7498 44.0469V6.09153L41.1358 2.62632C41.1795 2.51726 41.1957 2.39918 41.1831 2.2824C41.1705 2.16562 41.1295 2.0537 41.0637 1.95644ZM39.4069 3.07812L38.5444 5.23438H11.4864L10.6239 3.07812H39.4069ZM9.56226 39.0156H21.781V40.4531H9.56226V39.0156ZM18.906 37.5781H15.3123V28.9531H18.906V37.5781ZM6.68726 41.8906H21.781V43.3281H6.68726V41.8906ZM23.2185 43.3281V41.8906H26.0935V40.4531H23.2185V38.2969C23.2185 38.2025 23.1999 38.109 23.1638 38.0218C23.1277 37.9346 23.0747 37.8554 23.008 37.7886C22.9413 37.7219 22.862 37.669 22.7748 37.6328C22.6876 37.5967 22.5941 37.5781 22.4998 37.5781H20.3435V28.2344C20.3435 28.14 20.3249 28.0465 20.2888 27.9593C20.2527 27.8721 20.1997 27.7929 20.133 27.7261C20.0663 27.6594 19.987 27.6065 19.8998 27.5703C19.8126 27.5342 19.7191 27.5156 19.6248 27.5156H14.5935C14.4991 27.5156 14.4057 27.5342 14.3184 27.5703C14.2312 27.6065 14.152 27.6594 14.0853 27.7261C14.0185 27.7929 13.9656 27.8721 13.9295 27.9593C13.8933 28.0465 13.8748 28.14 13.8748 28.2344V37.5781H11.7185V26.7969H13.156V25.3594H11.7185V9.54688H13.156V8.10938H11.7185V6.67188H38.3123V16.7344H36.156V18.1719H38.3123V26.0781H36.156V27.5156H38.3123V39.0156H34.7185V40.4531H38.3123V43.3281H23.2185Z" fill="#48505B"/>
<path d="M18.906 18.1719H15.3123C15.2179 18.1719 15.1244 18.1905 15.0372 18.2266C14.95 18.2627 14.8708 18.3156 14.804 18.3824C14.7373 18.4491 14.6843 18.5284 14.6482 18.6156C14.6121 18.7028 14.5935 18.7962 14.5935 18.8906V24.6406C14.5935 24.735 14.6121 24.8285 14.6482 24.9157C14.6843 25.0029 14.7373 25.0821 14.804 25.1489C14.8708 25.2156 14.95 25.2685 15.0372 25.3047C15.1244 25.3408 15.2179 25.3594 15.3123 25.3594H18.906C19.0004 25.3594 19.0939 25.3408 19.1811 25.3047C19.2683 25.2685 19.3475 25.2156 19.4142 25.1489C19.481 25.0821 19.5339 25.0029 19.57 24.9157C19.6062 24.8285 19.6248 24.735 19.6248 24.6406V18.8906C19.6248 18.7962 19.6062 18.7028 19.57 18.6156C19.5339 18.5284 19.481 18.4491 19.4142 18.3824C19.3475 18.3156 19.2683 18.2627 19.1811 18.2266C19.0939 18.1905 19.0004 18.1719 18.906 18.1719ZM18.1873 23.9219H16.031V19.6094H18.1873V23.9219Z" fill="#48505B"/>
<path d="M18.906 8.82813H15.3123C15.2179 8.82812 15.1244 8.84671 15.0372 8.88283C14.95 8.91895 14.8708 8.97189 14.804 9.03864C14.7373 9.10538 14.6843 9.18461 14.6482 9.27182C14.6121 9.35902 14.5935 9.45249 14.5935 9.54688V15.2969C14.5935 15.3913 14.6121 15.4847 14.6482 15.5719C14.6843 15.6591 14.7373 15.7384 14.804 15.8051C14.8708 15.8719 14.95 15.9248 15.0372 15.9609C15.1244 15.997 15.2179 16.0156 15.3123 16.0156H18.906C19.0004 16.0156 19.0939 15.997 19.1811 15.9609C19.2683 15.9248 19.3475 15.8719 19.4142 15.8051C19.481 15.7384 19.5339 15.6591 19.57 15.5719C19.6062 15.4847 19.6248 15.3913 19.6248 15.2969V9.54688C19.6248 9.45249 19.6062 9.35902 19.57 9.27182C19.5339 9.18461 19.481 9.10538 19.4142 9.03864C19.3475 8.97189 19.2683 8.91895 19.1811 8.88283C19.0939 8.84671 19.0004 8.82812 18.906 8.82813ZM18.1873 14.5781H16.031V10.2656H18.1873V14.5781Z" fill="#48505B"/>
<path d="M26.8123 18.1719H23.2185C23.1241 18.1719 23.0307 18.1905 22.9434 18.2266C22.8562 18.2627 22.777 18.3156 22.7103 18.3824C22.6435 18.4491 22.5906 18.5284 22.5545 18.6156C22.5183 18.7028 22.4998 18.7962 22.4998 18.8906V24.6406C22.4998 24.735 22.5183 24.8285 22.5545 24.9157C22.5906 25.0029 22.6435 25.0821 22.7103 25.1489C22.777 25.2156 22.8562 25.2685 22.9434 25.3047C23.0307 25.3408 23.1241 25.3594 23.2185 25.3594H26.8123C26.9066 25.3594 27.0001 25.3408 27.0873 25.3047C27.1745 25.2685 27.2538 25.2156 27.3205 25.1489C27.3872 25.0821 27.4402 25.0029 27.4763 24.9157C27.5124 24.8285 27.531 24.735 27.531 24.6406V18.8906C27.531 18.7962 27.5124 18.7028 27.4763 18.6156C27.4402 18.5284 27.3872 18.4491 27.3205 18.3824C27.2538 18.3156 27.1745 18.2627 27.0873 18.2266C27.0001 18.1905 26.9066 18.1719 26.8123 18.1719ZM26.0935 23.9219H23.9373V19.6094H26.0935V23.9219Z" fill="#48505B"/>
<path d="M26.8123 8.82813H23.2185C23.1241 8.82812 23.0307 8.84671 22.9434 8.88283C22.8562 8.91895 22.777 8.97189 22.7103 9.03864C22.6435 9.10538 22.5906 9.18461 22.5545 9.27182C22.5183 9.35902 22.4998 9.45249 22.4998 9.54688V15.2969C22.4998 15.3913 22.5183 15.4847 22.5545 15.5719C22.5906 15.6591 22.6435 15.7384 22.7103 15.8051C22.777 15.8719 22.8562 15.9248 22.9434 15.9609C23.0307 15.997 23.1241 16.0156 23.2185 16.0156H26.8123C26.9066 16.0156 27.0001 15.997 27.0873 15.9609C27.1745 15.9248 27.2538 15.8719 27.3205 15.8051C27.3872 15.7384 27.4402 15.6591 27.4763 15.5719C27.5124 15.4847 27.531 15.3913 27.531 15.2969V9.54688C27.531 9.45249 27.5124 9.35902 27.4763 9.27182C27.4402 9.18461 27.3872 9.10538 27.3205 9.03864C27.2538 8.97189 27.1745 8.91895 27.0873 8.88283C27.0001 8.84671 26.9066 8.82812 26.8123 8.82813ZM26.0935 14.5781H23.9373V10.2656H26.0935V14.5781Z" fill="#48505B"/>
<path d="M31.1248 25.3594H34.7185C34.8129 25.3594 34.9064 25.3408 34.9936 25.3047C35.0808 25.2685 35.16 25.2156 35.2267 25.1489C35.2935 25.0821 35.3464 25.0029 35.3825 24.9157C35.4187 24.8285 35.4373 24.735 35.4373 24.6406V18.8906C35.4373 18.7962 35.4187 18.7028 35.3825 18.6156C35.3464 18.5284 35.2935 18.4491 35.2267 18.3824C35.16 18.3156 35.0808 18.2627 34.9936 18.2266C34.9064 18.1905 34.8129 18.1719 34.7185 18.1719H31.1248C31.0304 18.1719 30.9369 18.1905 30.8497 18.2266C30.7625 18.2627 30.6833 18.3156 30.6165 18.3824C30.5498 18.4491 30.4968 18.5284 30.4607 18.6156C30.4246 18.7028 30.406 18.7962 30.406 18.8906V24.6406C30.406 24.735 30.4246 24.8285 30.4607 24.9157C30.4968 25.0029 30.5498 25.0821 30.6165 25.1489C30.6833 25.2156 30.7625 25.2685 30.8497 25.3047C30.9369 25.3408 31.0304 25.3594 31.1248 25.3594ZM31.8435 19.6094H33.9998V23.9219H31.8435V19.6094Z" fill="#48505B"/>
<path d="M26.8123 27.5156H23.2185C23.1241 27.5156 23.0307 27.5342 22.9434 27.5703C22.8562 27.6065 22.777 27.6594 22.7103 27.7261C22.6435 27.7929 22.5906 27.8721 22.5545 27.9593C22.5183 28.0465 22.4998 28.14 22.4998 28.2344V33.9844C22.4998 34.0788 22.5183 34.1722 22.5545 34.2594C22.5906 34.3466 22.6435 34.4259 22.7103 34.4926C22.777 34.5594 22.8562 34.6123 22.9434 34.6484C23.0307 34.6845 23.1241 34.7031 23.2185 34.7031H26.8123C26.9066 34.7031 27.0001 34.6845 27.0873 34.6484C27.1745 34.6123 27.2538 34.5594 27.3205 34.4926C27.3872 34.4259 27.4402 34.3466 27.4763 34.2594C27.5124 34.1722 27.531 34.0788 27.531 33.9844V28.2344C27.531 28.14 27.5124 28.0465 27.4763 27.9593C27.4402 27.8721 27.3872 27.7929 27.3205 27.7261C27.2538 27.6594 27.1745 27.6065 27.0873 27.5703C27.0001 27.5342 26.9066 27.5156 26.8123 27.5156ZM26.0935 33.2656H23.9373V28.9531H26.0935V33.2656Z" fill="#48505B"/>
<path d="M31.1248 34.7031H34.7185C34.8129 34.7031 34.9064 34.6845 34.9936 34.6484C35.0808 34.6123 35.16 34.5594 35.2267 34.4926C35.2935 34.4259 35.3464 34.3466 35.3825 34.2594C35.4187 34.1722 35.4373 34.0788 35.4373 33.9844V28.2344C35.4373 28.14 35.4187 28.0465 35.3825 27.9593C35.3464 27.8721 35.2935 27.7929 35.2267 27.7261C35.16 27.6594 35.0808 27.6065 34.9936 27.5703C34.9064 27.5342 34.8129 27.5156 34.7185 27.5156H31.1248C31.0304 27.5156 30.9369 27.5342 30.8497 27.5703C30.7625 27.6065 30.6833 27.6594 30.6165 27.7261C30.5498 27.7929 30.4968 27.8721 30.4607 27.9593C30.4246 28.0465 30.406 28.14 30.406 28.2344V33.9844C30.406 34.0788 30.4246 34.1722 30.4607 34.2594C30.4968 34.3466 30.5498 34.4259 30.6165 34.4926C30.6833 34.5594 30.7625 34.6123 30.8497 34.6484C30.9369 34.6845 31.0304 34.7031 31.1248 34.7031ZM31.8435 28.9531H33.9998V33.2656H31.8435V28.9531Z" fill="#48505B"/>
<path d="M31.1248 16.0156H34.7185C34.8129 16.0156 34.9064 15.997 34.9936 15.9609C35.0808 15.9248 35.16 15.8719 35.2267 15.8051C35.2935 15.7384 35.3464 15.6591 35.3825 15.5719C35.4187 15.4847 35.4373 15.3913 35.4373 15.2969V9.54688C35.4373 9.45249 35.4187 9.35902 35.3825 9.27182C35.3464 9.18461 35.2935 9.10538 35.2267 9.03864C35.16 8.97189 35.0808 8.91895 34.9936 8.88283C34.9064 8.84671 34.8129 8.82812 34.7185 8.82813H31.1248C31.0304 8.82812 30.9369 8.84671 30.8497 8.88283C30.7625 8.91895 30.6833 8.97189 30.6165 9.03864C30.5498 9.10538 30.4968 9.18461 30.4607 9.27182C30.4246 9.35902 30.406 9.45249 30.406 9.54688V15.2969C30.406 15.3913 30.4246 15.4847 30.4607 15.5719C30.4968 15.6591 30.5498 15.7384 30.6165 15.8051C30.6833 15.8719 30.7625 15.9248 30.8497 15.9609C30.9369 15.997 31.0304 16.0156 31.1248 16.0156ZM31.8435 10.2656H33.9998V14.5781H31.8435V10.2656Z" fill="#48505B"/>
<path d="M32.5623 36.1406H34.7185V37.5781H32.5623V36.1406Z" fill="#48505B"/>
<path d="M29.6873 39.7344H31.8435V41.1719H29.6873V39.7344Z" fill="#48505B"/>
<path d="M20.3435 16.0156H22.4998V17.4531H20.3435V16.0156Z" fill="#48505B"/>
<path d="M26.0935 37.5781H27.531V39.0156H26.0935V37.5781Z" fill="#48505B"/>
</svg>
