<svg width="159" height="53" viewBox="0 0 159 53" fill="none" xmlns="http://www.w3.org/2000/svg">
<path d="M24.9745 14.0279C26.2322 13.8394 27.6289 13.366 28.8206 14.0514C29.3859 14.3364 29.6214 14.9535 29.8711 15.4952C30.5918 15.4928 31.3125 15.4928 32.0332 15.4834C32.3205 15.0948 32.5325 14.5696 33.0248 14.3976C33.8326 14.148 34.6923 14.2587 35.5166 14.3364C35.0456 15.4175 33.8208 15.4481 32.8057 15.4104C33.046 15.6106 33.2909 15.8061 33.5076 16.0322C33.5311 16.3996 33.4864 16.767 33.477 17.1344C34.0092 17.4618 34.2047 18.0082 34.1718 18.6159C34.6334 18.5028 35.0997 18.4039 35.5708 18.3332C35.2881 18.696 34.9396 19.0116 34.4991 19.1694C31.6917 20.3376 28.4132 20.3352 25.6057 19.1717C25.1606 19.0139 24.8073 18.6936 24.5317 18.3191C25.17 18.3945 25.7753 18.6112 26.3641 18.8538C26.5855 18.451 26.8093 18.0483 27.033 17.6455C26.8187 17.3535 26.6114 17.0591 26.4395 16.7411C26.6279 16.1782 26.9176 15.6577 27.1555 15.116C26.9482 15.3751 26.7504 15.6412 26.5667 15.9144C26.1757 15.9285 25.7682 15.9874 25.3985 15.8296C25.1983 15.2432 25.1347 14.6237 24.9745 14.0279ZM25.9496 14.3859C25.9378 14.7862 25.9213 15.1866 25.8978 15.587C26.1804 15.2597 26.3735 14.7297 26.8917 14.7556C27.252 14.7533 27.7702 14.8593 27.8032 15.302C27.6407 15.8367 27.3557 16.3219 27.1249 16.8259C27.3934 17.0096 27.6642 17.191 27.9351 17.3723C27.603 17.987 27.2638 18.6017 26.9765 19.2424C27.5559 18.6206 27.9916 17.874 28.6134 17.2899C29.433 17.1038 30.295 17.1698 31.1288 17.2239C31.7977 17.4123 32.4124 17.7845 33.0083 18.1354C33.1826 18.4675 33.3074 18.8255 33.4487 19.1741C33.4299 18.7713 33.411 18.3709 33.3922 17.9682C32.7092 17.5348 32.6149 16.7953 32.8175 16.0581C31.793 15.9827 30.7614 16.0557 29.7392 15.9592C28.9266 15.9168 29.0326 14.8263 28.4226 14.4754C27.6736 14.0019 26.7574 14.2493 25.9496 14.3859ZM29.0279 17.702C28.6181 18.239 28.2059 18.7737 27.7985 19.3107C29.4024 19.5627 31.0252 19.5297 32.6291 19.2871C32.5702 19.0139 32.5137 18.7407 32.4571 18.4699C31.9602 18.2437 31.475 17.9964 31.0063 17.7232C30.3468 17.7044 29.6874 17.7091 29.0279 17.702Z" fill="white"/>
<path d="M20.874 23.6797C21.2155 23.4017 21.6747 23.5171 22.0374 23.6844C23.2834 24.3509 24.2891 25.757 23.8816 27.222C24.852 28.0439 25.7517 29.2616 25.2641 30.5994C24.9721 30.6889 24.68 30.7831 24.3903 30.8796C23.7214 32.2834 23.0997 33.7083 22.3672 35.0791C22.1081 34.6951 21.8796 34.29 21.7477 33.8449C21.2437 32.2151 20.768 30.5758 20.2569 28.9483C19.9436 27.9026 18.8932 27.083 19.1052 25.9007C19.1994 25.1823 20.059 25.187 20.5984 25.293C20.5819 24.7631 20.3322 24.0377 20.874 23.6797ZM21.2696 24.3179C20.7845 25.2247 21.557 26.2257 22.3413 26.6496C22.7464 26.9346 23.4624 26.6967 23.3658 26.1291C23.3234 25.1658 22.3083 23.9293 21.2696 24.3179ZM19.873 26.0184C19.2229 27.0618 20.6243 28.8212 21.7831 28.3313C22.1646 27.7166 21.7878 26.9652 21.3309 26.5083C20.9705 26.1385 20.3958 25.6863 19.873 26.0184ZM22.916 27.5941C22.4567 27.7118 22.4944 28.3595 22.6286 28.7152C22.9112 29.3723 23.4812 30.0247 24.2302 30.1142C24.9721 30.0906 24.8826 29.1109 24.5764 28.6657C24.2208 28.1217 23.6296 27.4363 22.916 27.5941ZM20.8245 29.0873C21.3073 30.6206 21.7666 32.1609 22.2424 33.6965C22.711 32.7073 23.1774 31.7134 23.6508 30.7242C22.6522 30.2838 21.7054 29.7326 20.8245 29.0873Z" fill="white"/>
<path d="M36.866 25.3307C37.4925 24.8526 38.2155 24.5205 38.8915 24.1201C39.014 24.2073 39.2566 24.3863 39.379 24.4734C40.3329 24.146 41.2891 24.5299 42.1959 24.829C41.8191 25.9619 41.3998 27.0807 40.9311 28.1782C40.778 28.1546 40.4719 28.1075 40.3188 28.084C40.2599 29.7586 40.4624 31.4638 40.2199 33.1242C38.6795 34.1699 37.0167 35.0508 35.3775 35.9411C35.3398 34.2759 35.361 32.6108 35.3633 30.9433C35.1349 31.2165 34.9088 31.4897 34.6897 31.7699C34.2823 31.1623 33.8112 30.5876 33.5098 29.9187C34.3317 28.1829 35.8085 26.8993 36.866 25.3307ZM38.8044 25.0363C38.5217 25.3048 38.1779 25.7688 38.3192 26.1739C38.7125 26.1762 39.0823 25.2577 38.8044 25.0363ZM39.412 25.1234C39.16 25.7358 38.9833 26.3882 38.6301 26.9535C38.4887 26.9747 38.2061 27.0171 38.0648 27.0383C38.0884 29.2805 38.0695 31.525 38.0766 33.7696C38.663 33.4328 39.2471 33.0936 39.8336 32.7568C39.8359 31.1576 39.8242 29.5607 39.8383 27.9615C39.5298 27.8862 39.2354 27.7613 38.9622 27.5988C39.054 27.4575 39.233 27.1702 39.3249 27.0288C39.8148 27.1537 40.307 27.2785 40.7992 27.4033C41.0513 26.7344 41.3056 26.0655 41.5576 25.3943C40.8605 25.1965 40.1421 24.9774 39.412 25.1234ZM37.5843 25.7641C37.8552 26.0161 38.2815 25.5686 38.0884 25.2907C37.8246 25.0928 37.3417 25.4791 37.5843 25.7641ZM36.6634 26.0608C36.7906 26.4023 36.9414 26.7321 37.085 27.0665C37.2169 26.8569 37.3488 26.6496 37.476 26.4377C37.2051 26.3105 36.9343 26.1857 36.6634 26.0608ZM34.108 29.7044C34.36 30.0789 34.612 30.4557 34.8617 30.8326C35.4057 30.0765 35.9003 29.2781 36.5551 28.6069C36.6517 29.2522 36.1806 29.7421 35.8532 30.239C35.8438 31.843 35.8509 33.4492 35.8485 35.0555C36.4279 34.7234 37.0049 34.3866 37.5843 34.0545C37.5914 31.7605 37.5702 29.4665 37.5961 27.1725C37.3959 27.441 37.2028 27.7119 37.0167 27.9898C36.7553 27.6506 36.4986 27.3115 36.2442 26.9676C35.3869 27.759 34.7745 28.7576 34.108 29.7044Z" fill="white"/>
<path d="M17.3154 7.16937C18.2386 6.71952 19.0465 5.96584 20.0781 5.78448C21.0555 5.88105 21.8139 6.60647 22.6688 7.0257C23.4625 7.55092 24.4871 7.85239 25.0052 8.70028C25.2219 9.43983 25.0665 10.2335 25.1018 10.9943C26.3195 10.3136 27.4829 9.52226 28.7571 8.94993C29.8641 8.54483 31.1359 8.70499 32.1298 9.32677C35.0221 10.9966 37.9167 12.6642 40.8066 14.3364C40.8231 13.8229 40.7665 13.3001 40.8772 12.7937C41.1693 12.0188 41.9748 11.6561 42.6413 11.2604C43.7859 10.6316 44.8906 9.92736 46.0493 9.31971C46.6099 9.00411 47.2976 9.0936 47.837 9.41627C49.09 10.1228 50.3288 10.86 51.5795 11.569C52.1777 11.9175 52.8796 12.4169 52.8678 13.1894C52.8843 14.9181 52.8796 16.6492 52.8701 18.3803C52.8913 19.2235 52.1023 19.7346 51.457 20.1044C50.1404 20.8298 48.8733 21.6424 47.5402 22.3301C46.6688 22.7611 45.7926 22.177 45.0625 21.7413C45.0813 25.1705 45.0766 28.5997 45.0696 32.029C45.0978 33.4892 44.1275 34.721 42.9145 35.4252C43.6258 35.8775 44.648 36.1554 44.9424 37.0315C45.0225 38.3528 44.9659 39.6812 44.973 41.0048C45.0507 41.7703 44.3112 42.1942 43.7436 42.5192C42.8132 43.0209 41.9347 43.6215 40.9761 44.0643C40.1283 44.4435 39.3604 43.7157 38.6445 43.3554C37.7966 42.7783 36.7202 42.4604 36.0867 41.6195C35.8323 40.9106 35.9995 40.124 35.9665 39.3821C34.6099 40.1734 33.2556 40.9742 31.8825 41.7397C30.7143 42.4133 29.207 42.3591 28.0647 41.6572C25.5775 40.2158 23.0739 38.798 20.6009 37.333C20.5679 37.9312 20.6786 38.6095 20.2618 39.1041C19.673 39.8837 18.7238 40.2394 17.9183 40.741C16.7619 41.3934 15.629 42.0859 14.4655 42.7289C13.7848 43.1104 12.9205 43.0539 12.2634 42.6488C10.716 41.7538 9.16856 40.8612 7.61881 39.9685C6.97111 39.5799 6.28574 38.9817 6.29987 38.162C6.2928 36.1153 6.29516 34.0686 6.29987 32.0219C6.27632 31.1387 7.04177 30.5216 7.73657 30.1212C9.30752 29.238 10.8526 28.3077 12.4259 27.4292C13.2761 26.9346 14.2724 27.2549 15.0496 27.7307C15.0166 24.7678 15.0284 21.8002 15.0378 18.8373C15.0331 17.3464 16.0647 16.1146 17.3248 15.441C16.6841 15.0759 15.9776 14.7815 15.4524 14.2469C14.986 13.7782 15.1579 13.0693 15.1226 12.4804C15.1721 11.2534 15.0378 10.0145 15.1933 8.79449C15.596 7.9466 16.5805 7.65455 17.3154 7.16937ZM16.4628 8.65553C17.6616 9.32206 18.7921 10.1323 20.0616 10.6598C21.3993 10.2288 22.5322 9.315 23.7664 8.65553C22.6052 7.9466 21.4676 7.1623 20.2099 6.63708C18.8415 6.99744 17.6945 7.97015 16.4628 8.65553ZM15.9752 9.4728C15.9823 10.853 15.8527 12.2449 16.0294 13.6157C16.6323 14.221 17.4449 14.5436 18.1679 14.9794C18.6649 14.6967 19.1619 14.4141 19.6588 14.1268C19.6258 13.2907 19.7954 12.4121 19.5363 11.6067C18.4671 10.7281 17.167 10.17 15.9752 9.4728ZM21.1426 11.2439C20.2429 11.6726 20.6622 12.8196 20.5609 13.611C21.7997 12.8879 23.0433 12.1719 24.2869 11.4583C24.2869 10.7988 24.2775 10.1417 24.2633 9.48458C23.2058 10.0381 22.1601 10.6174 21.1426 11.2439ZM29.0798 9.94149C25.6882 11.788 22.3838 13.8065 19.0158 15.7001C18.5071 15.9992 17.9466 16.2559 17.5697 16.727C17.6616 17.45 18.4953 17.6361 19.0064 18.0011C22.1954 19.8288 25.3774 21.6706 28.5569 23.5148C29.4072 24.0423 30.5189 24.0989 31.3926 23.5949C34.8337 21.6164 38.2653 19.6192 41.711 17.6479C42.0666 17.4288 42.5118 17.2074 42.5377 16.7293C42.1137 16.2135 41.4872 15.9403 40.9267 15.6059C37.7824 13.8065 34.65 11.9906 31.5151 10.177C30.7921 9.7413 29.8712 9.61176 29.0798 9.94149ZM42.3139 12.4804C43.8213 13.3307 45.2391 14.4188 46.8807 14.9817C48.4752 14.3576 49.8907 13.3448 51.3628 12.4804C49.8884 11.6184 48.4729 10.601 46.8784 9.97918C45.2368 10.5468 43.8189 11.6302 42.3139 12.4804ZM41.7016 13.5285C41.6921 13.9643 41.6827 14.3976 41.6733 14.8333C42.7308 15.4598 43.9673 15.9874 44.5914 17.1132C45.2203 18.2108 45.0648 19.5203 45.0719 20.7309C45.4629 20.9428 45.8562 21.1525 46.2519 21.3574C46.2754 19.8076 46.3225 18.2555 46.2637 16.7058C46.3273 16.0863 45.6984 15.799 45.2674 15.5164C44.0827 14.8451 42.9169 14.1409 41.7016 13.5285ZM48.4823 15.481C48.0277 15.7754 47.373 16.0651 47.4224 16.7105C47.3659 18.2532 47.4154 19.7982 47.4319 21.3432C48.838 20.6296 50.2205 19.8571 51.5465 19.0045C52.0411 18.7478 52.0105 18.1566 52.0199 17.6808C52.0222 16.2983 52.0175 14.9181 51.9846 13.5356C50.7857 14.1268 49.6458 14.8263 48.4823 15.481ZM16.3144 19.0539C16.0176 19.2706 16.1354 19.7063 16.0788 20.0219C16.0812 23.8657 16.0906 27.7118 16.0765 31.5556C16.0694 32.3069 16.1542 33.136 16.6983 33.7059C17.2612 34.2806 18.0031 34.6268 18.6861 35.0296C21.6796 36.7465 24.6684 38.4706 27.6478 40.2064C27.9987 40.383 28.3567 40.6209 28.7666 40.5927C29.1717 40.2959 29.0869 39.7683 29.1175 39.3302C29.0892 35.4064 29.1245 31.4779 29.101 27.554C29.1481 26.5318 28.524 25.6157 27.636 25.1564C24.2445 23.1968 20.8482 21.249 17.4637 19.28C17.1199 19.1623 16.6347 18.7101 16.3144 19.0539ZM42.9734 19.1081C39.6054 21.0111 36.2774 22.9825 32.9141 24.8926C32.3418 25.2294 31.7224 25.5662 31.3644 26.1503C31.0158 26.7038 30.9946 27.3797 30.9899 28.0156C31.0017 31.784 31.004 35.5524 30.9899 39.3232C31.0182 39.766 30.9192 40.3053 31.3408 40.6021C32.2005 40.5267 32.8788 39.9049 33.6254 39.5234C36.6166 37.7876 39.6195 36.0706 42.6107 34.3348C43.4515 33.892 44.0356 33.0135 44.0144 32.0478C44.038 28.1146 44.0026 24.1813 44.0285 20.2457C44.0144 19.8288 44.0521 19.379 43.826 19.0068C43.5245 18.8985 43.2395 18.9338 42.9734 19.1081ZM12.228 28.6892C10.8643 29.5301 9.41586 30.2319 8.11105 31.1646C9.31929 31.9748 10.6194 32.639 11.8606 33.3927C12.3646 33.6729 12.8569 34.0262 13.4386 34.1157C14.0887 34.0074 14.6327 33.5952 15.2027 33.2914C14.9436 32.0172 15.059 30.7148 15.0284 29.4264C15.1532 28.7246 14.3407 28.5267 13.8602 28.2724C13.2832 27.9921 12.7226 28.4325 12.228 28.6892ZM7.37151 32.4058C7.27965 34.2476 7.31263 36.0965 7.32911 37.9407C7.26788 38.6684 8.02391 38.9934 8.53735 39.3138C9.9505 40.0721 11.2812 40.9883 12.7532 41.6337C12.7721 39.7613 12.8051 37.8841 12.7532 36.0117C12.765 35.3687 12.0914 35.0837 11.6345 34.787C10.2072 34.005 8.84118 33.1077 7.37151 32.4058ZM14.1099 36.2661C14.1028 38.0561 14.0934 39.8484 14.1311 41.6384C15.5513 41.0095 16.8396 40.1263 18.2056 39.3938C18.6673 39.0971 19.2467 38.871 19.4987 38.3505C19.5976 37.8252 19.567 37.2906 19.5835 36.7607C18.3281 36.0117 16.988 35.3829 15.8739 34.4219C15.1768 34.8906 14.0039 35.2203 14.1099 36.2661ZM38.7905 37.764C39.3581 38.049 39.8927 38.513 40.5428 38.5695C41.7063 38.1432 42.712 37.3801 43.7789 36.763C43.2466 36.4427 42.7096 36.1248 42.1726 35.8115C41.0468 36.4616 39.9163 37.1092 38.7905 37.764ZM40.9597 39.5281C40.7618 40.7646 40.9102 42.027 40.9102 43.2729C41.9842 42.6158 43.1901 42.1377 44.1439 41.3039C44.3748 40.0674 44.2028 38.7909 44.2217 37.5403C43.1288 38.1832 41.8947 38.6543 40.9597 39.5281ZM36.7084 38.9463C36.6967 39.7024 36.6284 40.4678 36.7485 41.2192C37.6552 42.1495 38.9412 42.5946 40.0388 43.2588C40.0293 42.0411 40.1565 40.814 39.9916 39.6035C39.5347 38.9228 38.6492 38.6731 37.9779 38.2398C37.5563 38.4753 37.1324 38.7108 36.7084 38.9463Z" fill="#0B2F64"/>
<path d="M16.4629 8.65553C17.6947 7.97015 18.8417 6.99744 20.2101 6.63708C21.4678 7.1623 22.6054 7.9466 23.7665 8.65553C22.5324 9.315 21.3995 10.2288 20.0617 10.6598C18.7922 10.1323 17.6617 9.32207 16.4629 8.65553Z" fill="#EF003D"/>
<path d="M15.9752 9.47278C17.167 10.1699 18.4671 10.7281 19.5364 11.6066C19.7955 12.4121 19.6259 13.2906 19.6589 14.1267C19.1619 14.4141 18.6649 14.6967 18.168 14.9793C17.4449 14.5436 16.6324 14.221 16.0294 13.6157C15.8528 12.2449 15.9823 10.853 15.9752 9.47278Z" fill="#EF003D"/>
<path d="M21.1425 11.2439C22.16 10.6174 23.2057 10.038 24.2632 9.48456C24.2773 10.1417 24.2868 10.7988 24.2868 11.4583C23.0432 12.1719 21.7996 12.8879 20.5608 13.6109C20.662 12.8196 20.2428 11.6726 21.1425 11.2439Z" fill="#EF003D"/>
<path d="M42.9732 19.1081C43.2394 18.9338 43.5244 18.8985 43.8258 19.0068C44.0519 19.379 44.0143 19.8288 44.0284 20.2457C44.0025 24.1813 44.0378 28.1146 44.0142 32.0478C44.0354 33.0135 43.4513 33.892 42.6105 34.3348C39.6194 36.0706 36.6164 37.7876 33.6253 39.5234C32.8786 39.9049 32.2003 40.5267 31.3407 40.6021C30.9191 40.3053 31.018 39.766 30.9897 39.3232C31.0039 35.5524 31.0015 31.784 30.9897 28.0157C30.9945 27.3797 31.0157 26.7038 31.3642 26.1503C31.7222 25.5662 32.3417 25.2294 32.914 24.8926C36.2773 22.9825 39.6052 21.0112 42.9732 19.1081ZM36.8661 25.3307C35.8086 26.8993 34.3318 28.1829 33.5099 29.9187C33.8113 30.5876 34.2824 31.1623 34.6898 31.7699C34.9089 31.4896 35.135 31.2164 35.3634 30.9432C35.3611 32.6107 35.3399 34.2759 35.3776 35.9411C37.0168 35.0508 38.6796 34.1699 40.2199 33.1242C40.4625 31.4637 40.26 29.7585 40.3189 28.084C40.472 28.1075 40.7781 28.1546 40.9312 28.1782C41.3999 27.0806 41.8192 25.9619 42.196 24.829C41.2892 24.5299 40.333 24.146 39.3791 24.4734C39.2567 24.3862 39.0141 24.2072 38.8916 24.1201C38.2156 24.5205 37.4926 24.8526 36.8661 25.3307Z" fill="#EF003D"/>
<path d="M38.8046 25.0363C39.0825 25.2576 38.7128 26.1762 38.3194 26.1738C38.1781 25.7687 38.522 25.3048 38.8046 25.0363Z" fill="#EF003D"/>
<path d="M39.4121 25.1234C40.1423 24.9774 40.8606 25.1964 41.5578 25.3942C41.3058 26.0655 41.0514 26.7344 40.7994 27.4033C40.3071 27.2784 39.8149 27.1536 39.325 27.0288C39.2331 27.1701 39.0541 27.4574 38.9623 27.5988C39.2355 27.7613 39.5299 27.8861 39.8384 27.9615C39.8243 29.5607 39.8361 31.1575 39.8337 32.7567C39.2473 33.0935 38.6632 33.4327 38.0767 33.7695C38.0697 31.5249 38.0885 29.2804 38.0649 27.0382C38.2063 27.017 38.4889 26.9746 38.6302 26.9534C38.9835 26.3882 39.1601 25.7358 39.4121 25.1234Z" fill="#EF003D"/>
<path d="M37.5847 25.764C37.3422 25.479 37.825 25.0928 38.0888 25.2906C38.2819 25.5685 37.8556 26.016 37.5847 25.764Z" fill="#EF003D"/>
<path d="M36.6636 26.0608C36.9344 26.1856 37.2053 26.3104 37.4761 26.4376C37.349 26.6496 37.2171 26.8569 37.0852 27.0665C36.9415 26.732 36.7908 26.4023 36.6636 26.0608Z" fill="#EF003D"/>
<path d="M34.1084 29.7044C34.7749 28.7576 35.3873 27.759 36.2446 26.9676C36.499 27.3115 36.7557 27.6506 37.0171 27.9898C37.2032 27.7118 37.3963 27.441 37.5965 27.1725C37.5706 29.4665 37.5918 31.7605 37.5847 34.0545C37.0053 34.3866 36.4283 34.7234 35.8489 35.0555C35.8513 33.4492 35.8442 31.843 35.8536 30.239C36.181 29.7421 36.6521 29.2522 36.5555 28.6068C35.9007 29.2781 35.4061 30.0765 34.8621 30.8326C34.6124 30.4557 34.3604 30.0789 34.1084 29.7044Z" fill="#EF003D"/>
<path d="M29.0799 9.94146C29.8713 9.61172 30.7922 9.74126 31.5152 10.177C34.6501 11.9905 37.7825 13.8064 40.9268 15.6058C41.4873 15.9403 42.1138 16.2135 42.5378 16.7293C42.5119 17.2074 42.0667 17.4288 41.7111 17.6478C38.2654 19.6192 34.8338 21.6164 31.3928 23.5948C30.519 24.0988 29.4073 24.0423 28.557 23.5147C25.3775 21.6706 22.1955 19.8288 19.0065 18.0011C18.4954 17.636 17.6617 17.45 17.5698 16.7269C17.9467 16.2559 18.5072 15.9992 19.0159 15.7C22.3839 13.8064 25.6884 11.788 29.0799 9.94146ZM24.9747 14.0278C25.1349 14.6237 25.1985 15.2431 25.3987 15.8296C25.7684 15.9874 26.1759 15.9285 26.5669 15.9144C26.7506 15.6412 26.9484 15.375 27.1557 15.1159C26.9178 15.6576 26.6281 16.1782 26.4397 16.7411C26.6116 17.059 26.8189 17.3534 27.0332 17.6455C26.8095 18.0482 26.5857 18.451 26.3643 18.8537C25.7755 18.6111 25.1702 18.3944 24.5319 18.3191C24.8075 18.6936 25.1608 19.0139 25.6059 19.1717C28.4134 20.3352 31.6919 20.3375 34.4993 19.1693C34.9398 19.0115 35.2883 18.6959 35.571 18.3332C35.0999 18.4039 34.6336 18.5028 34.172 18.6158C34.2049 18.0082 34.0094 17.4618 33.4772 17.1344C33.4866 16.767 33.5313 16.3995 33.5078 16.0321C33.2911 15.806 33.0461 15.6105 32.8059 15.4103C33.821 15.448 35.0457 15.4174 35.5168 14.3363C34.6925 14.2586 33.8328 14.1479 33.0249 14.3976C32.5327 14.5695 32.3207 15.0947 32.0334 15.4834C31.3127 15.4928 30.592 15.4928 29.8713 15.4951C29.6216 14.9534 29.3861 14.3363 28.8208 14.0514C27.6291 13.366 26.2324 13.8394 24.9747 14.0278Z" fill="#FBA727"/>
<path d="M25.9498 14.3858C26.7576 14.2492 27.6738 14.0019 28.4228 14.4753C29.0328 14.8262 28.9268 15.9167 29.7394 15.9591C30.7615 16.0557 31.7931 15.9827 32.8177 16.058C32.6151 16.7952 32.7093 17.5348 33.3923 17.9681C33.4112 18.3709 33.43 18.7713 33.4489 19.174C33.3075 18.8254 33.1827 18.4675 33.0084 18.1354C32.4126 17.7844 31.7978 17.4123 31.1289 17.2239C30.2952 17.1697 29.4332 17.1038 28.6135 17.2898C27.9918 17.8739 27.556 18.6205 26.9766 19.2423C27.264 18.6017 27.6031 17.987 27.9352 17.3723C27.6644 17.1909 27.3935 17.0096 27.125 16.8258C27.3558 16.3218 27.6408 15.8366 27.8033 15.302C27.7704 14.8592 27.2522 14.7532 26.8919 14.7556C26.3737 14.7297 26.1806 15.2596 25.8979 15.587C25.9215 15.1866 25.938 14.7862 25.9498 14.3858Z" fill="#FBA727"/>
<path d="M29.0278 17.702C29.6873 17.709 30.3467 17.7043 31.0062 17.7232C31.4749 17.9964 31.9601 18.2437 32.457 18.4698C32.5135 18.7406 32.5701 19.0138 32.629 19.287C31.025 19.5296 29.4023 19.5626 27.7983 19.3106C28.2058 18.7736 28.618 18.239 29.0278 17.702Z" fill="#FBA727"/>
<path d="M12.2278 28.6892C12.7224 28.4325 13.283 27.9921 13.86 28.2723C14.3405 28.5267 15.153 28.7246 15.0282 29.4264C15.0588 30.7147 14.9434 32.0172 15.2025 33.2914C14.6325 33.5952 14.0884 34.0074 13.4384 34.1157C12.8567 34.0262 12.3644 33.6729 11.8604 33.3927C10.6192 32.639 9.31908 31.9748 8.11084 31.1646C9.41564 30.2319 10.8641 29.53 12.2278 28.6892Z" fill="#FBA727"/>
<path d="M7.37147 32.4058C8.84115 33.1076 10.2072 34.005 11.6345 34.7869C12.0914 35.0837 12.765 35.3687 12.7532 36.0116C12.805 37.8841 12.7721 39.7612 12.7532 41.6336C11.2812 40.9883 9.95047 40.0721 8.53732 39.3137C8.02388 38.9934 7.26784 38.6684 7.32908 37.9406C7.31259 36.0964 7.27962 34.2476 7.37147 32.4058Z" fill="#FBA727"/>
<path d="M14.1097 36.266C14.0038 35.2203 15.1767 34.8906 15.8738 34.4219C16.9879 35.3828 18.328 36.0117 19.5833 36.7606C19.5668 37.2906 19.5975 37.8252 19.4985 38.3504C19.2465 38.8709 18.6671 39.097 18.2055 39.3938C16.8395 40.1263 15.5512 41.0095 14.1309 41.6383C14.0933 39.8483 14.1027 38.056 14.1097 36.266Z" fill="#FBA727"/>
<path d="M42.314 12.4805C43.819 11.6302 45.2368 10.5468 46.8784 9.97919C48.4729 10.601 49.8884 11.6184 51.3628 12.4805C49.8908 13.3448 48.4753 14.3576 46.8808 14.9817C45.2392 14.4188 43.8213 13.3307 42.314 12.4805Z" fill="#00D06E"/>
<path d="M41.7016 13.5286C42.9169 14.1409 44.0828 14.8451 45.2674 15.5164C45.6984 15.799 46.3273 16.0864 46.2637 16.7058C46.3226 18.2555 46.2755 19.8077 46.2519 21.3574C45.8562 21.1525 45.4629 20.9429 45.072 20.7309C45.0649 19.5203 45.2203 18.2108 44.5915 17.1133C43.9673 15.9874 42.7308 15.4599 41.6733 14.8334C41.6828 14.3977 41.6922 13.9643 41.7016 13.5286Z" fill="#00D06E"/>
<path d="M48.4822 15.481C49.6457 14.8263 50.7857 14.1267 51.9845 13.5356C52.0175 14.9181 52.0222 16.2983 52.0198 17.6808C52.0104 18.1566 52.041 18.7477 51.5464 19.0045C50.2204 19.8571 48.8379 20.6296 47.4318 21.3432C47.4153 19.7982 47.3658 18.2531 47.4224 16.7105C47.3729 16.0651 48.0277 15.7754 48.4822 15.481Z" fill="#00D06E"/>
<path d="M16.3144 19.0539C16.6348 18.7101 17.1199 19.1623 17.4638 19.2801C20.8483 21.249 24.2446 23.1968 27.6361 25.1564C28.524 25.6157 29.1482 26.5318 29.1011 27.554C29.1246 31.4779 29.0893 35.4064 29.1176 39.3302C29.0869 39.7683 29.1717 40.2959 28.7666 40.5927C28.3568 40.6209 27.9988 40.383 27.6479 40.2064C24.6685 38.4706 21.6797 36.7465 18.6862 35.0296C18.0032 34.6268 17.2612 34.2806 16.6983 33.7059C16.1543 33.136 16.0695 32.3069 16.0766 31.5556C16.0907 27.7118 16.0813 23.8657 16.0789 20.022C16.1354 19.7064 16.0177 19.2706 16.3144 19.0539ZM20.8742 23.6796C20.3325 24.0376 20.5821 24.7631 20.5986 25.293C20.0593 25.187 19.1996 25.1823 19.1054 25.9006C18.8934 27.083 19.9439 27.9026 20.2571 28.9483C20.7682 30.5758 21.244 32.2151 21.748 33.8449C21.8799 34.29 22.1083 34.6951 22.3674 35.079C23.0999 33.7083 23.7217 32.2834 24.3906 30.8796C24.6803 30.7831 24.9723 30.6889 25.2644 30.5994C25.7519 29.2616 24.8522 28.0439 23.8818 27.2219C24.2893 25.757 23.2836 24.3509 22.0377 23.6844C21.675 23.5171 21.2157 23.4017 20.8742 23.6796Z" fill="#009AE7"/>
<path d="M21.2701 24.3179C22.3087 23.9293 23.3238 25.1658 23.3662 26.1291C23.4628 26.6967 22.7468 26.9346 22.3417 26.6496C21.5574 26.2257 20.7849 25.2247 21.2701 24.3179Z" fill="#009AE7"/>
<path d="M19.8731 26.0184C20.396 25.6863 20.9706 26.1385 21.331 26.5083C21.7879 26.9652 22.1648 27.7166 21.7832 28.3313C20.6244 28.8212 19.2231 27.0618 19.8731 26.0184Z" fill="#009AE7"/>
<path d="M22.9162 27.5941C23.6298 27.4363 24.221 28.1216 24.5766 28.6657C24.8828 29.1108 24.9723 30.0906 24.2304 30.1142C23.4814 30.0247 22.9114 29.3723 22.6288 28.7152C22.4946 28.3595 22.4569 27.7118 22.9162 27.5941Z" fill="#009AE7"/>
<path d="M20.8247 29.0873C21.7056 29.7326 22.6524 30.2837 23.651 30.7242C23.1776 31.7134 22.7113 32.7073 22.2426 33.6965C21.7668 32.1609 21.3075 30.6205 20.8247 29.0873Z" fill="#009AE7"/>
<path d="M38.7905 37.764C39.9163 37.1093 41.0469 36.4616 42.1727 35.8115C42.7097 36.1248 43.2466 36.4427 43.7789 36.763C42.712 37.3801 41.7063 38.1432 40.5428 38.5695C39.8928 38.513 39.3581 38.049 38.7905 37.764Z" fill="#009AE7"/>
<path d="M40.9598 39.5281C41.8948 38.6543 43.129 38.1833 44.2218 37.5403C44.203 38.7909 44.3749 40.0675 44.1441 41.304C43.1902 42.1377 41.9843 42.6158 40.9103 43.273C40.9103 42.027 40.762 40.7646 40.9598 39.5281Z" fill="#009AE7"/>
<path d="M36.7087 38.9464C37.1326 38.7109 37.5566 38.4753 37.9782 38.2398C38.6494 38.6732 39.535 38.9228 39.9919 39.6035C40.1568 40.8141 40.0296 42.0412 40.039 43.2588C38.9415 42.5947 37.6555 42.1495 36.7487 41.2192C36.6286 40.4679 36.6969 39.7024 36.7087 38.9464Z" fill="#009AE7"/>
<path d="M67.0068 19.6289C66.9607 18.962 67.3525 18.2561 68.0163 18.0583C68.5233 17.9295 69.0557 17.9686 69.5742 17.9594C72.266 17.9847 74.9579 17.9364 77.6497 17.9801C78.5278 17.9433 79.2238 18.7804 79.1501 19.6266C79.1501 23.5452 79.1524 27.4614 79.1501 31.3799C79.2215 32.2285 78.5186 33.077 77.6359 33.0311C76.7463 33.0885 76.0411 32.2262 76.1148 31.3753C76.1125 27.8178 76.1171 24.2603 76.1148 20.7028C74.0913 20.7005 72.0655 20.7028 70.0421 20.7005C70.0374 24.2695 70.049 27.8385 70.0397 31.4052C70.1181 32.2837 69.3345 33.1322 68.4334 33.0288C67.5876 33.0219 66.9354 32.1986 67.0068 31.3799C67.0045 27.4637 67.0068 23.5452 67.0068 19.6289Z" fill="#0B2F64"/>
<path d="M106.84 22.331C108.578 21.3008 110.83 21.1214 112.696 21.8987C114.254 22.5356 115.066 24.2466 115.079 25.8563C115.093 27.7742 115.103 29.692 115.077 31.6099C115.089 32.4677 114.227 33.1667 113.386 32.9966C112.766 32.9483 112.418 32.3987 112.109 31.9365C110.655 33.1185 108.539 33.3553 106.838 32.5872C105.446 31.9342 104.676 30.2002 105.186 28.7377C105.543 27.8431 106.289 27.0935 107.223 26.8129C108.795 26.3208 110.466 26.5393 112.086 26.4841C112.095 25.6976 111.973 24.7502 111.201 24.3385C110.025 23.7452 108.633 24.1914 107.652 24.9571C106.96 25.5205 105.808 25.1135 105.64 24.2374C105.501 23.4049 106.195 22.7357 106.84 22.331ZM108.311 30.2324C108.871 30.9637 109.965 30.8878 110.747 30.6027C111.606 30.2669 112.017 29.3609 112.129 28.5031C111.083 28.5008 110.028 28.4089 108.991 28.5721C108.237 28.6664 107.834 29.6368 108.311 30.2324Z" fill="#0B2F64"/>
<path d="M118.272 21.5399C119.193 21.1144 120.408 21.8158 120.383 22.8576C120.38 23.9085 120.307 25.1158 121.143 25.9068C122.095 26.7163 123.441 26.4357 124.568 26.2794C124.603 25.1365 124.55 23.9913 124.591 22.8507C124.589 21.9975 125.432 21.3053 126.271 21.4341C127.089 21.4732 127.684 22.2849 127.615 23.0737C127.617 25.8447 127.619 28.6181 127.615 31.3914C127.677 32.1756 127.087 32.985 126.271 33.0241C125.511 33.1322 124.741 32.5803 124.619 31.8237C124.526 30.897 124.596 29.961 124.582 29.032C123.169 29.262 121.653 29.4321 120.307 28.8181C118.265 28.0018 117.156 25.6585 117.37 23.5382C117.311 22.784 117.474 21.8503 118.272 21.5399Z" fill="#0B2F64"/>
<path d="M134.869 21.533C136.093 21.3169 137.388 21.4203 138.529 21.9263C140.396 22.6989 141.779 24.5409 142.037 26.5324C142.399 29.2045 140.557 31.9204 137.997 32.7068C135.95 33.3829 133.547 32.9253 131.956 31.4512C130.915 30.3842 130.106 28.9815 130.101 27.4591C129.917 24.6628 132.113 21.9883 134.869 21.533ZM135.321 24.288C134.169 24.5294 133.369 25.6194 133.212 26.7416C132.954 28.218 133.908 29.9427 135.478 30.1405C137.262 30.6096 139.062 29.0252 138.958 27.2246C139.066 25.3596 137.158 23.7131 135.321 24.288Z" fill="#0B2F64"/>
<path d="M145.473 21.5238C146.119 21.2847 146.951 21.4709 147.317 22.0872C147.614 22.5127 147.552 23.0531 147.57 23.5406C147.554 26.1552 147.573 28.7699 147.561 31.3846C147.635 32.2193 146.953 33.0587 146.086 33.0311C145.194 33.1001 144.452 32.2515 144.528 31.3891C144.524 28.6135 144.526 25.8402 144.528 23.0646C144.485 22.4207 144.851 21.7538 145.473 21.5238Z" fill="#0B2F64"/>
<path d="M152.196 21.8158C152.837 21.1076 154.134 21.4111 154.461 22.2873C154.722 22.8484 154.45 23.4761 154.042 23.8855C153.132 24.8674 152.191 25.8264 151.274 26.8037C152.274 28.0616 153.288 29.308 154.289 30.5635C154.678 31.0212 154.945 31.6881 154.618 32.2561C154.24 33.1345 152.878 33.3254 152.311 32.5366C151.157 31.1591 150.055 29.738 148.905 28.3559C148.538 27.8845 148.066 27.4016 148.059 26.7669C148.082 26.1414 148.578 25.6953 148.963 25.2583C150.053 24.1223 151.092 22.9403 152.196 21.8158Z" fill="#0B2F64"/>
<path d="M85.2482 21.8825C86.9144 21.4893 88.6475 21.7285 90.3438 21.6687C91.2034 21.5698 92.0723 22.2344 92.0723 23.122C92.0907 25.9436 92.0907 28.7676 92.07 31.5892C92.093 32.7758 90.5489 33.4795 89.6431 32.7321C88.7835 32.0675 89.0993 30.8809 89.0462 29.945C88.1912 29.9427 87.3362 29.9427 86.4835 29.9427C85.6699 30.8579 84.9716 31.8766 84.0912 32.7275C83.0657 33.6335 81.298 32.4331 81.7566 31.1523C82.1692 30.2853 82.955 29.669 83.5635 28.9446C82.8652 28.1375 82.1553 27.2061 82.1738 26.0839C81.9871 24.1798 83.3837 22.2965 85.2482 21.8825ZM86.1032 24.4259C85.0108 24.8881 84.9947 26.5944 86.0341 27.1233C86.9744 27.5511 88.046 27.3395 89.0462 27.3855C89.0462 26.3323 89.0462 25.2791 89.0462 24.2235C88.0691 24.2649 87.0435 24.0879 86.1032 24.4259Z" fill="#0B2F64"/>
<path d="M93.8651 22.4322C94.061 21.9262 94.6026 21.6273 95.135 21.6526C97.5226 21.625 99.9125 21.6572 102.302 21.6388C102.869 21.6388 103.563 21.6227 103.927 22.147C104.483 22.8162 104.098 24.0235 103.206 24.1454C102.3 24.2626 101.383 24.1822 100.473 24.2006C100.456 26.6749 100.498 29.1539 100.454 31.6283C100.44 32.4378 99.6682 33.1253 98.857 33.0288C98.025 33.0104 97.3912 32.194 97.4603 31.3891C97.4488 28.9929 97.4627 26.5967 97.4557 24.2006C96.5523 24.1799 95.6397 24.2649 94.7386 24.1408C93.9895 24.0281 93.547 23.1059 93.8651 22.4322Z" fill="#0B2F64"/>
<path d="M92.1807 35.2111C92.289 35.1789 92.5102 35.1099 92.6185 35.0754C92.7591 35.2226 93.0357 35.5146 93.174 35.6595C93.4067 35.4893 93.628 35.303 93.84 35.1076C93.9506 35.1283 94.1719 35.1697 94.2825 35.1904C94.0267 35.5376 93.8239 36.0573 93.303 36.0228C92.7315 36.1286 92.4342 35.6181 92.1807 35.2111Z" fill="#0B2F64"/>
<path d="M128.364 35.2111C128.472 35.1766 128.693 35.1099 128.804 35.0754C128.938 35.218 129.205 35.5077 129.339 35.6503C129.585 35.4962 129.813 35.3145 130.023 35.1076C130.134 35.1283 130.355 35.1697 130.466 35.1904C130.21 35.5399 130.002 36.0596 129.479 36.0228C128.91 36.1263 128.617 35.6135 128.364 35.2111Z" fill="#0B2F64"/>
<path d="M67.3018 36.3977C68.0347 36.3977 68.7676 36.3977 69.5005 36.4C69.5005 37.2256 69.5005 38.0511 69.5005 38.879C69.6157 38.8813 69.8485 38.8882 69.966 38.8905C69.9637 39.3251 69.9637 39.7597 69.9637 40.1967C69.8116 40.1921 69.5074 40.1852 69.3553 40.1806C69.3553 39.9897 69.353 39.608 69.353 39.4171C68.6408 39.4171 67.9264 39.4171 67.2142 39.4171C67.2119 39.6769 67.2119 39.9368 67.2096 40.1967C67.0091 40.1921 66.8086 40.1852 66.6058 40.1806C66.6058 39.762 66.6035 39.3412 66.6035 38.9227C66.7141 38.8813 66.9354 38.7985 67.046 38.7571C67.1981 37.9798 67.2534 37.1888 67.3018 36.3977ZM67.8849 36.9266C67.8296 37.5866 67.7628 38.2443 67.6429 38.8974C68.0462 38.8882 68.4495 38.8836 68.8529 38.879C68.8529 38.2282 68.8529 37.5774 68.8529 36.9289C68.5302 36.9266 68.2076 36.9266 67.8849 36.9266Z" fill="#0B2F64"/>
<path d="M72.3582 39.3918C70.8302 39.0284 71.1229 36.2505 72.7707 36.3701C73.7363 36.2896 74.1327 37.2807 74.1742 38.0764C73.4229 38.0902 72.6693 38.0787 71.918 38.1247C72.1116 38.4029 72.2614 38.741 72.5748 38.9088C73.1302 38.7847 73.6395 38.5064 74.2042 38.4167C73.9345 39.1733 73.1486 39.6424 72.3582 39.3918ZM71.9226 37.5912C72.4734 37.6027 73.0242 37.605 73.575 37.5935C73.3077 37.3244 73.0933 36.7909 72.6209 36.9358C72.2798 36.9841 72.1553 37.3842 71.9226 37.5912Z" fill="#0B2F64"/>
<path d="M75.4255 36.4C76.2644 36.3977 77.1033 36.3977 77.9445 36.4C77.9422 36.5311 77.9376 36.7932 77.9376 36.9243C77.6265 36.9289 77.3176 36.9335 77.0088 36.9381C77.0042 37.7636 77.0065 38.5915 77.0019 39.4171C76.8429 39.4171 76.5202 39.4148 76.3589 39.4148C76.3566 38.5869 76.3566 37.7591 76.3589 36.9312C76.1238 36.9312 75.656 36.9312 75.4209 36.9312C75.4209 36.7978 75.4232 36.5334 75.4255 36.4Z" fill="#0B2F64"/>
<path d="M80.4221 39.4286C78.7973 39.3366 78.7927 36.5035 80.4059 36.3839C81.1734 36.2091 81.7933 36.7886 82.0054 37.4785C81.3577 37.4785 80.5972 36.5517 80.0764 37.2117C79.7007 37.7291 79.8136 38.5961 80.4244 38.8904C80.9659 38.7479 81.4661 38.4834 82.0123 38.3523C81.7979 39.0376 81.178 39.5964 80.4221 39.4286Z" fill="#0B2F64"/>
<path d="M83.476 36.4046C83.6374 36.4023 83.9623 36.3977 84.1236 36.3954C84.1236 36.8047 84.1259 37.2117 84.1259 37.6211C84.5062 37.2117 84.8865 36.8024 85.2667 36.3954C85.4695 36.3977 85.8775 36.4023 86.0803 36.4069C85.6355 36.8806 85.1884 37.3497 84.7413 37.8211C85.2045 38.3501 85.6677 38.8767 86.1241 39.4102C85.912 39.4125 85.4903 39.4171 85.2783 39.4194C84.8957 38.9778 84.5108 38.5386 84.1259 38.0994C84.1236 38.5386 84.1236 38.9778 84.1236 39.4171C83.9623 39.4171 83.6374 39.4171 83.4737 39.4171C83.4737 38.4121 83.4714 37.4095 83.476 36.4046Z" fill="#0B2F64"/>
<path d="M87.5091 36.4022C87.6705 36.3999 87.9908 36.3976 88.1521 36.3976C88.1521 37.0691 88.1521 37.7429 88.1568 38.4167C88.8021 37.6992 89.051 36.4252 90.1595 36.3057C90.1802 37.3428 90.1687 38.3799 90.171 39.417C90.0097 39.417 89.687 39.417 89.5257 39.417C89.5257 38.7409 89.5257 38.0626 89.5234 37.3865C89.0648 38.0626 88.6085 38.7409 88.1521 39.417C87.9908 39.417 87.6682 39.417 87.5068 39.417C87.5068 38.4121 87.5068 37.4072 87.5091 36.4022Z" fill="#0B2F64"/>
<path d="M91.888 36.4022C92.0494 36.3999 92.3697 36.3976 92.531 36.3976C92.531 37.0691 92.531 37.7429 92.5357 38.4167C93.181 37.6992 93.4299 36.4252 94.5384 36.3057C94.5591 37.3428 94.5476 38.3799 94.5499 39.417C94.3886 39.417 94.0659 39.417 93.9046 39.417C93.9046 38.7409 93.9046 38.0649 93.9023 37.3888C93.4437 38.0626 92.9874 38.7409 92.531 39.417C92.3697 39.417 92.0471 39.417 91.8857 39.417C91.8857 38.4121 91.8857 37.4072 91.888 36.4022Z" fill="#0B2F64"/>
<path d="M98.4724 36.4C99.3113 36.3977 100.15 36.3977 100.991 36.4C100.989 36.5311 100.984 36.7932 100.984 36.9243C100.673 36.9289 100.365 36.9335 100.056 36.9381C100.051 37.7636 100.053 38.5915 100.049 39.4171C99.8897 39.4171 99.5671 39.4148 99.4058 39.4148C99.4035 38.5869 99.4035 37.7591 99.4058 36.9312C99.1707 36.9312 98.7028 36.9312 98.4678 36.9312C98.4678 36.7978 98.4701 36.5334 98.4724 36.4Z" fill="#0B2F64"/>
<path d="M103.079 36.5264C103.842 36.1332 104.972 36.4735 105.144 37.3819C105.474 38.3385 104.803 39.6056 103.683 39.4377C102.208 39.4515 101.892 37.1611 103.079 36.5264ZM103.554 36.9634C102.713 37.2945 102.883 38.9939 103.898 38.8766C104.932 38.6904 104.688 36.6322 103.554 36.9634Z" fill="#0B2F64"/>
<path d="M106.769 36.3149C107.018 36.4046 107.267 36.4988 107.514 36.6C108.041 36.3977 108.719 36.2252 109.159 36.7012C109.802 37.4141 109.761 38.7985 108.887 39.3159C108.38 39.5918 107.836 39.332 107.38 39.0859C107.398 39.5182 107.408 39.9506 107.417 40.3806C107.251 40.3806 106.917 40.3829 106.751 40.3829C106.758 39.0261 106.732 37.6694 106.769 36.3149ZM107.951 36.9772C107.186 37.3037 107.235 38.6582 108.062 38.8789C109.27 38.9686 109.154 36.6736 107.951 36.9772Z" fill="#0B2F64"/>
<path d="M111.132 36.4023C111.805 36.3977 112.478 36.3977 113.151 36.3977C113.148 36.5311 113.148 36.7955 113.148 36.9289C112.692 36.9289 112.236 36.9312 111.779 36.9312C111.779 37.7591 111.779 38.5892 111.779 39.4171C111.618 39.4171 111.293 39.4171 111.129 39.4171C111.129 38.4122 111.127 37.4072 111.132 36.4023Z" fill="#0B2F64"/>
<path d="M115.289 36.5287C116.112 36.0872 117.32 36.554 117.394 37.5498C117.643 38.488 116.923 39.6102 115.877 39.4355C114.418 39.4286 114.116 37.1657 115.289 36.5287ZM115.767 36.9634C114.928 37.2991 115.098 38.9916 116.112 38.8789C117.149 38.6927 116.9 36.6276 115.767 36.9634Z" fill="#0B2F64"/>
<path d="M118.968 36.3954C119.652 36.4483 120.42 36.2528 121.049 36.6001C121.507 36.9542 121.15 37.5107 121.028 37.9361C121.129 38.012 121.332 38.1615 121.434 38.2351C121.383 38.5915 121.436 39.063 121.051 39.2492C120.399 39.5367 119.655 39.378 118.965 39.4217C118.965 38.4122 118.963 37.4049 118.968 36.3954ZM119.613 36.8461C119.615 37.0531 119.622 37.467 119.625 37.674C120.09 37.6326 120.579 37.5544 120.733 37.0485C120.362 36.9657 119.989 36.9013 119.613 36.8461ZM119.631 38.0442C119.627 38.3547 119.625 38.6651 119.627 38.9779C119.973 38.8284 120.763 39.0607 120.724 38.5133C120.747 37.966 119.982 38.1868 119.631 38.0442Z" fill="#0B2F64"/>
<path d="M123.116 36.4046C123.28 36.4023 123.607 36.3977 123.771 36.3954C123.764 36.6874 123.757 36.9772 123.75 37.2692C124.16 37.3336 124.605 37.3014 124.988 37.4877C125.679 37.8717 125.584 39.0813 124.819 39.3274C124.262 39.4631 123.681 39.4102 123.114 39.4263C123.114 38.419 123.112 37.4118 123.116 36.4046ZM123.782 37.743C123.775 38.1546 123.778 38.5639 123.791 38.9755C124.149 38.8284 124.743 38.8859 124.785 38.3776C124.746 37.8671 124.149 37.874 123.782 37.743Z" fill="#0B2F64"/>
<path d="M125.736 36.4023C125.9 36.4023 126.222 36.3977 126.386 36.3977C126.384 37.4026 126.386 38.4099 126.384 39.4148C126.22 39.4148 125.898 39.4171 125.734 39.4171C125.734 38.4122 125.734 37.4072 125.736 36.4023Z" fill="#0B2F64"/>
<path d="M128.071 36.4022C128.232 36.3999 128.553 36.3976 128.714 36.3976C128.714 37.0691 128.714 37.7429 128.719 38.4167C129.364 37.6992 129.613 36.4252 130.721 36.3057C130.742 37.3428 130.731 38.3799 130.733 39.417C130.572 39.417 130.249 39.417 130.088 39.417C130.088 38.7409 130.088 38.0649 130.085 37.3865C129.627 38.0626 129.17 38.7409 128.714 39.417C128.553 39.417 128.23 39.417 128.069 39.417C128.069 38.4121 128.069 37.4072 128.071 36.4022Z" fill="#0B2F64"/>
<path d="M134.87 36.4046C135.031 36.4023 135.356 36.3977 135.517 36.3954C135.517 37.2255 135.517 38.0557 135.519 38.8859C135.944 38.8836 136.368 38.8836 136.794 38.8859C136.794 38.0557 136.794 37.2278 136.794 36.3977C136.955 36.4 137.283 36.4 137.444 36.4C137.444 37.2255 137.444 38.0511 137.442 38.8767C137.559 38.879 137.792 38.8882 137.909 38.8928C137.907 39.3251 137.907 39.7574 137.907 40.192C137.755 40.192 137.453 40.192 137.301 40.192C137.301 39.9989 137.301 39.6102 137.301 39.4171C136.487 39.4171 135.679 39.4171 134.867 39.4171C134.867 38.4121 134.865 37.4095 134.87 36.4046Z" fill="#0B2F64"/>
<path d="M140.318 39.4078C138.73 39.1526 138.935 36.2965 140.601 36.3701C141.579 36.2689 142.021 37.2623 142.044 38.081C141.284 38.0879 140.521 38.081 139.762 38.1293C139.977 38.3776 140.115 38.7364 140.435 38.8674C140.813 38.9939 141.115 38.6582 141.426 38.5064C141.585 38.511 141.908 38.5179 142.069 38.5225C141.735 39.1595 141.058 39.6171 140.318 39.4078ZM139.783 37.5889C140.334 37.6027 140.885 37.605 141.436 37.5958C141.191 37.3428 141.032 36.8622 140.599 36.9266C140.21 36.9013 140.044 37.375 139.783 37.5889Z" fill="#0B2F64"/>
<path d="M143.512 36.4023C143.676 36.4 143.998 36.3977 144.16 36.3954C144.16 36.7932 144.16 37.1911 144.16 37.5889C144.6 37.5889 145.04 37.5889 145.483 37.5866C145.483 37.1934 145.485 36.8001 145.487 36.4069C145.649 36.4023 145.974 36.3977 146.135 36.3954C146.135 37.4026 146.137 38.4098 146.133 39.4171C145.971 39.4171 145.646 39.4171 145.485 39.4171C145.483 38.9847 145.483 38.5524 145.483 38.1224C145.045 38.1224 144.605 38.1224 144.167 38.1247C144.162 38.5547 144.16 38.9847 144.155 39.4171C143.994 39.4171 143.671 39.4171 143.51 39.4171C143.51 38.4121 143.508 37.4072 143.512 36.4023Z" fill="#0B2F64"/>
<path d="M147.674 36.3977C148.513 36.3977 149.352 36.3977 150.193 36.4C150.193 36.5311 150.191 36.7932 150.191 36.9243C149.958 36.9266 149.493 36.9335 149.262 36.9358C149.255 37.7614 149.258 38.5892 149.255 39.4148C149.094 39.4148 148.774 39.4171 148.612 39.4171C148.608 38.5892 148.608 37.7591 148.61 36.9312C148.297 36.9312 147.985 36.9312 147.674 36.9312C147.674 36.7978 147.674 36.5311 147.674 36.3977Z" fill="#0B2F64"/>
<path d="M151.71 36.3149C151.959 36.4046 152.206 36.4988 152.454 36.6C152.941 36.4345 153.524 36.2298 153.978 36.5977C154.764 37.2508 154.738 38.7663 153.835 39.3136C153.326 39.5941 152.779 39.3343 152.321 39.0859C152.339 39.5182 152.348 39.9483 152.358 40.3806C152.192 40.3806 151.858 40.3829 151.692 40.3829C151.699 39.0261 151.673 37.6694 151.71 36.3149ZM152.872 36.9841C152.127 37.3267 152.182 38.6605 153.001 38.8766C154.222 38.9732 154.086 36.6391 152.872 36.9841Z" fill="#0B2F64"/>
</svg>
