<svg width="35" height="35" viewBox="0 0 35 35" fill="none" xmlns="http://www.w3.org/2000/svg">
<g clip-path="url(#clip0)">
<path d="M31.9711 28.6103V17.0399C33.7548 16.2217 35 14.3985 35 12.2836C35 12.2473 34.9987 12.2115 34.9979 12.1754C35.0107 11.9616 34.9551 11.7458 34.8344 11.5615C34.8339 11.5607 34.8334 11.5599 34.8328 11.5591L32.487 7.94998C32.4822 7.9425 32.4774 7.93476 32.4726 7.92728L30.625 5.0853V3.02891C30.625 1.35864 29.2664 0 27.5961 0H7.40391C5.73364 0 4.375 1.35864 4.375 3.02891V5.0853L0.16716 11.5591C0.166626 11.5602 0.166092 11.5613 0.165558 11.5621C0.0477982 11.7418 -0.00667572 11.9506 0.00240326 12.1578C0.00133514 12.1997 0 12.2414 0 12.2836C0 14.3985 1.24516 16.2217 3.02891 17.0399V28.6103C1.34396 28.6981 0 30.0965 0 31.8029C0 33.5658 1.43421 35 3.19714 35H31.8029C33.5658 35 35 33.5658 35 31.8029C35 30.0965 33.656 28.6981 31.9711 28.6103ZM30.6843 15.3686C30.6191 15.3867 30.5537 15.4028 30.488 15.4164C30.4867 15.4166 30.4851 15.4169 30.4837 15.4174C30.3537 15.4444 30.2223 15.4623 30.0904 15.4719C30.0792 15.4727 30.0674 15.4735 30.0562 15.4743C29.9935 15.4781 29.9307 15.4807 29.8677 15.4807C29.818 15.4807 29.7686 15.4791 29.7195 15.477C29.7038 15.4762 29.6883 15.4749 29.6725 15.4738C29.6389 15.4716 29.6055 15.4692 29.5721 15.4658C29.5542 15.4642 29.5363 15.462 29.5184 15.4602C29.4872 15.4564 29.4559 15.4524 29.425 15.4479C29.4071 15.4452 29.3895 15.4425 29.3718 15.4396C29.3395 15.4343 29.3072 15.4284 29.2752 15.422C29.2599 15.419 29.2445 15.4161 29.2295 15.4129C29.1844 15.4033 29.1401 15.3929 29.0957 15.3811C29.0939 15.3806 29.092 15.3803 29.0901 15.3798C29.0439 15.3675 28.9983 15.3542 28.9531 15.3397C28.939 15.3352 28.9254 15.3304 28.9115 15.3256C28.88 15.3154 28.849 15.3048 28.818 15.2933C28.802 15.2871 28.786 15.281 28.77 15.2748C28.7414 15.2636 28.7128 15.2522 28.6845 15.2401C28.6685 15.2335 28.6527 15.2268 28.637 15.2196C28.6073 15.2068 28.5782 15.1929 28.5494 15.179C28.5358 15.1723 28.5221 15.1662 28.5088 15.1595C28.4698 15.1397 28.4311 15.1197 28.3932 15.0986C28.3902 15.097 28.3873 15.0954 28.3844 15.0938C28.3432 15.0708 28.3029 15.0468 28.2631 15.0222C28.2514 15.0148 28.2396 15.007 28.2279 14.9995C28.2001 14.9817 28.1723 14.9638 28.1451 14.9448C28.1312 14.9355 28.1176 14.9258 28.104 14.916C28.0789 14.8983 28.054 14.8802 28.0292 14.8615C28.0159 14.8513 28.0022 14.8412 27.9889 14.8308C27.9638 14.811 27.9387 14.7907 27.9141 14.7704C27.9026 14.7608 27.8909 14.7512 27.8794 14.7416C27.8474 14.7141 27.8159 14.6861 27.7849 14.6575C27.7817 14.6543 27.7779 14.6513 27.7747 14.6481C27.7403 14.6161 27.7069 14.583 27.6741 14.5496C27.6647 14.54 27.6556 14.5301 27.6463 14.5205C27.6231 14.4959 27.6001 14.4714 27.5777 14.4463C27.5665 14.434 27.5555 14.4212 27.5446 14.4086C27.5245 14.3854 27.5045 14.3616 27.4847 14.3378C27.4738 14.3245 27.4631 14.3114 27.4524 14.2978C27.4327 14.273 27.4132 14.2473 27.3942 14.2217C27.3849 14.2094 27.3755 14.1971 27.3664 14.1846C27.3427 14.1515 27.3195 14.1178 27.2968 14.0839C27.2933 14.0786 27.2895 14.0735 27.2858 14.0681C27.2599 14.0286 27.2348 13.9883 27.2105 13.9474C27.2036 13.936 27.1972 13.9242 27.1905 13.9125C27.1734 13.8831 27.1566 13.8535 27.1405 13.8233C27.1323 13.8083 27.1245 13.7928 27.1168 13.7776C27.1024 13.7501 27.0885 13.7226 27.0751 13.6946C27.0674 13.6786 27.0599 13.6623 27.0524 13.6462C27.0391 13.6174 27.0263 13.5883 27.0137 13.5589C27.0073 13.5437 27.0006 13.5287 26.9945 13.5135C26.9798 13.4769 26.9656 13.4401 26.952 13.4032C26.9491 13.395 26.9459 13.387 26.9429 13.3787C26.9269 13.3335 26.9117 13.2876 26.8975 13.2417C26.8935 13.2281 26.8898 13.2145 26.8858 13.2008C26.8786 13.1757 26.8716 13.1504 26.865 13.1253H32.8715C32.5821 14.2137 31.7447 15.0722 30.6843 15.3686ZM24.5928 13.2414C24.5787 13.2876 24.5634 13.3333 24.5474 13.3787C24.5445 13.387 24.5413 13.3947 24.5383 13.403C24.5247 13.4401 24.5106 13.4769 24.4959 13.5133C24.4897 13.5287 24.4831 13.5437 24.4767 13.5589C24.4641 13.588 24.4513 13.6171 24.4382 13.646C24.4307 13.6623 24.423 13.6783 24.4152 13.6943C24.4019 13.7223 24.388 13.7501 24.3739 13.7776C24.3658 13.7928 24.3581 13.8081 24.3498 13.8233C24.3338 13.8535 24.317 13.8828 24.2999 13.9125C24.2932 13.924 24.2868 13.936 24.2799 13.9474C24.2556 13.988 24.2305 14.0284 24.2046 14.0679C24.2008 14.0732 24.1971 14.0786 24.1936 14.0839C24.1709 14.1178 24.1477 14.1515 24.1239 14.1843C24.1148 14.1969 24.1055 14.2091 24.0961 14.2217C24.0772 14.2473 24.0577 14.2727 24.0379 14.2978C24.0273 14.3111 24.0166 14.3245 24.0056 14.3376C23.9859 14.3616 23.9661 14.3851 23.9458 14.4086C23.9349 14.4212 23.9239 14.4337 23.9127 14.4463C23.8903 14.4714 23.8673 14.4959 23.8441 14.5202C23.8347 14.5301 23.8256 14.54 23.8163 14.5493C23.7835 14.583 23.7501 14.6161 23.7156 14.6481C23.7124 14.6511 23.7087 14.6543 23.7055 14.6572C23.6745 14.6861 23.643 14.7138 23.611 14.7413C23.5995 14.7512 23.5877 14.7606 23.5762 14.7702C23.5517 14.7907 23.5266 14.8108 23.5015 14.8305C23.4881 14.8409 23.4745 14.8513 23.4612 14.8615C23.4366 14.8799 23.4118 14.8981 23.3867 14.916C23.3728 14.9256 23.3591 14.9352 23.3453 14.9448C23.318 14.9635 23.2903 14.9817 23.2625 14.9995C23.2507 15.007 23.2393 15.0148 23.2272 15.022C23.1874 15.0468 23.1471 15.0708 23.106 15.0938C23.1031 15.0954 23.1001 15.0967 23.0972 15.0983C23.0593 15.1194 23.0206 15.1397 22.9816 15.1592C22.9682 15.1659 22.9546 15.1723 22.941 15.1787C22.9121 15.1929 22.883 15.2065 22.8534 15.2196C22.8376 15.2265 22.8219 15.2332 22.8059 15.2401C22.7776 15.2519 22.7493 15.2634 22.7204 15.2746C22.7044 15.281 22.6884 15.2871 22.6723 15.293C22.6414 15.3045 22.6104 15.3152 22.5792 15.3256C22.565 15.3301 22.5514 15.3352 22.5372 15.3395C22.4921 15.3539 22.4464 15.3672 22.4002 15.3795C22.3984 15.3801 22.3965 15.3806 22.3946 15.3811C22.3503 15.3926 22.3057 15.403 22.2611 15.4129C22.2459 15.4161 22.2304 15.4188 22.2152 15.4217C22.1832 15.4281 22.1508 15.4343 22.1185 15.4396C22.1009 15.4425 22.0833 15.4452 22.0654 15.4476C22.0344 15.4522 22.0032 15.4562 21.9719 15.4599C21.954 15.462 21.9364 15.4639 21.9183 15.4658C21.8851 15.469 21.8515 15.4714 21.8179 15.4735C21.8021 15.4746 21.7866 15.4759 21.7709 15.4767C21.7217 15.4791 21.6723 15.4805 21.6227 15.4805C21.5727 15.4805 21.5233 15.4791 21.4742 15.4767C21.4584 15.4759 21.4429 15.4746 21.4275 15.4735C21.3938 15.4714 21.3602 15.469 21.3268 15.4658C21.3089 15.4639 21.291 15.462 21.2734 15.4599C21.2419 15.4562 21.2106 15.4522 21.1797 15.4476C21.162 15.4449 21.1444 15.4425 21.1268 15.4396C21.0942 15.4343 21.0622 15.4281 21.0299 15.4217C21.0146 15.4188 20.9994 15.4161 20.9842 15.4129C20.9393 15.4033 20.8947 15.3926 20.8507 15.3811C20.8488 15.3806 20.8469 15.3801 20.8448 15.3795C20.7989 15.3672 20.7532 15.3539 20.7078 15.3395C20.6939 15.3352 20.68 15.3301 20.6662 15.3256C20.6349 15.3152 20.6037 15.3045 20.573 15.293C20.5567 15.2871 20.5407 15.281 20.5246 15.2746C20.4961 15.2634 20.4675 15.2519 20.4392 15.2401C20.4234 15.2332 20.4074 15.2265 20.3917 15.2196C20.3623 15.2065 20.3332 15.1929 20.3041 15.1787C20.2905 15.1723 20.2768 15.1659 20.2635 15.1592C20.2245 15.1397 20.186 15.1194 20.1479 15.0983C20.1452 15.0967 20.142 15.0954 20.139 15.0938C20.0982 15.0708 20.0579 15.0468 20.0178 15.022C20.0061 15.0148 19.9946 15.007 19.9828 14.9995C19.9548 14.9817 19.9273 14.9635 19.8998 14.9448C19.8859 14.9352 19.8723 14.9256 19.8587 14.916C19.8336 14.8981 19.8087 14.8799 19.7842 14.8615C19.7705 14.8513 19.7572 14.8409 19.7438 14.8305C19.7185 14.8108 19.6936 14.7907 19.6691 14.7702C19.6573 14.7606 19.6456 14.7512 19.6344 14.7413C19.6023 14.7141 19.5708 14.6861 19.5398 14.6572C19.5364 14.6543 19.5329 14.6511 19.5294 14.6481C19.4952 14.6158 19.4616 14.583 19.4287 14.5493C19.4194 14.5397 19.4103 14.5298 19.4012 14.5202C19.378 14.4959 19.3548 14.4714 19.3324 14.4463C19.3214 14.4337 19.3105 14.4212 19.2995 14.4086C19.2792 14.3851 19.2592 14.3616 19.2397 14.3376C19.2287 14.3245 19.2181 14.3111 19.2074 14.2978C19.1874 14.2727 19.1681 14.2473 19.1489 14.2217C19.1398 14.2091 19.1305 14.1969 19.1214 14.1843C19.0974 14.1515 19.0741 14.1178 19.0517 14.0839C19.048 14.0786 19.0442 14.0732 19.0408 14.0679C19.0149 14.0284 18.9898 13.988 18.9655 13.9474C18.9585 13.936 18.9521 13.924 18.9454 13.9125C18.9281 13.8828 18.9115 13.8532 18.8952 13.8233C18.8872 13.8081 18.8792 13.7928 18.8715 13.7776C18.8573 13.7501 18.8434 13.7223 18.8298 13.6943C18.8221 13.6783 18.8146 13.6623 18.8071 13.646C18.7938 13.6174 18.7809 13.588 18.7687 13.5589C18.7622 13.5437 18.7556 13.5287 18.7494 13.5133C18.7345 13.4769 18.7203 13.4401 18.707 13.403C18.704 13.395 18.7006 13.387 18.6976 13.3787C18.6816 13.3333 18.6666 13.2876 18.6525 13.2414C18.6482 13.2278 18.6448 13.2142 18.6407 13.2006C18.6333 13.1757 18.6266 13.1504 18.6199 13.125H24.6254C24.6187 13.1504 24.6118 13.1755 24.6046 13.2006C24.6006 13.2142 24.5968 13.2278 24.5928 13.2414ZM16.3475 13.2414C16.3334 13.2876 16.3184 13.3333 16.3024 13.3787C16.2994 13.387 16.296 13.3947 16.293 13.403C16.2797 13.4401 16.2655 13.4769 16.2506 13.5133C16.2444 13.5287 16.2378 13.5437 16.2313 13.5589C16.2191 13.588 16.2062 13.6171 16.1929 13.646C16.1854 13.6623 16.1779 13.6783 16.1702 13.6943C16.1566 13.7223 16.1427 13.7501 16.1285 13.7776C16.1208 13.7928 16.1128 13.8081 16.1048 13.8233C16.0885 13.8535 16.0719 13.8828 16.0546 13.9125C16.0479 13.924 16.0415 13.936 16.0345 13.9474C16.0102 13.988 15.9854 14.0284 15.9592 14.0679C15.9558 14.0732 15.952 14.0786 15.9483 14.0839C15.9259 14.1178 15.9026 14.1515 15.8786 14.1843C15.8698 14.1969 15.8602 14.2091 15.8511 14.2217C15.8319 14.2473 15.8126 14.2727 15.7926 14.2978C15.7819 14.3111 15.7713 14.3245 15.7603 14.3376C15.7408 14.3616 15.7208 14.3851 15.7005 14.4086C15.6895 14.4212 15.6786 14.4337 15.6676 14.4463C15.6452 14.4714 15.622 14.4959 15.5988 14.5202C15.5897 14.5301 15.5806 14.54 15.5713 14.5493C15.5384 14.583 15.5048 14.6161 15.4706 14.6481C15.4671 14.6511 15.4636 14.6543 15.4602 14.6572C15.4292 14.6861 15.3977 14.7138 15.3656 14.7413C15.3544 14.7512 15.3427 14.7606 15.3309 14.7702C15.3064 14.7907 15.2815 14.8108 15.2562 14.8305C15.2428 14.8409 15.2295 14.8513 15.2158 14.8615C15.1913 14.8799 15.1664 14.8981 15.1413 14.916C15.1277 14.9256 15.1141 14.9352 15.1002 14.9448C15.0727 14.9635 15.0452 14.9817 15.0172 14.9995C15.0054 15.007 14.9939 15.0148 14.9822 15.022C14.9421 15.0468 14.9018 15.0708 14.861 15.0938C14.858 15.0954 14.8548 15.0967 14.8521 15.0983C14.814 15.1194 14.7755 15.1397 14.7365 15.1592C14.7232 15.1659 14.7095 15.1723 14.6959 15.1787C14.6668 15.1929 14.6377 15.2065 14.6083 15.2196C14.5926 15.2265 14.5766 15.2332 14.5608 15.2401C14.5325 15.2519 14.5039 15.2634 14.4754 15.2746C14.4593 15.281 14.4433 15.2871 14.427 15.293C14.3963 15.3045 14.3651 15.3152 14.3338 15.3256C14.32 15.3301 14.3061 15.3352 14.2922 15.3395C14.2468 15.3539 14.2011 15.3672 14.1552 15.3795C14.1531 15.3801 14.1512 15.3806 14.1493 15.3811C14.1053 15.3926 14.0607 15.403 14.0158 15.4129C14.0006 15.4161 13.9854 15.4188 13.9701 15.4217C13.9378 15.4281 13.9058 15.4343 13.8732 15.4396C13.8556 15.4425 13.838 15.4452 13.8203 15.4476C13.7894 15.4522 13.7581 15.4562 13.7266 15.4599C13.709 15.462 13.6911 15.4639 13.6732 15.4658C13.6398 15.469 13.6062 15.4714 13.5725 15.4735C13.5571 15.4746 13.5416 15.4759 13.5258 15.4767C13.4767 15.4791 13.4273 15.4805 13.3773 15.4805C13.3277 15.4805 13.2783 15.4791 13.2291 15.4767C13.2134 15.4759 13.1979 15.4746 13.1821 15.4735C13.1485 15.4714 13.1151 15.469 13.0817 15.4658C13.0639 15.4639 13.046 15.462 13.0281 15.4599C12.9968 15.4562 12.9656 15.4522 12.9346 15.4476C12.9167 15.4449 12.8991 15.4425 12.8815 15.4396C12.8492 15.4343 12.8168 15.4281 12.7848 15.4217C12.7696 15.4188 12.7541 15.4161 12.7389 15.4129C12.694 15.4033 12.6494 15.3926 12.6054 15.3811C12.6035 15.3806 12.6016 15.3801 12.5998 15.3795C12.5536 15.3672 12.5079 15.3539 12.4628 15.3395C12.4486 15.3352 12.435 15.3301 12.4208 15.3256C12.3896 15.3152 12.3586 15.3045 12.3277 15.293C12.3116 15.2871 12.2956 15.281 12.2796 15.2746C12.2507 15.2634 12.2224 15.2519 12.1941 15.2401C12.1781 15.2332 12.1624 15.2265 12.1466 15.2196C12.117 15.2065 12.0879 15.1929 12.059 15.1787C12.0454 15.1723 12.0318 15.1659 12.0184 15.1592C11.9794 15.1397 11.9407 15.1194 11.9028 15.0983C11.8999 15.0967 11.8969 15.0954 11.894 15.0938C11.8529 15.0708 11.8126 15.0468 11.7728 15.022C11.7607 15.0148 11.7493 15.007 11.7375 14.9995C11.7097 14.9817 11.682 14.9635 11.6547 14.9448C11.6409 14.9352 11.6272 14.9256 11.6133 14.916C11.5882 14.8981 11.5634 14.8799 11.5388 14.8615C11.5255 14.8513 11.5119 14.8409 11.4985 14.8305C11.4734 14.8108 11.4483 14.7907 11.4238 14.7702C11.4123 14.7606 11.4005 14.7512 11.389 14.7413C11.357 14.7141 11.3255 14.6861 11.2945 14.6572C11.2913 14.6543 11.2876 14.6511 11.2844 14.6481C11.2499 14.6158 11.2165 14.583 11.1837 14.5493C11.1744 14.5397 11.1653 14.5298 11.1559 14.5202C11.1327 14.4959 11.1097 14.4714 11.0873 14.4463C11.0761 14.4337 11.0651 14.4212 11.0542 14.4086C11.0339 14.3851 11.0141 14.3616 10.9944 14.3376C10.9834 14.3245 10.9727 14.3111 10.9621 14.2978C10.9423 14.2727 10.9228 14.2473 10.9039 14.2217C10.8945 14.2091 10.8852 14.1969 10.8761 14.1843C10.8523 14.1515 10.8291 14.1178 10.8064 14.0839C10.8029 14.0786 10.7992 14.0732 10.7954 14.0679C10.7695 14.0284 10.7444 13.988 10.7201 13.9474C10.7132 13.936 10.7068 13.924 10.7001 13.9125C10.683 13.8828 10.6662 13.8532 10.6502 13.8233C10.6419 13.8081 10.6342 13.7928 10.6261 13.7776C10.612 13.7501 10.5981 13.7223 10.5848 13.6943C10.577 13.6783 10.5693 13.6623 10.5618 13.646C10.5487 13.6174 10.5359 13.588 10.5233 13.5589C10.5169 13.5437 10.5103 13.5287 10.5041 13.5133C10.4894 13.4769 10.4753 13.4401 10.4617 13.403C10.4587 13.395 10.4555 13.387 10.4526 13.3787C10.4366 13.3333 10.4213 13.2876 10.4072 13.2414C10.4032 13.2278 10.3994 13.2142 10.3954 13.2006C10.3882 13.1757 10.3813 13.1504 10.3746 13.125H16.3801C16.3734 13.1504 16.3665 13.1755 16.3593 13.2006C16.3552 13.2142 16.3518 13.2278 16.3475 13.2414ZM6.23112 5.93498C6.33766 5.77103 6.39427 5.57983 6.39427 5.38464V3.02891C6.39427 2.47215 6.84715 2.01927 7.40391 2.01927H27.5961C28.1528 2.01927 28.6057 2.47215 28.6057 3.02891V5.38464C28.6057 5.57983 28.6623 5.77103 28.7689 5.93498L32.1297 11.1057H2.87003L6.23112 5.93498ZM2.12849 13.125H8.13503C8.12836 13.1504 8.12141 13.1755 8.1142 13.2006C8.1102 13.2142 8.10646 13.2278 8.10246 13.2414C8.0883 13.2876 8.07308 13.3333 8.05706 13.3787C8.05412 13.387 8.05092 13.3947 8.04798 13.403C8.03436 13.4401 8.02021 13.4769 8.00552 13.5133C7.99938 13.5287 7.99271 13.5437 7.9863 13.5589C7.97375 13.588 7.96093 13.6171 7.94758 13.646C7.9401 13.6623 7.93262 13.6783 7.92488 13.6943C7.91153 13.7223 7.89764 13.7501 7.88322 13.7776C7.87548 13.7928 7.86747 13.8081 7.85946 13.8233C7.84344 13.8535 7.82661 13.8828 7.80952 13.9125C7.80285 13.924 7.79644 13.936 7.7895 13.9474C7.7652 13.988 7.7401 14.0284 7.7142 14.0679C7.71046 14.0732 7.70672 14.0786 7.70325 14.0839C7.68055 14.1178 7.65732 14.1515 7.63355 14.1843C7.62447 14.1969 7.61513 14.2091 7.60578 14.2217C7.58682 14.2473 7.56733 14.2727 7.54757 14.2978C7.53689 14.3111 7.52621 14.3245 7.51526 14.3376C7.4955 14.3616 7.47574 14.3851 7.45544 14.4086C7.4445 14.4212 7.43355 14.4337 7.42233 14.4463C7.3999 14.4714 7.37694 14.4959 7.35371 14.5202C7.34436 14.5301 7.33528 14.54 7.32594 14.5493C7.29309 14.583 7.25971 14.6161 7.22527 14.6481C7.22179 14.6511 7.21832 14.6543 7.21512 14.6572C7.18414 14.6861 7.15263 14.7138 7.12059 14.7413C7.10911 14.7512 7.09736 14.7606 7.08588 14.7702C7.06131 14.7907 7.03621 14.8108 7.01111 14.8305C6.99776 14.8409 6.98414 14.8513 6.97079 14.8615C6.94595 14.8799 6.92112 14.8981 6.89602 14.916C6.8824 14.9256 6.86878 14.9352 6.8549 14.9448C6.82766 14.9635 6.79989 14.9817 6.77212 14.9995C6.76037 15.007 6.74889 15.0148 6.73687 15.022C6.69708 15.0468 6.65676 15.0708 6.61564 15.0938C6.6127 15.0954 6.60976 15.0967 6.60683 15.0983C6.56891 15.1194 6.53019 15.1397 6.4912 15.1592C6.47785 15.1659 6.46423 15.1723 6.45061 15.1787C6.42178 15.1929 6.39267 15.2065 6.36303 15.2196C6.34727 15.2265 6.33152 15.2332 6.3155 15.2401C6.28719 15.2519 6.25889 15.2634 6.23005 15.2746C6.21403 15.281 6.19801 15.2871 6.18198 15.293C6.15101 15.3045 6.11977 15.3152 6.08852 15.3256C6.07464 15.3301 6.06102 15.3352 6.04687 15.3395C6.00174 15.3539 5.95608 15.3672 5.90988 15.3795C5.90801 15.3801 5.90614 15.3806 5.90427 15.3811C5.85995 15.3926 5.81535 15.403 5.77049 15.4129C5.75554 15.4161 5.74005 15.4188 5.72483 15.4217C5.69279 15.4281 5.66048 15.4343 5.62817 15.4396C5.61054 15.4425 5.59292 15.4452 5.57503 15.4476C5.54405 15.4522 5.51281 15.4562 5.48157 15.4599C5.46368 15.462 5.44605 15.4639 5.42789 15.4658C5.39452 15.469 5.36114 15.4714 5.32749 15.4735C5.31174 15.4746 5.29625 15.4759 5.28049 15.4767C5.23136 15.4794 5.18196 15.4807 5.13229 15.4807C5.06954 15.4807 5.00652 15.4783 4.94377 15.4743C4.93229 15.4735 4.92081 15.473 4.90959 15.4722C4.77768 15.4623 4.6463 15.4444 4.51626 15.4174C4.51492 15.4172 4.51332 15.4169 4.51199 15.4166C4.4463 15.4028 4.38087 15.3867 4.31572 15.3686C3.25535 15.0722 2.41795 14.2137 2.12849 13.125ZM5.36995 17.4939C5.38437 17.4933 5.39852 17.4928 5.41294 17.492C5.48851 17.4877 5.56355 17.4818 5.63831 17.4744C5.65273 17.473 5.66715 17.4714 5.68184 17.4698C5.75848 17.4613 5.83485 17.4519 5.91068 17.4399C5.91362 17.4397 5.91682 17.4389 5.91976 17.4386C5.99373 17.4268 6.06716 17.4132 6.14033 17.3983C6.15341 17.3956 6.16676 17.3932 6.18011 17.3903C6.25221 17.375 6.32351 17.3582 6.39454 17.34C6.40896 17.3363 6.42311 17.3323 6.43753 17.3286C6.5099 17.3091 6.58173 17.2888 6.65276 17.2663C6.6581 17.2645 6.66344 17.2626 6.66878 17.261C6.73687 17.2391 6.80443 17.2156 6.87119 17.191C6.88347 17.1865 6.89575 17.1825 6.90777 17.1777C6.97559 17.1523 7.04235 17.1254 7.10884 17.0971C7.12273 17.0912 7.13661 17.085 7.15076 17.0789C7.21779 17.0495 7.28428 17.0193 7.3497 16.9873C7.35664 16.9838 7.36332 16.9804 7.37 16.9769C7.43248 16.9462 7.4939 16.9141 7.55478 16.8808C7.56546 16.8749 7.57641 16.869 7.58709 16.8631C7.64984 16.8284 7.71152 16.7921 7.77267 16.7547C7.78576 16.7467 7.79884 16.7384 7.81193 16.7302C7.87308 16.692 7.93369 16.6527 7.99324 16.6121C8.00072 16.6068 8.00819 16.6014 8.01567 16.5964C8.07175 16.5574 8.12729 16.5171 8.18176 16.4759C8.19111 16.469 8.20045 16.4623 8.20953 16.4554C8.26641 16.4119 8.32222 16.3673 8.37723 16.3213C8.38898 16.3115 8.40073 16.3016 8.41248 16.2917C8.46748 16.2452 8.52142 16.198 8.5743 16.1491C8.58204 16.1422 8.58925 16.1352 8.59673 16.1283C8.64666 16.0815 8.69606 16.034 8.74413 15.9851C8.75134 15.9779 8.75881 15.971 8.76575 15.9638C8.81622 15.9122 8.86562 15.8596 8.91396 15.806C8.9241 15.7948 8.93398 15.7835 8.94413 15.7721C8.99193 15.7184 9.03866 15.6636 9.08432 15.6078C9.09126 15.5993 9.09794 15.5905 9.10488 15.5819C9.14841 15.5277 9.19113 15.473 9.23252 15.4169C9.23759 15.4102 9.24267 15.4036 9.24774 15.3969C9.25014 15.3937 9.25255 15.3905 9.25495 15.3873C9.25735 15.3905 9.25976 15.3934 9.26216 15.3969C9.26723 15.4036 9.27231 15.4102 9.27738 15.4169C9.31877 15.473 9.3615 15.528 9.40502 15.5819C9.41196 15.5905 9.41864 15.5993 9.42558 15.6078C9.47124 15.6636 9.51797 15.7184 9.56577 15.7721C9.57592 15.7835 9.5858 15.7948 9.59595 15.806C9.64428 15.8596 9.69368 15.9122 9.74415 15.9638C9.75109 15.971 9.75857 15.9779 9.76578 15.9851C9.81384 16.034 9.86298 16.0815 9.91318 16.1283C9.92065 16.1352 9.92813 16.1422 9.93561 16.1491C9.98848 16.198 10.0424 16.2452 10.0974 16.2917C10.1089 16.3016 10.1207 16.3115 10.1327 16.3213C10.1877 16.3673 10.2435 16.4119 10.3004 16.4554C10.3094 16.4623 10.3188 16.469 10.3281 16.4759C10.3826 16.5171 10.4379 16.5574 10.4942 16.5964C10.5017 16.6014 10.5092 16.6068 10.5167 16.6121C10.5762 16.6527 10.6368 16.692 10.698 16.7302C10.7111 16.7384 10.7241 16.7467 10.7372 16.7547C10.7984 16.7921 10.8601 16.8284 10.9228 16.8631C10.9335 16.869 10.9444 16.8749 10.9551 16.8808C11.016 16.9141 11.0774 16.9462 11.1396 16.9769C11.1466 16.9804 11.1533 16.9838 11.1602 16.9873C11.2256 17.0193 11.2921 17.0495 11.3591 17.0789C11.3733 17.085 11.3872 17.0912 11.4011 17.0971C11.4673 17.1254 11.5343 17.1523 11.6021 17.1777C11.6142 17.1825 11.6264 17.1868 11.6387 17.191C11.7055 17.2156 11.773 17.2391 11.8411 17.261C11.8465 17.2626 11.8518 17.2645 11.8571 17.2663C11.9282 17.2888 12 17.3091 12.0724 17.3286C12.0865 17.3323 12.1009 17.3363 12.1154 17.34C12.1864 17.3582 12.2577 17.375 12.3298 17.3903C12.3431 17.3932 12.3562 17.3956 12.3696 17.3983C12.4427 17.4132 12.5159 17.4268 12.5901 17.4386C12.5931 17.4389 12.5963 17.4397 12.5992 17.4399C12.6751 17.4519 12.7514 17.4613 12.8281 17.4698C12.8428 17.4712 12.8572 17.473 12.8716 17.4744C12.9464 17.4818 13.0214 17.4877 13.097 17.492C13.1114 17.4928 13.1255 17.4933 13.14 17.4939C13.2187 17.4976 13.298 17.5 13.3776 17.5C13.4575 17.5 13.5365 17.4976 13.6155 17.4939C13.6297 17.4933 13.6441 17.4928 13.6583 17.492C13.7338 17.4877 13.8089 17.4818 13.8836 17.4744C13.8983 17.473 13.9127 17.4714 13.9272 17.4698C14.0041 17.4613 14.0804 17.4519 14.1563 17.4399C14.1592 17.4397 14.1621 17.4389 14.1653 17.4386C14.2393 17.4268 14.3127 17.4132 14.3856 17.3983C14.399 17.3956 14.4123 17.3932 14.4254 17.3903C14.4975 17.375 14.5691 17.3582 14.6399 17.34C14.6543 17.3363 14.6687 17.3323 14.6831 17.3286C14.7555 17.3091 14.8273 17.2888 14.8983 17.2663C14.9037 17.2645 14.9088 17.2626 14.9141 17.261C14.9825 17.2391 15.0497 17.2156 15.1168 17.191C15.1288 17.1865 15.1411 17.1825 15.1534 17.1777C15.2209 17.1523 15.2879 17.1254 15.3542 17.0971C15.3683 17.0912 15.3822 17.085 15.3961 17.0789C15.4631 17.0495 15.5296 17.0193 15.5953 16.9873C15.602 16.9838 15.6089 16.9804 15.6156 16.9769C15.6778 16.9462 15.7392 16.9141 15.8001 16.8808C15.811 16.8749 15.822 16.869 15.8327 16.8631C15.8952 16.8284 15.9568 16.7921 16.018 16.7547C16.0313 16.7467 16.0442 16.7384 16.0575 16.7302C16.1187 16.692 16.1793 16.6527 16.2388 16.6121C16.2463 16.6068 16.2538 16.6014 16.2613 16.5964C16.3173 16.5574 16.3726 16.5171 16.4273 16.4759C16.4364 16.469 16.4458 16.4623 16.4548 16.4554C16.5117 16.4119 16.5675 16.3673 16.6228 16.3213C16.6346 16.3115 16.6463 16.3016 16.6581 16.2917C16.7128 16.2452 16.767 16.198 16.8199 16.1491C16.8274 16.1422 16.8346 16.1352 16.842 16.1283C16.8922 16.0815 16.9414 16.034 16.9897 15.9851C16.9969 15.9779 17.0041 15.971 17.0113 15.9638C17.0618 15.9122 17.1109 15.8596 17.1593 15.806C17.1694 15.7948 17.1796 15.7835 17.1894 15.7721C17.2372 15.7184 17.2842 15.6636 17.3299 15.6078C17.3366 15.5993 17.3435 15.5905 17.3502 15.5819C17.3937 15.5277 17.4364 15.473 17.4778 15.4169C17.4829 15.4102 17.4883 15.4036 17.4931 15.3969C17.4955 15.3937 17.4981 15.3905 17.5005 15.3873C17.5027 15.3905 17.5053 15.3934 17.5077 15.3969C17.5126 15.4036 17.5179 15.4102 17.523 15.4169C17.5644 15.473 17.6068 15.528 17.6506 15.5819C17.6573 15.5905 17.6642 15.5993 17.6709 15.6078C17.7166 15.6636 17.7636 15.7184 17.8114 15.7721C17.8212 15.7835 17.8314 15.7948 17.8415 15.806C17.8899 15.8596 17.939 15.9122 17.9895 15.9638C17.9967 15.971 18.0039 15.9779 18.0111 15.9851C18.0594 16.034 18.1086 16.0815 18.1588 16.1283C18.1662 16.1352 18.1734 16.1422 18.1809 16.1491C18.2338 16.198 18.288 16.2452 18.3427 16.2917L18.378 16.3213C18.433 16.3673 18.4891 16.4119 18.546 16.4554C18.555 16.4623 18.5644 16.469 18.5735 16.4759C18.6282 16.5171 18.6835 16.5574 18.7395 16.5964C18.7473 16.6014 18.7545 16.6068 18.762 16.6121C18.8215 16.6527 18.8821 16.692 18.9433 16.7302C18.9566 16.7384 18.9697 16.7467 18.9828 16.7547C19.0437 16.7921 19.1054 16.8284 19.1681 16.8631C19.1788 16.869 19.1898 16.8749 19.2007 16.8808C19.2616 16.9141 19.323 16.9462 19.3852 16.9769C19.3919 16.9804 19.3988 16.9838 19.4055 16.9873C19.4712 17.0193 19.5377 17.0495 19.6047 17.0789C19.6186 17.085 19.6325 17.0912 19.6466 17.0971C19.7129 17.1254 19.7799 17.1523 19.8475 17.1777C19.8597 17.1825 19.872 17.1868 19.884 17.191C19.9511 17.2156 20.0183 17.2391 20.0867 17.261C20.092 17.2626 20.0974 17.2645 20.1025 17.2663C20.1735 17.2888 20.2453 17.3091 20.3177 17.3286C20.3321 17.3323 20.3463 17.3363 20.3609 17.34C20.4317 17.3582 20.5033 17.375 20.5754 17.3903C20.5885 17.3932 20.6018 17.3956 20.6152 17.3983C20.6881 17.4132 20.7615 17.4268 20.8355 17.4386C20.8387 17.4389 20.8416 17.4397 20.8445 17.4399C20.9204 17.4519 20.9967 17.4613 21.0736 17.4698C21.0881 17.4712 21.1025 17.473 21.1172 17.4744C21.1919 17.4818 21.267 17.4877 21.3425 17.492C21.3567 17.4928 21.3711 17.4933 21.3853 17.4939C21.4643 17.4976 21.5434 17.5 21.6232 17.5C21.7028 17.5 21.7821 17.4976 21.8608 17.4939C21.8753 17.4933 21.8894 17.4928 21.9038 17.492C21.9794 17.4877 22.0544 17.4818 22.1292 17.4744C22.1436 17.473 22.1581 17.4714 22.1727 17.4698C22.2494 17.4613 22.326 17.4519 22.4016 17.4399C22.4045 17.4397 22.4077 17.4389 22.4107 17.4386C22.4846 17.4268 22.5581 17.4132 22.6312 17.3983C22.6446 17.3956 22.6577 17.3932 22.671 17.3903C22.7431 17.375 22.8147 17.3582 22.8854 17.34C22.8999 17.3363 22.9143 17.3323 22.9287 17.3286C23.0008 17.3091 23.0726 17.2888 23.1437 17.2663C23.149 17.2645 23.1543 17.2626 23.1597 17.261C23.2278 17.2391 23.2953 17.2156 23.3621 17.191C23.3744 17.1865 23.3867 17.1825 23.3987 17.1777C23.4665 17.1523 23.5335 17.1254 23.5997 17.0971C23.6136 17.0912 23.6275 17.085 23.6417 17.0789C23.7087 17.0495 23.7752 17.0193 23.8406 16.9873C23.8475 16.9838 23.8542 16.9804 23.8612 16.9769C23.9234 16.9462 23.9848 16.9141 24.0457 16.8808C24.0564 16.8749 24.0673 16.869 24.078 16.8631C24.1407 16.8284 24.2024 16.7921 24.2636 16.7547C24.2767 16.7467 24.2897 16.7384 24.3028 16.7302C24.364 16.692 24.4246 16.6527 24.4841 16.6121C24.4916 16.6068 24.4991 16.6014 24.5066 16.5964C24.5629 16.5574 24.6182 16.5171 24.6727 16.4759C24.682 16.469 24.6914 16.4623 24.7004 16.4554C24.7573 16.4119 24.8131 16.3673 24.8681 16.3213C24.8801 16.3115 24.8916 16.3016 24.9036 16.2917C24.9584 16.2452 25.0123 16.198 25.0652 16.1491C25.0729 16.1422 25.0801 16.1352 25.0876 16.1283C25.1376 16.0815 25.187 16.034 25.235 15.9851C25.2422 15.9779 25.2497 15.971 25.2567 15.9638C25.3071 15.9122 25.3565 15.8596 25.4049 15.806C25.415 15.7948 25.4249 15.7835 25.435 15.7721C25.4828 15.7184 25.5296 15.6636 25.5752 15.6078C25.5822 15.5993 25.5888 15.5905 25.5958 15.5819C25.6393 15.5277 25.682 15.473 25.7234 15.4169C25.7285 15.4102 25.7336 15.4036 25.7386 15.3969C25.741 15.3937 25.7434 15.3905 25.7458 15.3873C25.7483 15.3905 25.7507 15.3934 25.7531 15.3969C25.7581 15.4036 25.7632 15.4102 25.7683 15.4169C25.8099 15.473 25.8524 15.528 25.8959 15.5819C25.9029 15.5905 25.9095 15.5993 25.9165 15.6078C25.9621 15.6636 26.0089 15.7184 26.0567 15.7721C26.0668 15.7835 26.0767 15.7948 26.0871 15.806C26.1352 15.8596 26.1846 15.9122 26.235 15.9638C26.2423 15.971 26.2495 15.9779 26.2567 15.9851C26.3047 16.034 26.3539 16.0815 26.4041 16.1283C26.4116 16.1352 26.419 16.1422 26.4265 16.1491C26.4794 16.198 26.5333 16.2452 26.5883 16.2917C26.5998 16.3016 26.6118 16.3115 26.6236 16.3213C26.6786 16.3673 26.7344 16.4119 26.7913 16.4554C26.8003 16.4623 26.8097 16.469 26.819 16.4759C26.8735 16.5171 26.9291 16.5574 26.9851 16.5964C26.9926 16.6014 27.0001 16.6068 27.0076 16.6121C27.0671 16.6527 27.1277 16.692 27.1889 16.7302C27.202 16.7384 27.215 16.7467 27.2281 16.7547C27.2893 16.7921 27.351 16.8284 27.4137 16.8631C27.4244 16.869 27.4353 16.8749 27.446 16.8808C27.5069 16.9141 27.5683 16.9462 27.6308 16.9769C27.6375 16.9804 27.6442 16.9838 27.6511 16.9873C27.7165 17.0193 27.783 17.0495 27.8503 17.0789C27.8642 17.085 27.8781 17.0912 27.892 17.0971C27.9585 17.1254 28.0252 17.1523 28.093 17.1777C28.105 17.1825 28.1173 17.1868 28.1296 17.191C28.1964 17.2156 28.2639 17.2391 28.332 17.261C28.3374 17.2626 28.3427 17.2645 28.348 17.2663C28.4191 17.2888 28.4909 17.3091 28.5633 17.3286C28.5777 17.3323 28.5918 17.3363 28.6063 17.34C28.6773 17.3582 28.7489 17.375 28.8207 17.3903C28.834 17.3932 28.8474 17.3956 28.8605 17.3983C28.9336 17.4132 29.0068 17.4268 29.081 17.4386C29.084 17.4389 29.0872 17.4397 29.0901 17.4399C29.166 17.4519 29.2423 17.4613 29.3192 17.4698C29.3336 17.4712 29.3481 17.473 29.3625 17.4744C29.4373 17.4818 29.5123 17.4877 29.5879 17.492C29.6023 17.4928 29.6164 17.4933 29.6309 17.4939C29.7096 17.4976 29.7889 17.5 29.8685 17.5C29.8965 17.5 29.9246 17.4997 29.9526 17.4992V28.6057H16.4904V22.2115C16.4904 20.5415 15.1317 19.1828 13.4615 19.1828H10.7693C9.09901 19.1828 7.74036 20.5415 7.74036 22.2115V28.6057H5.04818V17.4992C5.07622 17.4997 5.10426 17.5 5.13229 17.5C5.21187 17.5 5.29118 17.4976 5.36995 17.4939ZM14.4711 28.6057H9.75964V22.2115C9.75964 21.655 10.2125 21.2018 10.7693 21.2018H13.4615C14.0182 21.2018 14.4711 21.655 14.4711 22.2115V28.6057ZM31.8029 32.9807H3.19714C2.54772 32.9807 2.01927 32.4523 2.01927 31.8029C2.01927 31.1535 2.54772 30.625 3.19714 30.625H31.8029C32.4523 30.625 32.9807 31.1535 32.9807 31.8029C32.9807 32.4523 32.4523 32.9807 31.8029 32.9807Z" fill="#0B2F64"/>
<path d="M21.5387 25.2404H24.2309C25.9011 25.2404 27.2598 23.8818 27.2598 22.2115C27.2598 20.5415 25.9011 19.1829 24.2309 19.1829H21.5387C19.8684 19.1829 18.5098 20.5415 18.5098 22.2115C18.5098 23.8818 19.8684 25.2404 21.5387 25.2404ZM21.5387 21.2019H24.2309C24.7876 21.2019 25.2405 21.655 25.2405 22.2115C25.2405 22.7683 24.7876 23.2211 24.2309 23.2211H21.5387C20.9819 23.2211 20.529 22.7683 20.529 22.2115C20.529 21.655 20.9819 21.2019 21.5387 21.2019Z" fill="#0B2F64"/>
<path d="M27.2595 5.38464C27.2595 4.82708 26.8074 4.375 26.2499 4.375H8.74987C8.19231 4.375 7.74023 4.82708 7.74023 5.38464C7.74023 5.94219 8.19231 6.39427 8.74987 6.39427H26.2499C26.8074 6.39427 27.2595 5.94219 27.2595 5.38464Z" fill="#0B2F64"/>
</g>
<defs>
<clipPath id="clip0">
<rect width="35" height="35" fill="white"/>
</clipPath>
</defs>
</svg>
