<svg width="35" height="34" viewBox="0 0 35 34" fill="none" xmlns="http://www.w3.org/2000/svg">
<g clip-path="url(#clip0)">
<path d="M34.7628 8.03293C34.7628 6.98034 34.2719 5.99642 33.4037 5.11875C32.5364 4.24198 31.2861 3.46398 29.7456 2.8161C26.6642 1.52014 22.3934 0.732935 17.6128 0.732935C12.8322 0.732935 8.56136 1.52014 5.47997 2.8161C3.93952 3.46398 2.68924 4.24198 1.8219 5.11875C0.953675 5.99642 0.462793 6.98034 0.462793 8.03293C0.462793 9.85821 1.93594 11.4701 4.31725 12.7041C1.85457 13.9709 0.462793 15.5938 0.462793 17.3829C0.462793 19.1718 1.85201 20.7919 4.30981 22.0579C1.85194 23.3242 0.462793 24.9478 0.462793 26.7329C0.462793 27.7855 0.953675 28.7695 1.8219 29.6471C2.68924 30.5239 3.93952 31.3019 5.47997 31.9498C8.56136 33.2457 12.8322 34.0329 17.6128 34.0329C22.3934 34.0329 26.6642 33.2457 29.7456 31.9498C31.2861 31.3019 32.5364 30.5239 33.4037 29.6471C34.2719 28.7695 34.7628 27.7855 34.7628 26.7329C34.7628 24.9478 33.3736 23.3247 30.9157 22.0579C33.3736 20.7912 34.7628 19.1681 34.7628 17.3829C34.7628 15.5975 33.3711 13.9712 30.9083 12.7041C33.2896 11.4701 34.7628 9.85822 34.7628 8.03293ZM33.3295 26.7329C33.3295 27.4934 32.9084 28.2439 32.1104 28.9492C31.3131 29.654 30.1541 30.2998 28.718 30.8474C25.847 31.9422 21.899 32.6329 17.6128 32.6329C13.3265 32.6329 9.37863 31.9422 6.50758 30.8474C5.07149 30.2998 3.91245 29.654 3.11514 28.9492C2.31715 28.2439 1.89613 27.4934 1.89613 26.7329C1.89613 26.0524 2.25615 25.3508 2.96845 24.6717C3.6704 24.0024 4.70291 23.3669 6.02568 22.8118C6.40401 22.9563 6.79713 23.0911 7.20106 23.2187C5.92074 23.6736 4.85915 24.1998 4.09346 24.7565C3.25017 25.3695 2.72946 26.0467 2.72946 26.7329C2.72946 27.1237 3.05457 27.4329 3.44613 27.4329C3.83768 27.4329 4.16279 27.1237 4.16279 26.7329C4.16279 26.7042 4.17572 26.6502 4.22462 26.5685C4.27227 26.4889 4.34778 26.3937 4.45568 26.2856C4.67134 26.0696 5.00519 25.8135 5.46916 25.5403C6.3912 24.9974 7.81317 24.3952 9.80297 23.9084C12.3703 24.4348 14.988 24.6945 17.6119 24.6829C21.5592 24.7473 25.4854 24.1129 29.1982 22.8109C30.5218 23.3662 31.5549 24.0022 32.2572 24.6719C32.9694 25.3511 33.3295 26.0527 33.3295 26.7329ZM33.3295 17.3829C33.3295 18.0803 32.9522 18.7996 32.2057 19.494C31.4601 20.1876 30.3589 20.8435 28.9472 21.4099C25.9276 22.6159 21.9027 23.2829 17.6128 23.2829C13.323 23.2829 9.29822 22.616 6.27867 21.4105C4.86678 20.8438 3.76556 20.1878 3.01988 19.4941C2.27342 18.7996 1.89613 18.0803 1.89613 17.3829C1.89613 16.7029 2.2555 16.0018 2.96659 15.3232C3.6673 14.6545 4.69804 14.0195 6.01871 13.4647C6.39183 13.6083 6.78093 13.7445 7.18394 13.8733C5.9071 14.3294 4.84927 14.8557 4.0867 15.4117C3.24728 16.0238 2.72946 16.6991 2.72946 17.3829C2.72946 17.7737 3.05457 18.0829 3.44613 18.0829C3.83768 18.0829 4.16279 17.7737 4.16279 17.3829C4.16279 17.3544 4.17564 17.3006 4.22442 17.2192C4.27195 17.1399 4.34727 17.0448 4.45492 16.937C4.67006 16.7214 5.0031 16.4657 5.46594 16.1927C6.38567 15.6501 7.80396 15.0474 9.78835 14.5579C12.3602 15.0863 14.983 15.3461 17.6118 15.3329C21.5615 15.405 25.4911 14.7714 29.2045 13.4637C30.5263 14.0187 31.5579 14.6542 32.259 15.3234C32.9701 16.0021 33.3295 16.7032 33.3295 17.3829ZM17.6128 13.9329C13.3265 13.9329 9.37863 13.2422 6.50758 12.1474C5.07149 11.5998 3.91245 10.954 3.11514 10.2492C2.31715 9.54387 1.89613 8.79343 1.89613 8.03293C1.89613 7.27244 2.31715 6.522 3.11514 5.81664C3.91245 5.11187 5.07149 4.46604 6.50758 3.91843C9.37863 2.82364 13.3265 2.13293 17.6128 2.13293C21.899 2.13293 25.847 2.82364 28.718 3.91843C30.1541 4.46604 31.3131 5.11187 32.1104 5.81664C32.9084 6.522 33.3295 7.27244 33.3295 8.03293C33.3295 8.79343 32.9084 9.54387 32.1104 10.2492C31.3131 10.954 30.1541 11.5998 28.718 12.1474C25.847 13.2422 21.899 13.9329 17.6128 13.9329Z" fill="#0B2F64" stroke="#0B2F64" stroke-width="0.3"/>
<path d="M31.7792 7.33291C31.3877 7.33291 31.0626 7.64212 31.0626 8.03291C31.0626 8.09634 31.0182 8.21103 30.8751 8.37496C30.7371 8.53315 30.5252 8.71667 30.2367 8.91537C29.6604 9.31222 28.7953 9.75826 27.6522 10.1765C25.3672 11.0127 21.9848 11.7329 17.6126 11.7329C17.221 11.7329 16.8959 12.0421 16.8959 12.4329C16.8959 12.8237 17.221 13.1329 17.6126 13.1329C22.1248 13.1329 25.8269 12.3976 28.4059 11.4046C29.6948 10.9084 30.709 10.3456 31.404 9.77347C32.0926 9.20657 32.4959 8.6065 32.4959 8.03291C32.4959 7.64212 32.1708 7.33291 31.7792 7.33291Z" fill="#0B2F64" stroke="#0B2F64" stroke-width="0.3"/>
<path d="M18.3294 3.63301C18.3294 3.24222 18.0043 2.93301 17.6127 2.93301C13.1005 2.93301 9.39843 3.66834 6.81936 4.66129C5.5305 5.15751 4.51632 5.72029 3.82134 6.29244C3.13273 6.85935 2.72939 7.45942 2.72939 8.03301C2.72939 8.4238 3.05451 8.73301 3.44606 8.73301C3.83761 8.73301 4.16273 8.4238 4.16273 8.03301C4.16273 7.96958 4.20712 7.85489 4.35015 7.69096C4.48818 7.53276 4.7001 7.34925 4.98861 7.15055C5.56485 6.7537 6.42995 6.30766 7.57307 5.88938C9.85811 5.05326 13.2405 4.33301 17.6127 4.33301C18.0043 4.33301 18.3294 4.0238 18.3294 3.63301Z" fill="#0B2F64" stroke="#0B2F64" stroke-width="0.3"/>
<path d="M16.8959 21.7829C16.8959 22.1737 17.221 22.4829 17.6126 22.4829C22.1248 22.4829 25.8269 21.7476 28.4059 20.7546C29.6948 20.2584 30.709 19.6956 31.404 19.1234C32.0926 18.5565 32.4959 17.9565 32.4959 17.3829C32.4959 16.9921 32.1708 16.6829 31.7792 16.6829C31.3877 16.6829 31.0626 16.9921 31.0626 17.3829C31.0626 17.4463 31.0182 17.561 30.8751 17.7249C30.7371 17.8831 30.5252 18.0666 30.2367 18.2653C29.6604 18.6622 28.7953 19.1082 27.6522 19.5265C25.3672 20.3626 21.9848 21.0829 17.6126 21.0829C17.221 21.0829 16.8959 21.3921 16.8959 21.7829Z" fill="#0B2F64" stroke="#0B2F64" stroke-width="0.3"/>
<path d="M17.6126 30.433C17.221 30.433 16.8959 30.7422 16.8959 31.133C16.8959 31.5238 17.221 31.833 17.6126 31.833C22.1248 31.833 25.8269 31.0977 28.4059 30.1047C29.6948 29.6085 30.709 29.0457 31.404 28.4735C32.0926 27.9066 32.4959 27.3066 32.4959 26.733C32.4959 26.3422 32.1708 26.033 31.7792 26.033C31.3877 26.033 31.0626 26.3422 31.0626 26.733C31.0626 26.7964 31.0182 26.9111 30.8751 27.075C30.7371 27.2332 30.5252 27.4167 30.2367 27.6154C29.6604 28.0123 28.7953 28.4583 27.6522 28.8766C25.3672 29.7127 21.9848 30.433 17.6126 30.433Z" fill="#0B2F64" stroke="#0B2F64" stroke-width="0.3"/>
<path d="M5.71266 19.1837C6.10431 19.1837 6.42933 18.8742 6.42933 18.4833C6.42933 18.0924 6.10431 17.783 5.71266 17.783C5.32102 17.783 4.996 18.0924 4.996 18.4833C4.996 18.8742 5.32102 19.1837 5.71266 19.1837Z" fill="#0B2F64" stroke="#0B2F64" stroke-width="0.3"/>
<path d="M8.54616 20.8337C8.9378 20.8337 9.26283 20.5243 9.26283 20.1334C9.26283 19.7425 8.9378 19.433 8.54616 19.433C8.15451 19.433 7.82949 19.7425 7.82949 20.1334C7.82949 20.5243 8.15451 20.8337 8.54616 20.8337Z" fill="#0B2F64" stroke="#0B2F64" stroke-width="0.3"/>
<path d="M10.8128 19.7336C11.2044 19.7336 11.5294 19.4242 11.5294 19.0333C11.5294 18.6424 11.2044 18.3329 10.8128 18.3329C10.4211 18.3329 10.0961 18.6424 10.0961 19.0333C10.0961 19.4242 10.4211 19.7336 10.8128 19.7336Z" fill="#0B2F64" stroke="#0B2F64" stroke-width="0.3"/>
<path d="M13.0794 21.9337C13.471 21.9337 13.796 21.6242 13.796 21.2333C13.796 20.8424 13.471 20.533 13.0794 20.533C12.6877 20.533 12.3627 20.8424 12.3627 21.2333C12.3627 21.6242 12.6877 21.9337 13.0794 21.9337Z" fill="#0B2F64" stroke="#0B2F64" stroke-width="0.3"/>
<path d="M14.7796 19.7336C15.1712 19.7336 15.4962 19.4242 15.4962 19.0333C15.4962 18.6424 15.1712 18.3329 14.7796 18.3329C14.3879 18.3329 14.0629 18.6424 14.0629 19.0333C14.0629 19.4242 14.3879 19.7336 14.7796 19.7336Z" fill="#0B2F64" stroke="#0B2F64" stroke-width="0.3"/>
<path d="M18.1795 20.2835C18.5711 20.2835 18.8961 19.9741 18.8961 19.5832C18.8961 19.1923 18.5711 18.8828 18.1795 18.8828C17.7878 18.8828 17.4628 19.1923 17.4628 19.5832C17.4628 19.9741 17.7878 20.2835 18.1795 20.2835Z" fill="#0B2F64" stroke="#0B2F64" stroke-width="0.3"/>
<path d="M20.4461 18.0836C20.8377 18.0836 21.1627 17.7741 21.1627 17.3832C21.1627 16.9923 20.8377 16.6829 20.4461 16.6829C20.0544 16.6829 19.7294 16.9923 19.7294 17.3832C19.7294 17.7741 20.0544 18.0836 20.4461 18.0836Z" fill="#0B2F64" stroke="#0B2F64" stroke-width="0.3"/>
<path d="M25.5462 18.6337C25.9378 18.6337 26.2628 18.3242 26.2628 17.9333C26.2628 17.5424 25.9378 17.2329 25.5462 17.2329C25.1545 17.2329 24.8295 17.5424 24.8295 17.9333C24.8295 18.3242 25.1545 18.6337 25.5462 18.6337Z" fill="#0B2F64" stroke="#0B2F64" stroke-width="0.3"/>
<path d="M22.7127 20.2835C23.1043 20.2835 23.4293 19.9741 23.4293 19.5832C23.4293 19.1923 23.1043 18.8828 22.7127 18.8828C22.321 18.8828 21.996 19.1923 21.996 19.5832C21.996 19.9741 22.321 20.2835 22.7127 20.2835Z" fill="#0B2F64" stroke="#0B2F64" stroke-width="0.3"/>
<path d="M23.846 16.9836C24.2376 16.9836 24.5626 16.6742 24.5626 16.2833C24.5626 15.8924 24.2376 15.5829 23.846 15.5829C23.4543 15.5829 23.1293 15.8924 23.1293 16.2833C23.1293 16.6742 23.4543 16.9836 23.846 16.9836Z" fill="#0B2F64" stroke="#0B2F64" stroke-width="0.3"/>
<path d="M27.2464 16.4336C27.638 16.4336 27.963 16.1241 27.963 15.7332C27.963 15.3423 27.638 15.0329 27.2464 15.0329C26.8547 15.0329 26.5297 15.3423 26.5297 15.7332C26.5297 16.1241 26.8547 16.4336 27.2464 16.4336Z" fill="#0B2F64" stroke="#0B2F64" stroke-width="0.3"/>
<path d="M30.0794 16.4336C30.471 16.4336 30.796 16.1241 30.796 15.7332C30.796 15.3423 30.471 15.0329 30.0794 15.0329C29.6877 15.0329 29.3627 15.3423 29.3627 15.7332C29.3627 16.1241 29.6877 16.4336 30.0794 16.4336Z" fill="#0B2F64" stroke="#0B2F64" stroke-width="0.3"/>
<path d="M28.3797 18.6337C28.7713 18.6337 29.0963 18.3242 29.0963 17.9333C29.0963 17.5424 28.7713 17.2329 28.3797 17.2329C27.988 17.2329 27.663 17.5424 27.663 17.9333C27.663 18.3242 27.988 18.6337 28.3797 18.6337Z" fill="#0B2F64" stroke="#0B2F64" stroke-width="0.3"/>
<path d="M17.0462 18.0836C17.4378 18.0836 17.7628 17.7741 17.7628 17.3832C17.7628 16.9923 17.4378 16.6829 17.0462 16.6829C16.6545 16.6829 16.3295 16.9923 16.3295 17.3832C16.3295 17.7741 16.6545 18.0836 17.0462 18.0836Z" fill="#0B2F64" stroke="#0B2F64" stroke-width="0.3"/>
<path d="M13.6463 17.5337C14.0379 17.5337 14.3629 17.2242 14.3629 16.8333C14.3629 16.4424 14.0379 16.133 13.6463 16.133C13.2546 16.133 12.9296 16.4424 12.9296 16.8333C12.9296 17.2242 13.2546 17.5337 13.6463 17.5337Z" fill="#0B2F64" stroke="#0B2F64" stroke-width="0.3"/>
<path d="M10.8128 16.9836C11.2044 16.9836 11.5294 16.6742 11.5294 16.2833C11.5294 15.8924 11.2044 15.5829 10.8128 15.5829C10.4211 15.5829 10.0961 15.8924 10.0961 16.2833C10.0961 16.6742 10.4211 16.9836 10.8128 16.9836Z" fill="#0B2F64" stroke="#0B2F64" stroke-width="0.3"/>
<path d="M7.97926 17.5337C8.37091 17.5337 8.69593 17.2242 8.69593 16.8333C8.69593 16.4424 8.37091 16.133 7.97926 16.133C7.58762 16.133 7.2626 16.4424 7.2626 16.8333C7.2626 17.2242 7.58762 17.5337 7.97926 17.5337Z" fill="#0B2F64" stroke="#0B2F64" stroke-width="0.3"/>
</g>
<defs>
<clipPath id="clip0">
<rect x="0.612793" y="0.882935" width="34" height="33" fill="white"/>
</clipPath>
</defs>
</svg>
