<svg width="43" height="43" viewBox="0 0 43 43" fill="none" xmlns="http://www.w3.org/2000/svg">
<path d="M18.6187 31.563C18.2293 31.563 17.8486 31.6785 17.5249 31.8948C17.2011 32.1111 16.9488 32.4186 16.7998 32.7783C16.6508 33.1381 16.6118 33.5339 16.6877 33.9158C16.7637 34.2977 16.9512 34.6485 17.2265 34.9239C17.5019 35.1992 17.8527 35.3867 18.2346 35.4627C18.6165 35.5386 19.0123 35.4996 19.3721 35.3506C19.7318 35.2016 20.0393 34.9493 20.2556 34.6255C20.4719 34.3018 20.5874 33.9211 20.5874 33.5317C20.5874 33.0096 20.38 32.5088 20.0108 32.1396C19.6416 31.7704 19.1408 31.563 18.6187 31.563ZM18.6187 34.188C18.4889 34.188 18.362 34.1495 18.2541 34.0774C18.1461 34.0053 18.062 33.9028 18.0124 33.7829C17.9627 33.663 17.9497 33.531 17.975 33.4037C18.0003 33.2764 18.0628 33.1595 18.1546 33.0677C18.2464 32.9759 18.3633 32.9134 18.4906 32.8881C18.6179 32.8628 18.7499 32.8758 18.8698 32.9254C18.9897 32.9751 19.0922 33.0592 19.1643 33.1671C19.2364 33.2751 19.2749 33.4019 19.2749 33.5317C19.2749 33.7058 19.2058 33.8727 19.0827 33.9958C18.9596 34.1188 18.7927 34.188 18.6187 34.188Z" fill="#0B2F64"/>
<path d="M34.3687 31.563C33.9793 31.563 33.5986 31.6785 33.2749 31.8948C32.9511 32.1111 32.6988 32.4186 32.5498 32.7783C32.4008 33.1381 32.3618 33.5339 32.4377 33.9158C32.5137 34.2977 32.7012 34.6485 32.9765 34.9239C33.2519 35.1992 33.6027 35.3867 33.9846 35.4627C34.3665 35.5386 34.7623 35.4996 35.1221 35.3506C35.4818 35.2016 35.7893 34.9493 36.0056 34.6255C36.2219 34.3018 36.3374 33.9211 36.3374 33.5317C36.3374 33.0096 36.13 32.5088 35.7608 32.1396C35.3916 31.7704 34.8908 31.563 34.3687 31.563ZM34.3687 34.188C34.2389 34.188 34.112 34.1495 34.0041 34.0774C33.8961 34.0053 33.812 33.9028 33.7624 33.7829C33.7127 33.663 33.6997 33.531 33.725 33.4037C33.7503 33.2764 33.8128 33.1595 33.9046 33.0677C33.9964 32.9759 34.1133 32.9134 34.2406 32.8881C34.3679 32.8628 34.4999 32.8758 34.6198 32.9254C34.7397 32.9751 34.8422 33.0592 34.9143 33.1671C34.9864 33.2751 35.0249 33.4019 35.0249 33.5317C35.0249 33.7058 34.9558 33.8727 34.8327 33.9958C34.7096 34.1188 34.5427 34.188 34.3687 34.188Z" fill="#0B2F64"/>
<path d="M39.6187 23.688H38.1316C37.7682 23.6901 37.4124 23.7925 37.1034 23.9838C36.7944 24.175 36.5441 24.4478 36.3801 24.7721C36.0229 23.1671 35.131 21.7311 33.8507 20.6995C32.5703 19.6678 30.9775 19.1018 29.3332 19.0942H23.6541C22.0098 19.1018 20.417 19.6678 19.1366 20.6995C17.8563 21.7311 16.9644 23.1671 16.6072 24.7721C16.4432 24.4478 16.1929 24.175 15.8839 23.9838C15.5749 23.7925 15.2191 23.6901 14.8557 23.688H13.3687C12.8465 23.688 12.3457 23.8954 11.9765 24.2646C11.6073 24.6338 11.3999 25.1346 11.3999 25.6567V26.313C11.3999 26.8351 11.6073 27.3359 11.9765 27.7051C12.3457 28.0743 12.8465 28.2817 13.3687 28.2817H14.4095L14.7934 28.6656C14.3314 28.9043 13.9327 29.2493 13.6302 29.6723C13.3278 30.0952 13.1301 30.584 13.0537 31.0984L12.4912 35.0359C12.4292 35.4676 12.454 35.9074 12.5642 36.3294C12.6743 36.7514 12.8676 37.1472 13.1327 37.4936C13.3977 37.8399 13.7293 38.1299 14.1079 38.3465C14.4865 38.563 14.9045 38.7019 15.3374 38.7548V39.438C15.3374 39.9601 15.5448 40.4609 15.914 40.8301C16.2832 41.1993 16.784 41.4067 17.3062 41.4067H19.9312C20.4533 41.4067 20.9541 41.1993 21.3233 40.8301C21.6925 40.4609 21.8999 39.9601 21.8999 39.438V38.7817H31.0874V39.438C31.0874 39.9601 31.2948 40.4609 31.664 40.8301C32.0332 41.1993 32.534 41.4067 33.0562 41.4067H35.6812C36.2033 41.4067 36.7041 41.1993 37.0733 40.8301C37.4425 40.4609 37.6499 39.9601 37.6499 39.438V38.7548C38.0828 38.7019 38.5008 38.563 38.8794 38.3465C39.258 38.1299 39.5896 37.8399 39.8546 37.4936C40.1197 37.1472 40.313 36.7514 40.4231 36.3294C40.5333 35.9074 40.5581 35.4676 40.4961 35.0359L39.9337 31.0984C39.8572 30.584 39.6596 30.0952 39.3571 29.6723C39.0546 29.2493 38.6559 28.9043 38.1939 28.6656L38.5778 28.2817H39.6187C40.1408 28.2817 40.6416 28.0743 41.0108 27.7051C41.38 27.3359 41.5874 26.8351 41.5874 26.313V25.6567C41.5874 25.1346 41.38 24.6338 41.0108 24.2646C40.6416 23.8954 40.1408 23.688 39.6187 23.688ZM17.8069 25.4782C18.0136 24.0732 18.7173 22.7889 19.7902 21.8584C20.863 20.9278 22.2339 20.4128 23.6541 20.4067H29.3332C30.7534 20.4128 32.1243 20.9278 33.1972 21.8584C34.27 22.7889 34.9737 24.0732 35.1804 25.4782L35.5807 28.2817H17.4066L17.8069 25.4782ZM13.3687 26.9692C13.1946 26.9692 13.0277 26.9001 12.9046 26.777C12.7815 26.654 12.7124 26.487 12.7124 26.313V25.6567C12.7124 25.4827 12.7815 25.3158 12.9046 25.1927C13.0277 25.0696 13.1946 25.0005 13.3687 25.0005H14.8557C15.0136 25.0006 15.1662 25.0577 15.2854 25.1613C15.4046 25.2648 15.4825 25.4079 15.5047 25.5642L15.8329 27.8473L15.1471 27.1615C15.0859 27.1003 15.0133 27.0519 14.9333 27.0189C14.8534 26.9859 14.7677 26.969 14.6812 26.9692H13.3687ZM20.5874 39.438C20.5874 39.612 20.5183 39.779 20.3952 39.902C20.2721 40.0251 20.1052 40.0942 19.9312 40.0942H17.3062C17.1321 40.0942 16.9652 40.0251 16.8421 39.902C16.719 39.779 16.6499 39.612 16.6499 39.438V38.7817H20.5874V39.438ZM36.3374 39.438C36.3374 39.612 36.2683 39.779 36.1452 39.902C36.0221 40.0251 35.8552 40.0942 35.6812 40.0942H33.0562C32.8821 40.0942 32.7152 40.0251 32.5921 39.902C32.469 39.779 32.3999 39.612 32.3999 39.438V38.7817H36.3374V39.438ZM39.1973 35.2222C39.2372 35.5015 39.2166 35.786 39.1369 36.0566C39.0573 36.3271 38.9204 36.5774 38.7356 36.7905C38.5508 37.0036 38.3223 37.1745 38.0657 37.2916C37.8091 37.4087 37.5303 37.4692 37.2483 37.4692H15.739C15.457 37.4692 15.1782 37.4087 14.9216 37.2916C14.665 37.1745 14.4366 37.0036 14.2517 36.7905C14.0669 36.5774 13.93 36.3271 13.8504 36.0566C13.7707 35.786 13.7501 35.5015 13.79 35.2222L14.3524 31.2847C14.4213 30.8164 14.6559 30.3883 15.0135 30.0781C15.3711 29.7679 15.8281 29.5963 16.3014 29.5942H36.6859C37.1593 29.5963 37.6162 29.7679 37.9738 30.0781C38.3315 30.3883 38.566 30.8164 38.6349 31.2847L39.1973 35.2222ZM40.2749 26.313C40.2749 26.487 40.2058 26.654 40.0827 26.777C39.9596 26.9001 39.7927 26.9692 39.6187 26.9692H38.3062C38.1321 26.9693 37.9652 27.0384 37.8422 27.1615L37.1564 27.8473L37.4845 25.5636C37.5069 25.4077 37.5845 25.265 37.7033 25.1617C37.8221 25.0583 37.9741 25.0011 38.1316 25.0005H39.6187C39.7927 25.0005 39.9596 25.0696 40.0827 25.1927C40.2058 25.3158 40.2749 25.4827 40.2749 25.6567V26.313Z" fill="#0B2F64"/>
<path d="M30.4313 32.2192H22.5563C22.4523 32.2192 22.3498 32.2439 22.2573 32.2913C22.1647 32.3386 22.0847 32.4073 22.0239 32.4916C21.963 32.576 21.9231 32.6736 21.9074 32.7764C21.8917 32.8792 21.9007 32.9842 21.9335 33.0829L22.5898 35.0516C22.6333 35.1823 22.7169 35.2961 22.8287 35.3766C22.9405 35.4572 23.0748 35.5005 23.2126 35.5005H29.7751C29.9129 35.5005 30.0472 35.4572 30.1589 35.3766C30.2707 35.2961 30.3543 35.1823 30.3978 35.0516L31.0541 33.0829C31.087 32.9842 31.0959 32.8792 31.0802 32.7764C31.0645 32.6736 31.0246 32.576 30.9638 32.4916C30.9029 32.4073 30.8229 32.3386 30.7304 32.2913C30.6378 32.2439 30.5353 32.2192 30.4313 32.2192ZM29.3019 34.188H23.6857L23.4665 33.5317H29.5211L29.3019 34.188Z" fill="#0B2F64"/>
<path d="M9.43115 35.6212V17.7817H13.3687C13.5427 17.7817 13.7096 17.7126 13.8327 17.5895C13.9558 17.4665 14.0249 17.2995 14.0249 17.1255V5.31299C14.0249 5.13894 13.9558 4.97202 13.8327 4.84895C13.7096 4.72588 13.5427 4.65674 13.3687 4.65674H2.86865C2.6946 4.65674 2.52768 4.72588 2.40461 4.84895C2.28154 4.97202 2.2124 5.13894 2.2124 5.31299V17.1255C2.2124 17.2995 2.28154 17.4665 2.40461 17.5895C2.52768 17.7126 2.6946 17.7817 2.86865 17.7817H6.1499V35.6212C5.76737 35.7565 5.43596 36.0066 5.20102 36.3374C4.96608 36.6682 4.83908 37.0635 4.8374 37.4692V40.7505C4.8374 40.9245 4.90654 41.0915 5.02961 41.2145C5.15268 41.3376 5.3196 41.4067 5.49365 41.4067H10.0874C10.2615 41.4067 10.4284 41.3376 10.5514 41.2145C10.6745 41.0915 10.7437 40.9245 10.7437 40.7505V37.4692C10.742 37.0635 10.615 36.6682 10.38 36.3374C10.1451 36.0066 9.81369 35.7565 9.43115 35.6212ZM3.5249 5.96924H12.7124V16.4692H3.5249V5.96924ZM8.11865 17.7817V35.5005H7.4624V17.7817H8.11865ZM9.43115 40.0942H6.1499V37.4692C6.1499 37.2952 6.21904 37.1283 6.34211 37.0052C6.46518 36.8821 6.6321 36.813 6.80615 36.813H8.7749C8.94895 36.813 9.11587 36.8821 9.23894 37.0052C9.36201 37.1283 9.43115 37.2952 9.43115 37.4692V40.0942Z" fill="#0B2F64"/>
<path d="M7.4624 14.5005V12.5317H8.7749C9.4711 12.5317 10.1388 12.2552 10.6311 11.7629C11.1233 11.2706 11.3999 10.6029 11.3999 9.90674C11.3999 9.21055 11.1233 8.54287 10.6311 8.05058C10.1388 7.5583 9.4711 7.28174 8.7749 7.28174H6.80615C6.6321 7.28174 6.46518 7.35088 6.34211 7.47395C6.21904 7.59702 6.1499 7.76394 6.1499 7.93799V14.5005C6.1499 14.6745 6.21904 14.8415 6.34211 14.9645C6.46518 15.0876 6.6321 15.1567 6.80615 15.1567C6.9802 15.1567 7.14712 15.0876 7.27019 14.9645C7.39326 14.8415 7.4624 14.6745 7.4624 14.5005ZM7.4624 8.59424H8.7749C9.123 8.59424 9.45684 8.73252 9.70298 8.97866C9.94912 9.2248 10.0874 9.55864 10.0874 9.90674C10.0874 10.2548 9.94912 10.5887 9.70298 10.8348C9.45684 11.081 9.123 11.2192 8.7749 11.2192H7.4624V8.59424Z" fill="#0B2F64"/>
<path d="M23.6766 21.9115C23.5536 21.7885 23.3867 21.7194 23.2127 21.7194C23.0386 21.7194 22.8717 21.7885 22.7487 21.9115L19.4674 25.1928C19.4048 25.2533 19.3548 25.3257 19.3204 25.4058C19.286 25.4858 19.2679 25.5719 19.2671 25.6591C19.2664 25.7462 19.283 25.8326 19.316 25.9133C19.349 25.9939 19.3977 26.0672 19.4593 26.1288C19.5209 26.1904 19.5942 26.2392 19.6748 26.2722C19.7555 26.3052 19.8419 26.3218 19.929 26.321C20.0162 26.3203 20.1023 26.3022 20.1824 26.2678C20.2624 26.2334 20.3348 26.1834 20.3954 26.1207L23.6766 22.8394C23.7997 22.7164 23.8688 22.5495 23.8688 22.3755C23.8688 22.2015 23.7997 22.0346 23.6766 21.9115Z" fill="#0B2F64"/>
<path d="M26.0299 21.9115L22.7487 25.1928C22.686 25.2533 22.636 25.3257 22.6016 25.4058C22.5672 25.4858 22.5491 25.572 22.5484 25.6591C22.5476 25.7462 22.5642 25.8326 22.5972 25.9133C22.6302 25.9939 22.6789 26.0672 22.7406 26.1288C22.8022 26.1905 22.8754 26.2392 22.9561 26.2722C23.0367 26.3052 23.1232 26.3218 23.2103 26.321C23.2974 26.3203 23.3835 26.3022 23.4636 26.2678C23.5437 26.2334 23.6161 26.1834 23.6766 26.1207L26.9579 22.8395C27.0774 22.7157 27.1436 22.5499 27.1421 22.3778C27.1406 22.2058 27.0715 22.0412 26.9499 21.9195C26.8282 21.7978 26.6636 21.7288 26.4915 21.7273C26.3195 21.7258 26.1537 21.792 26.0299 21.9115Z" fill="#0B2F64"/>
</svg>
