<svg width="457" height="536" viewBox="0 0 457 536" fill="none" xmlns="http://www.w3.org/2000/svg">
<g opacity="0.05">
<path d="M235.713 285.115C235.713 284.763 235.899 284.436 236.201 284.256L454.627 154.083C455.294 153.686 456.139 154.166 456.139 154.942V403.572C456.139 403.924 455.954 404.251 455.651 404.431L237.225 534.605C236.559 535.002 235.713 534.522 235.713 533.746V285.115Z" fill="#FBA727"/>
<path d="M5.30391 128.097C4.65325 127.709 4.65331 126.767 5.304 126.379L215.884 0.882079C216.192 0.698335 216.576 0.693915 216.888 0.870498L439.028 126.405C439.691 126.78 439.709 127.728 439.061 128.127L226.441 259.295C226.123 259.491 225.724 259.494 225.404 259.303L5.30391 128.097Z" fill="#FBA727"/>
<path d="M0.942879 412.815C0.942879 413.167 1.12828 413.493 1.43094 413.674L204.356 534.609C205.023 535.006 205.868 534.526 205.868 533.75V275.544C205.868 275.192 205.683 274.866 205.38 274.685L2.45482 153.749C1.78825 153.352 0.942879 153.833 0.942879 154.608L0.942879 412.815Z" fill="#FBA727"/>
</g>
</svg>
