<svg width="163" height="191" viewBox="0 0 163 191" fill="none" xmlns="http://www.w3.org/2000/svg">
<path d="M83.7334 101.845C83.7334 101.493 83.9188 101.166 84.2215 100.986L160.838 55.326C161.504 54.9287 162.35 55.409 162.35 56.185V143.362C162.35 143.715 162.164 144.041 161.862 144.221L85.2453 189.882C84.5788 190.279 83.7334 189.799 83.7334 189.023V101.845Z" fill="#FBA727"/>
<path d="M2.48213 46.0306C1.83148 45.6427 1.83153 44.7004 2.48223 44.3126L76.3388 0.297067C76.6471 0.113323 77.0303 0.108901 77.3427 0.285484L155.297 44.3387C155.96 44.713 155.978 45.6608 155.33 46.0603L80.7567 92.0656C80.4395 92.2613 80.0398 92.2643 79.7196 92.0735L2.48213 46.0306Z" fill="#FBA727"/>
<path d="M2.73146e-06 146.656C2.73146e-06 147.009 0.185408 147.335 0.488062 147.515L71.5757 189.881C72.2423 190.278 73.0877 189.798 73.0877 189.022V98.4291C73.0877 98.0767 72.9023 97.7504 72.5996 97.57L1.51194 55.2045C0.845374 54.8072 2.73146e-06 55.2876 2.73146e-06 56.0635L2.73146e-06 146.656Z" fill="#FBA727"/>
</svg>
