<svg width="407" height="478" viewBox="0 0 407 478" fill="none" xmlns="http://www.w3.org/2000/svg">
<g opacity="0.05">
<path d="M209.801 254.635C209.801 254.282 209.986 253.956 210.289 253.776L404.935 137.775C405.601 137.378 406.446 137.858 406.446 138.634L406.446 360.19C406.446 360.542 406.261 360.868 405.958 361.049L211.313 477.05C210.646 477.447 209.801 476.967 209.801 476.191L209.801 254.635Z" fill="#EF003D"/>
<path d="M4.40448 114.588C3.75383 114.2 3.75389 113.257 4.40459 112.87L192.057 1.0361C192.366 0.852357 192.749 0.847937 193.061 1.02452L391.023 112.896C391.685 113.27 391.703 114.218 391.056 114.617L201.584 231.505C201.267 231.7 200.867 231.703 200.547 231.512L4.40448 114.588Z" fill="#EF003D"/>
<path d="M0.358405 368.435C0.358405 368.787 0.543811 369.114 0.846464 369.294L181.664 477.054C182.33 477.451 183.175 476.97 183.175 476.195L183.175 246.096C183.175 245.744 182.99 245.418 182.687 245.237L1.87035 137.477C1.20378 137.08 0.358405 137.56 0.358405 138.336L0.358405 368.435Z" fill="#EF003D"/>
</g>
</svg>
