<svg width="43" height="44" viewBox="0 0 43 44" fill="none" xmlns="http://www.w3.org/2000/svg">
<g clip-path="url(#clip0)">
<path d="M23.9199 35.3711C24.433 34.7385 24.7153 33.9427 24.7187 33.1204C24.7187 31.1412 23.1516 29.5371 21.2187 29.5371C19.2856 29.5371 17.7188 31.1412 17.7188 33.1204C17.7222 33.9427 18.0045 34.7385 18.5176 35.3711C17.6309 35.6409 17.0222 36.4734 17.0188 37.4203V43.1536C17.0188 43.5494 17.3322 43.8703 17.7188 43.8703C18.1054 43.8703 18.4188 43.5494 18.4188 43.1536V37.4203C18.4188 37.0246 18.7322 36.7037 19.1188 36.7037H23.3187C23.7053 36.7037 24.0187 37.0246 24.0187 37.4203V43.1536C24.0187 43.5494 24.3321 43.8703 24.7187 43.8703C25.1053 43.8703 25.4187 43.5494 25.4187 43.1536V37.4203C25.4153 36.4734 24.8062 35.6409 23.9199 35.3711ZM21.2187 30.9704C22.3784 30.9704 23.3187 31.9327 23.3187 33.1204C23.3187 34.3077 22.3784 35.2704 21.2187 35.2704C20.059 35.2704 19.1188 34.3077 19.1188 33.1204C19.1188 31.9327 20.059 30.9704 21.2187 30.9704Z" fill="#48505B"/>
<path d="M39.4081 26.1722C41.1177 25.3471 42.2115 23.5887 42.2186 21.6539V20.2206C42.2163 18.2425 40.6505 16.6394 38.7187 16.6373H28.2188C27.4457 16.6373 26.8188 17.2788 26.8188 18.0706V21.6539C26.826 23.5887 27.9198 25.3471 29.6294 26.1722C29.6817 27.4442 30.2064 28.6476 31.0957 29.5372H30.3188C28.3866 29.5393 26.8212 31.1423 26.8188 33.1204V43.1536C26.8188 43.5494 27.1323 43.8703 27.5188 43.8703C27.9054 43.8703 28.2188 43.5494 28.2188 43.1536V37.4204H29.6188V43.1536C29.6188 43.5494 29.9322 43.8703 30.3188 43.8703C30.7054 43.8703 31.0188 43.5494 31.0188 43.1536V36.7037C31.0188 36.308 30.7054 35.9871 30.3188 35.9871H28.2188V33.1204C28.2188 31.9328 29.1591 30.9705 30.3188 30.9705H31.7188C31.7188 32.5536 32.9721 33.8371 34.5187 33.8371C36.065 33.8371 37.3187 32.5536 37.3187 30.9705H38.7187C39.8784 30.9705 40.8187 31.9328 40.8187 33.1204V35.9871H38.7187C38.3321 35.9871 38.0187 36.308 38.0187 36.7037V43.1536C38.0187 43.5494 38.3321 43.8703 38.7187 43.8703C39.1053 43.8703 39.4187 43.5494 39.4187 43.1536V37.4204H40.8187V43.1536C40.8187 43.5494 41.1321 43.8703 41.5187 43.8703C41.9052 43.8703 42.2186 43.5494 42.2186 43.1536V33.1204C42.2163 31.1423 40.6505 29.5393 38.7187 29.5372H37.9408C38.8308 28.6476 39.3555 27.4442 39.4081 26.1722ZM31.0188 25.9539V22.3706H34.5187C34.9053 22.3706 35.2187 22.0497 35.2187 21.6539C35.2187 21.2582 34.9053 20.9373 34.5187 20.9373H30.3188C29.9322 20.9373 29.6188 21.2582 29.6188 21.6539V24.516C28.7387 23.8403 28.2202 22.78 28.2188 21.6539V18.0706H38.7187C39.8784 18.0706 40.8187 19.033 40.8187 20.2206V21.6539C40.8173 22.78 40.2988 23.8403 39.4187 24.516V21.6539C39.4187 21.2582 39.1053 20.9373 38.7187 20.9373H37.3187C36.9321 20.9373 36.6187 21.2582 36.6187 21.6539C36.6187 22.0497 36.9321 22.3706 37.3187 22.3706H38.0187V25.9539C38.0187 27.9327 36.4516 29.5372 34.5187 29.5372C32.5856 29.5372 31.0188 27.9327 31.0188 25.9539ZM34.5187 32.4038C33.7456 32.4038 33.1188 31.762 33.1188 30.9705H35.9187C35.9187 31.762 35.2919 32.4038 34.5187 32.4038Z" fill="#48505B"/>
<path d="M12.1191 29.537H11.3412C12.2866 28.5957 12.8194 27.3034 12.8191 25.9537V21.6538C12.8191 21.258 12.5056 20.9371 12.1191 20.9371H10.7191C10.3325 20.9371 10.0191 21.258 10.0191 21.6538C10.0191 22.0496 10.3325 22.3704 10.7191 22.3704H11.4191V25.9537C11.4191 27.9326 9.85197 29.537 7.91914 29.537C5.98596 29.537 4.41918 27.9326 4.41918 25.9537V22.3704H7.91914C8.3057 22.3704 8.61913 22.0496 8.61913 21.6538C8.61913 21.258 8.3057 20.9371 7.91914 20.9371H3.71919C3.33262 20.9371 3.0192 21.258 3.0192 21.6538V25.9537C3.01886 27.3031 3.55137 28.5957 4.49609 29.537H3.71919C1.78704 29.5391 0.221631 31.1421 0.219238 33.1203V43.1535C0.219238 43.5493 0.532662 43.8702 0.919229 43.8702C1.3058 43.8702 1.61922 43.5493 1.61922 43.1535V37.4202H3.0192V43.1535C3.0192 43.5493 3.33262 43.8702 3.71919 43.8702C4.10576 43.8702 4.41918 43.5493 4.41918 43.1535V36.7036C4.41918 36.3078 4.10576 35.9869 3.71919 35.9869H1.61922V33.1203C1.61922 31.9326 2.55949 30.9703 3.71919 30.9703H5.11917V32.4036C5.11883 32.5937 5.19266 32.7763 5.32425 32.911L7.21915 34.8511V38.1369C7.21915 38.5327 7.53257 38.8536 7.91914 38.8536C8.3057 38.8536 8.61913 38.5327 8.61913 38.1369V34.8511L10.514 32.911C10.6453 32.7763 10.7191 32.5937 10.7191 32.4036V30.9703H12.1191C13.2788 30.9703 14.2191 31.9326 14.2191 33.1203V35.9869H12.1191C11.7325 35.9869 11.4191 36.3078 11.4191 36.7036V43.1535C11.4191 43.5493 11.7325 43.8702 12.1191 43.8702C12.5056 43.8702 12.8191 43.5493 12.8191 43.1535V37.4202H14.2191V43.1535C14.2191 43.5493 14.5325 43.8702 14.919 43.8702C15.3056 43.8702 15.619 43.5493 15.619 43.1535V33.1203C15.6166 31.1421 14.0509 29.5391 12.1191 29.537ZM9.31912 32.1069L7.91914 33.5402L6.51915 32.1069V30.9703H9.31912V32.1069Z" fill="#48505B"/>
<path d="M7.91914 15.2039C3.66861 15.2088 0.224023 18.7354 0.219238 23.0871V28.1037C0.219238 28.4995 0.532662 28.8203 0.919229 28.8203C1.3058 28.8203 1.61922 28.4995 1.61922 28.1037V23.0871C1.61922 19.5248 4.43969 16.6372 7.91914 16.6372C11.3986 16.6372 14.2191 19.5248 14.2191 23.0871V28.1037C14.2191 28.4995 14.5325 28.8203 14.919 28.8203C15.3056 28.8203 15.619 28.4995 15.619 28.1037V23.0871C15.6139 18.7354 12.1697 15.2088 7.91914 15.2039Z" fill="#48505B"/>
<path d="M3.77381 13.5348L4.41911 13.2279V13.7706C4.41911 14.1664 4.73254 14.4873 5.1191 14.4873C5.50567 14.4873 5.81909 14.1664 5.81909 13.7706V12.5623L20.3241 5.66731C20.8915 5.39717 21.5463 5.39717 22.1134 5.66731L36.6187 12.5623V13.7706C36.6187 14.1664 36.9321 14.4873 37.3187 14.4873C37.7052 14.4873 38.0187 14.1664 38.0187 13.7706V13.2279L38.664 13.5348C39.716 14.0348 40.9649 13.567 41.4533 12.4899C41.9418 11.4128 41.4851 10.1342 40.4328 9.63412L22.703 1.20605C21.762 0.758139 20.6758 0.758139 19.7348 1.20605L2.00469 9.63412C0.952654 10.1342 0.495678 11.4128 0.984099 12.4899C1.47252 13.567 2.72143 14.0348 3.77381 13.5348ZM2.23369 11.3383C2.29727 11.1595 2.42783 11.0142 2.59633 10.9341L20.3241 2.50674C20.8915 2.2366 21.5463 2.2366 22.1134 2.50674L39.8435 10.9341C40.1942 11.1007 40.3466 11.5272 40.1836 11.8863C40.0209 12.2457 39.6042 12.4017 39.2532 12.2348L22.703 4.36662C21.762 3.91871 20.6758 3.91871 19.7348 4.36662L3.18422 12.2348C3.01571 12.3149 2.82294 12.3233 2.64863 12.2579C2.47397 12.1928 2.33213 12.0591 2.25386 11.8863C2.1749 11.7141 2.16704 11.5167 2.23164 11.3383H2.23369Z" fill="#48505B"/>
<path d="M24.7187 10.1874H17.7188C17.3322 10.1874 17.0188 10.5083 17.0188 10.904V16.6373C17.0188 17.0331 17.3322 17.3539 17.7188 17.3539C18.1054 17.3539 18.4188 17.0331 18.4188 16.6373V14.4873H20.5188V16.6373C20.5188 17.0331 20.8322 17.3539 21.2187 17.3539C21.6053 17.3539 21.9187 17.0331 21.9187 16.6373V14.4873H24.0187V16.6373C24.0187 17.0331 24.3321 17.3539 24.7187 17.3539C25.1053 17.3539 25.4187 17.0331 25.4187 16.6373V10.904C25.4187 10.5083 25.1053 10.1874 24.7187 10.1874ZM18.4188 13.054V11.6207H20.5188V13.054H18.4188ZM21.9187 13.054V11.6207H24.0187V13.054H21.9187Z" fill="#48505B"/>
</g>
<defs>
<clipPath id="clip0">
<rect x="0.218506" y="0.870117" width="42" height="43" fill="white"/>
</clipPath>
</defs>
</svg>
