<svg width="17" height="16" viewBox="0 0 17 16" fill="none" xmlns="http://www.w3.org/2000/svg">
<path d="M8.50745 13.442L5.70215 10.4764L6.61023 9.61743L8.505 11.6205L10.3885 9.61865L11.299 10.4752L8.50745 13.442ZM13.6875 12.25V3.75C13.6875 1.68225 12.0052 0 9.9375 0H7.0625C4.99475 0 3.3125 1.68225 3.3125 3.75V12.25C3.3125 14.3177 4.99475 16 7.0625 16H9.9375C12.0052 16 13.6875 14.3177 13.6875 12.25ZM9.9375 1.25C11.316 1.25 12.4375 2.37146 12.4375 3.75V12.25C12.4375 13.6285 11.316 14.75 9.9375 14.75H7.0625C5.68396 14.75 4.5625 13.6285 4.5625 12.25V3.75C4.5625 2.37146 5.68396 1.25 7.0625 1.25H9.9375ZM8.5 2.53125C8.15479 2.53125 7.875 2.81104 7.875 3.15625C7.875 3.50146 8.15479 3.78125 8.5 3.78125C8.84521 3.78125 9.125 3.50146 9.125 3.15625C9.125 2.81104 8.84521 2.53125 8.5 2.53125ZM8.5 5.03125C8.15479 5.03125 7.875 5.31104 7.875 5.65625C7.875 6.00146 8.15479 6.28125 8.5 6.28125C8.84521 6.28125 9.125 6.00146 9.125 5.65625C9.125 5.31104 8.84521 5.03125 8.5 5.03125ZM8.5 7.53125C8.15479 7.53125 7.875 7.81104 7.875 8.15625C7.875 8.50146 8.15479 8.78125 8.5 8.78125C8.84521 8.78125 9.125 8.50146 9.125 8.15625C9.125 7.81104 8.84521 7.53125 8.5 7.53125Z" fill="#9AA0AA"/>
</svg>
